<svg width="124" height="356" viewBox="0 0 124 356" fill="none" xmlns="http://www.w3.org/2000/svg">
    <mask id="c" fill="#fff">
        <path d="m66.224 355.169.004-.001v-.002L123.25 5.344A357.466 357.466 0 0 0 .268 7.174l65.955 347.993v.002z"/>
    </mask>
    <path d="m66.224 355.169.004-.001v-.002L123.25 5.344A357.466 357.466 0 0 0 .268 7.174l65.955 347.993v.002z" fill="url(#a)" fill-opacity=".4"/>
    <path d="m66.224 355.169-3.83 1.156 1.206 3.998 3.943-1.377-1.32-3.777zm.004-.001 1.319 3.776 3.32-1.159-.725-3.441-3.914.824zm0-.002-3.949-.643-.12.737.154.73 3.914-.824zM123.25 5.344l3.948.643.646-3.962-3.964-.632-.63 3.95zM.268 7.174l-.746-3.93-3.928.747.744 3.928 3.93-.745zm65.955 347.993-3.93.745.04.208.06.202 3.83-1.155zm1.32 3.779.003-.002-2.638-7.552-.003.001 2.638 7.553zm2.599-4.602v-.002l-7.83 1.648.001.002 7.829-1.648zm.033 1.466L127.199 5.987 119.303 4.7 62.279 354.523l7.896 1.287zM123.881 1.393A361.469 361.469 0 0 0-.479 3.245l1.494 7.859a353.468 353.468 0 0 1 121.607-1.81l1.259-7.9zM-3.662 7.92l65.955 347.993 7.86-1.49L4.198 6.429l-7.86 1.49zm66.056 348.403v.003l7.66-2.311-.001-.002-7.66 2.31z" fill="url(#b)" mask="url(#c)"/>
    <defs>
        <linearGradient id="a" x1="61.621" y1="27.26" x2="59.116" y2="375.117" gradientUnits="userSpaceOnUse">
            <stop offset=".006" stop-color="#C8A343"/>
            <stop offset=".06" stop-color="#D1AE54"/>
            <stop offset=".167" stop-color="#E9CB81"/>
            <stop offset=".185" stop-color="#EDD089"/>
            <stop offset=".41" stop-color="#EBC17D"/>
            <stop offset=".73" stop-color="#C08329"/>
            <stop offset=".949" stop-color="#EABE81"/>
        </linearGradient>
        <linearGradient id="b" x1="-81.987" y1="46.695" x2="100.966" y2="-41.17" gradientUnits="userSpaceOnUse">
            <stop stop-color="#FFC700"/>
            <stop offset=".24" stop-color="#FFE76B"/>
            <stop offset=".505" stop-color="#E4C000"/>
            <stop offset=".75" stop-color="#FFE76B"/>
            <stop offset="1" stop-color="#FFC700"/>
        </linearGradient>
    </defs>
</svg>
