<?xml version="1.0" encoding="utf-8"?>
<!-- Generator: Adobe Illustrator 16.0.0, SVG Export Plug-In . SVG Version: 6.00 Build 0)  -->
<!DOCTYPE svg PUBLIC "-//W3C//DTD SVG 1.1//EN" "http://www.w3.org/Graphics/SVG/1.1/DTD/svg11.dtd">
<svg version="1.1" id="Layer_1" xmlns="http://www.w3.org/2000/svg" xmlns:xlink="http://www.w3.org/1999/xlink" x="0px" y="0px"
	 width="144px" height="144px" viewBox="-1.5 -2.014 144 144" enable-background="new -1.5 -2.014 144 144" xml:space="preserve">
<path fill="#30B1CE" d="M90.102,66.867l-0.946-7.631c-0.076-0.616,0.369-1.12,0.989-1.12h0.811c0.621,0,1.307,0.476,1.524,1.056
	l3.005,8.016c0.218,0.581,0.396,1.404,0.396,1.83s-0.481,0.935-1.07,1.131l-0.68,0.227c-0.588,0.196-1.552,0.196-2.14,0
	l-0.681-0.227c-0.588-0.196-1.069-0.763-1.069-1.26C90.24,68.392,90.178,67.482,90.102,66.867z M79.054,58.116h-0.809
	c-0.621,0-1.307,0.476-1.524,1.056l-3.005,8.014c-0.218,0.581-0.396,1.404-0.396,1.83s0.481,0.935,1.069,1.131l0.681,0.227
	c0.588,0.196,1.552,0.197,2.14,0.001l0.684-0.228c0.589-0.196,1.072-0.802,1.074-1.346c0.003-0.544,0.066-1.493,0.144-2.108
	l0.932-7.457C80.119,58.62,79.675,58.116,79.054,58.116z M72.978,58.116h-1.889c-0.62,0-1.355,0.454-1.633,1.009l-4.092,8.185
	c-0.277,0.555-0.504,1.34-0.504,1.744s0.481,0.896,1.069,1.092l0.681,0.228c0.588,0.196,1.551,0.196,2.14,0l0.68-0.228
	c0.589-0.196,1.07-0.82,1.07-1.387s0.179-1.505,0.396-2.086l2.813-7.501C73.928,58.591,73.599,58.116,72.978,58.116z M65.988,91.955
	h38.634c0.62,0,1.128-0.506,1.128-1.127V73.42c0-0.621-0.481-0.967-1.07-0.771l-2.09,0.697c-0.588,0.195-1.07,0.863-1.07,1.484
	v11.768c0,0.621-0.507,1.129-1.128,1.129H70.218c-0.62,0-1.128-0.508-1.128-1.129V74.359c0-0.619-0.317-1.021-0.705-0.893
	s-1.187,0.074-1.774-0.121l-0.681-0.229c-0.588-0.195-1.069,0.15-1.069,0.771v16.939C64.86,91.449,65.367,91.955,65.988,91.955z
	 M83.53,70.375c0.588,0.196,1.552,0.196,2.14,0l0.68-0.227c0.589-0.196,1.07-0.743,1.07-1.216c0-0.472-0.063-1.362-0.14-1.978
	l-0.966-7.72c-0.077-0.615-0.647-1.119-1.268-1.119h-0.894c-0.62,0-1.191,0.504-1.268,1.119l-0.966,7.72
	c-0.077,0.615-0.14,1.506-0.14,1.978c0,0.473,0.481,1.02,1.069,1.216L83.53,70.375z M62.545,66.643l3.76-7.519
	c0.277-0.555-0.003-1.009-0.623-1.009h-0.322c-0.62,0-1.396,0.431-1.726,0.957l-5.226,8.36c-0.329,0.526-0.599,1.304-0.599,1.729
	s0.342,0.943,0.76,1.152s1.241,0.22,1.829,0.023l0.571-0.191c0.589-0.195,1.07-0.838,1.07-1.425
	C62.04,68.133,62.268,67.199,62.545,66.643z M29.61,95.904v4.564c0,0.619,0.507,1.127,1.128,1.127h79.523
	c0.621,0,1.128-0.508,1.128-1.127v-4.564c0-0.621-0.507-1.129-1.128-1.129H30.738C30.117,94.775,29.61,95.283,29.61,95.904z
	 M60.97,73.119l-0.788,0.264c-0.589,0.195-1.363,0.209-1.721,0.029c-0.358-0.178-0.651,0.182-0.651,0.803v16.613
	c0,0.621,0.508,1.127,1.128,1.127h1.975c0.62,0,1.128-0.506,1.128-1.127V73.891C62.04,73.27,61.559,72.922,60.97,73.119z
	 M79.3,72.648l-2.09,0.697c-0.588,0.195-1.552,0.195-2.14,0l-2.09-0.697c-0.589-0.196-1.07,0.15-1.07,0.771v10.357
	c0,0.621,0.507,1.129,1.128,1.129H97.57c0.621,0,1.128-0.508,1.128-1.129v-9.889c0-0.621-0.317-1.232-0.705-1.361
	c-0.388-0.129-1.187-0.075-1.774,0.121l-2.09,0.697c-0.589,0.195-1.552,0.195-2.141,0L89.9,72.648c-0.589-0.196-1.552-0.196-2.141,0
	l-2.09,0.697c-0.588,0.195-1.552,0.195-2.14,0l-2.09-0.697C80.852,72.453,79.889,72.453,79.3,72.648z M35.365,41.196h70.271
	c0.62,0,1.005-0.492,0.854-1.094l-0.158-0.632c-0.15-0.602-0.781-1.095-1.401-1.095H36.069c-0.62,0-1.251,0.493-1.401,1.095
	l-0.158,0.632C34.359,40.704,34.744,41.196,35.365,41.196z M110.262,44.016H30.738c-0.621,0-1.128,0.507-1.128,1.128v0.563
	c0,0.621,0.507,1.128,1.128,1.128h79.523c0.621,0,1.128-0.507,1.128-1.128v-0.563C111.39,44.523,110.883,44.016,110.262,44.016z
	 M103.896,58.116h-0.378c-0.62,0-0.9,0.454-0.623,1.009l3.76,7.518c0.278,0.555,0.505,1.49,0.505,2.078s0.481,1.229,1.07,1.426
	l0.57,0.19c0.589,0.196,1.412,0.186,1.83-0.022c0.417-0.209,0.759-0.887,0.759-1.507v-0.652c0-0.621-0.295-1.541-0.655-2.046
	l-5.054-7.075C105.319,58.529,104.517,58.116,103.896,58.116z M99.743,59.125c-0.277-0.555-1.012-1.009-1.632-1.009h-1.889
	c-0.621,0-0.95,0.476-0.732,1.056l2.813,7.503c0.218,0.581,0.396,1.52,0.396,2.086c0,0.567,0.481,1.191,1.069,1.388l0.681,0.227
	c0.588,0.196,1.552,0.196,2.14,0l0.68-0.227c0.589-0.196,1.07-0.688,1.07-1.093s-0.227-1.189-0.504-1.745L99.743,59.125z
	 M35.25,90.828c0,0.621,0.508,1.127,1.128,1.127h1.974c0.621,0,1.129-0.506,1.129-1.127V73.344c0-0.621-0.508-1.127-1.129-1.127
	h-1.974c-0.62,0-1.128,0.506-1.128,1.127V90.828z M142.5,69.987c0,39.763-32.236,72-72,72c-39.764,0-72-32.236-72-72
	c0-39.766,32.236-72,72-72C110.264-2.014,142.5,30.221,142.5,69.987z M114.21,42.324c0-0.62-0.508-1.128-1.128-1.128H110.8
	c-0.621,0-1.251-0.492-1.401-1.094l-0.863-3.452c-0.15-0.602-0.781-1.094-1.401-1.094H33.866c-0.62,0-1.251,0.492-1.401,1.094
	l-0.863,3.452c-0.15,0.602-0.781,1.094-1.401,1.094h-2.282c-0.62,0-1.128,0.508-1.128,1.128v6.204c0,0.62,0.508,1.128,1.128,1.128
	h3.384c0.62,0,1.128,0.508,1.128,1.128v40.044c0,0.621-0.508,1.127-1.128,1.127h-3.384c-0.62,0-1.128,0.508-1.128,1.129v10.203
	c0,0.621,0.508,1.129,1.128,1.129h85.164c0.62,0,1.128-0.508,1.128-1.129V93.084c0-0.621-0.508-1.129-1.128-1.129h-3.384
	c-0.621,0-1.128-0.506-1.128-1.127V74.359c0-0.619,0.342-1.014,0.759-0.873c0.418,0.139,1.214,0.025,1.769-0.252l2.104-1.052
	c0.555-0.278,1.009-1.013,1.009-1.633v-3.296c0-0.621-0.295-1.542-0.655-2.047l-4.41-6.173c-0.36-0.505-0.637-0.918-0.615-0.918
	c0.022,0,0.041-0.508,0.041-1.128v-6.204c0-0.62,0.507-1.128,1.128-1.128h3.384c0.62,0,1.128-0.508,1.128-1.128V42.324z
	 M105.75,54.167v-3.384c0-0.62-0.508-1.128-1.128-1.128H36.378c-0.62,0-1.128,0.508-1.128,1.128v3.384
	c0,0.621,0.508,1.128,1.128,1.128h68.244C105.242,55.295,105.75,54.789,105.75,54.167z M35.25,64.038
	c0,0.621,0.508,1.128,1.128,1.128h18.994c0.62,0,1.396-0.43,1.726-0.956l3.211-5.137c0.328-0.526,0.09-0.957-0.53-0.957h-23.4
	c-0.62,0-1.128,0.508-1.128,1.128V64.038z M53.862,72.216H43.428c-0.62,0-1.128,0.506-1.128,1.127v17.484
	c0,0.621,0.508,1.127,1.128,1.127h10.435c0.62,0,1.128-0.506,1.128-1.127V73.344C54.99,72.723,54.482,72.216,53.862,72.216z
	 M36.378,69.396h17.484c0.62,0,1.128-0.317,1.128-0.705s-0.508-0.705-1.128-0.705H36.378c-0.62,0-1.128,0.317-1.128,0.705
	S35.758,69.396,36.378,69.396z"/>
</svg>
