<?xml version="1.0" encoding="utf-8"?>
<!-- Generator: Adobe Illustrator 16.0.0, SVG Export Plug-In . SVG Version: 6.00 Build 0)  -->
<!DOCTYPE svg PUBLIC "-//W3C//DTD SVG 1.1//EN" "http://www.w3.org/Graphics/SVG/1.1/DTD/svg11.dtd">
<svg version="1.1" id="Layer_1" xmlns="http://www.w3.org/2000/svg" xmlns:xlink="http://www.w3.org/1999/xlink" x="0px" y="0px"
	 width="144px" height="144px" viewBox="-1.5 -2.014 144 144" enable-background="new -1.5 -2.014 144 144" xml:space="preserve">
<path fill="#3EBACD" d="M56.581,67.024h-2.56v-1.279c0-0.705,0.575-1.279,1.28-1.279h1.28c0.705,0,1.28,0.574,1.28,1.279
	S57.287,67.024,56.581,67.024z M54.021,69.584v7.681h5.12v-7.681h-2.56H54.021z M50.18,64.466H48.9c-0.706,0-1.28,0.574-1.28,1.279
	s0.575,1.279,1.28,1.279h2.56v-1.279C51.46,65.04,50.885,64.466,50.18,64.466z M61.182,98.304l-2.987,8.962h24.609l-2.988-8.962
	H61.182z M32.101,85.505h76.798v6.4c0,2.117-1.723,3.84-3.84,3.84H80.74H60.26H35.94c-2.117,0-3.84-1.723-3.84-3.84V85.505z
	 M74.34,91.905H76.9v-2.561H74.34V91.905z M69.22,91.905h2.56v-2.561h-2.56V91.905z M64.101,91.905h2.56v-2.561h-2.56V91.905z
	 M46.34,69.584v7.681h5.12v-7.681H48.9H46.34z M52.9,44.545c-1.669,0-3.092-1.069-3.622-2.56H46.5v2.56h1.28
	c0.707,0,1.28,0.573,1.28,1.28v8.96h7.68v-8.96c0-0.707,0.573-1.28,1.28-1.28h1.28v-2.56h-2.779
	C55.992,43.475,54.569,44.545,52.9,44.545z M108.9,39.425v43.521h-76.8V39.425c0-2.117,1.723-3.84,3.84-3.84h69.12
	C107.178,35.585,108.9,37.308,108.9,39.425z M67.42,50.225h14.519v-2.561H67.42V50.225z M67.42,55.344h21.519v-2.56H67.42V55.344z
	 M67.42,72.226h14.519v-2.562H67.42V72.226z M61.7,68.305c0-0.707-0.573-1.281-1.28-1.281h-0.236
	c0.144-0.401,0.236-0.828,0.236-1.279c0-2.117-1.723-3.84-3.84-3.84H55.3c-0.987,0-1.879,0.385-2.56,0.998
	c-0.681-0.614-1.573-0.998-2.56-0.998H48.9c-2.117,0-3.84,1.723-3.84,3.84c0,0.451,0.092,0.878,0.236,1.279h-0.236
	c-0.707,0-1.28,0.574-1.28,1.281v10.239c0,0.707,0.573,1.28,1.28,1.28h15.36c0.707,0,1.28-0.573,1.28-1.28V68.305z M61.86,40.705
	c0-0.706-0.573-1.28-1.28-1.28h-5.12c-0.706,0-1.28,0.574-1.28,1.28s-0.575,1.28-1.28,1.28s-1.28-0.574-1.28-1.28
	s-0.573-1.28-1.28-1.28h-5.12c-0.707,0-1.28,0.574-1.28,1.28v5.12c0,0.707,0.573,1.279,1.28,1.279h1.28v8.961
	c0,0.707,0.573,1.279,1.28,1.279h10.24c0.706,0,1.28-0.572,1.28-1.279v-8.961h1.28c0.706,0,1.28-0.572,1.28-1.279V40.705z
	 M88.939,74.784H67.42v2.561h21.519V74.784z M98.939,64.544H67.42v2.56h31.519V64.544z M98.939,42.545H67.42v2.559h31.519V42.545z
	 M142.5,70c0,39.763-32.236,72-72,72c-39.764,0-72-32.236-72-72c0-39.766,32.236-72,72-72C110.264-2,142.5,30.235,142.5,70z
	 M111.461,39.425c0-3.528-2.871-6.399-6.4-6.399H35.94c-3.529,0-6.4,2.871-6.4,6.399v52.48c0,3.527,2.871,6.398,6.4,6.398h22.544
	l-2.986,8.962h-8.037l-1.103,2.721h48.284l-1.102-2.721h-8.037l-2.986-8.962h22.543c3.529,0,6.4-2.871,6.4-6.398V39.425z"/>
</svg>
