<?xml version="1.0" encoding="utf-8"?>
<!-- Generator: Adobe Illustrator 16.0.0, SVG Export Plug-In . SVG Version: 6.00 Build 0)  -->
<!DOCTYPE svg PUBLIC "-//W3C//DTD SVG 1.1//EN" "http://www.w3.org/Graphics/SVG/1.1/DTD/svg11.dtd">
<svg version="1.1" id="Layer_1" xmlns="http://www.w3.org/2000/svg" xmlns:xlink="http://www.w3.org/1999/xlink" x="0px" y="0px"
	 width="144px" height="144px" viewBox="-1.5 -2.014 144 144" enable-background="new -1.5 -2.014 144 144" xml:space="preserve">
<path fill="#0b84ac" d="M81.6,61.223h22.367v0.848H81.6V61.223z M81.6,59.03h22.367v-1.113H81.6V59.03z M81.6,65.141h22.367v-0.877
	H81.6V65.141z M97.457,49.767c1.33-0.936,2.594-1.971,3.781-3.106l-1.077-2.332C98.07,45.963,96.965,48.16,97.457,49.767z
	 M81.6,68.395h22.367v-1.062H81.6V68.395z M91.993,55.257c-0.396,0.164-0.796,0.318-1.195,0.468h12.26l-3.203-4.999
	C97.451,52.567,94.821,54.085,91.993,55.257z M94.795,32.712c-1.352,1.237-2.789,2.358-4.305,3.361
	c1.351,0.033,3.218-0.392,5.215-1.388L94.795,32.712z M47.783,53.651c-0.229,0-0.457,0.006-0.684,0.016l0.95,2.058v0h6.709
	C53.769,54.675,51.291,53.651,47.783,53.651z M48.445,65.141h24.85v-0.877h-24.85V65.141z M75.488,68.395h3.919V57.908
	c-0.263,0.006-3.919,0.01-3.919,0.01V68.395z M48.445,59.03h24.85v-1.112h-24.85V59.03z M48.445,62.071h24.85v-0.848h-24.85V62.071z
	 M48.445,68.395h24.85v-1.062h-24.85V68.395z M46.252,57.063l-5.22-11.299v1.234l5.22,11.299V57.063z M46.252,63.526l-5.22-11.299
	v0.977l5.22,11.299V63.526z M142.5,69.987c0,39.763-32.236,72-72,72c-39.764,0-72-32.236-72-72c0-39.766,32.236-72,72-72
	C110.264-2.014,142.5,30.221,142.5,69.987z M38.84,53.445c0,0.159,0.035,0.316,0.101,0.46l7.413,16.045l0,0
	c0.174,0.376,0.553,0.638,0.995,0.638h57.714c0.606,0,1.097-0.491,1.097-1.097v-12.67c0-0.231-0.072-0.445-0.193-0.622l-4.402-6.869
	c0.605-0.528,1.197-1.078,1.77-1.65c0.324-0.325,0.412-0.818,0.22-1.235l-7.413-16.045c-0.149-0.325-0.449-0.557-0.803-0.62
	s-0.714,0.051-0.967,0.304c-3.059,3.058-6.635,5.447-10.629,7.102c-3.996,1.655-8.214,2.494-12.538,2.494H39.937
	c-0.374,0-0.722,0.19-0.924,0.505c-0.115,0.179-0.17,0.385-0.17,0.591H38.84V53.445z M111.391,84.613
	c-0.004-3.359-2.733-6.092-6.086-6.093c-0.816,0-1.641,0.184-2.533,0.526c-1.166-1.491-2.91-2.348-4.789-2.35
	c-0.944,0-1.859,0.231-2.807,0.713l-2.604,1.478c-1.163-1.391-2.861-2.189-4.658-2.19c-0.93,0-1.843,0.223-2.723,0.666l-0.1,0.057
	l-9.688,5.914c-2.174-0.646-4.588-1.352-6.92-2.014c-2.716-0.77-4.979-1.386-6.725-1.827c-0.949-0.239-1.779-0.437-2.457-0.576
	c-0.34-0.071-0.641-0.126-0.907-0.168c-0.269-0.039-0.493-0.067-0.745-0.068c-0.195,0.001-0.363,0.019-0.555,0.042
	c-0.625,0.082-1.52,0.264-2.901,0.587c-2.463,0.581-5.597,1.422-7.243,1.87l-0.021,0.184l-0.07-0.25v-2.905
	c0-1.982-1.611-3.596-3.592-3.596H33.201c-1.98,0-3.591,1.613-3.591,3.596c0,0,0,2.235,0,3.704s2.606,1.469,2.606,0s0-3.704,0-3.704
	c0-0.534,0.451-0.985,0.985-0.985H43.27c0.534,0,0.985,0.451,0.985,0.985v28.407c0,0.535-0.451,0.987-0.985,0.987H33.201
	c-0.534,0-0.985-0.452-0.985-0.987c0,0,0-9.453,0-10.703s-2.606-1.188-2.606,0s0,10.704,0,10.704c0,1.982,1.611,3.595,3.591,3.595
	H43.27c1.98,0,3.591-1.612,3.591-3.595v-2.206l0.085-0.068c2.337,0.51,7.013,1.521,12.08,2.563c4.053,0.832,7.393,1.487,9.926,1.945
	c1.549,0.282,2.845,0.5,3.854,0.646c1.044,0.152,1.868,0.254,2.499,0.258c0.42-0.002,0.84-0.07,1.406-0.226
	c0.846-0.239,1.84-0.643,3.129-1.268c3.467-1.692,8.595-4.813,15.679-9.544c4.268-2.852,8.197-5.588,11.067-7.584
	c0,0,1.781-1.24,2.326-1.615C110.464,88.445,111.391,86.613,111.391,84.613z M105.311,81.129c-0.515,0-1.02,0.125-1.541,0.383
	l-0.34,0.203c-0.163,0.199-0.329,0.33-0.529,0.414c-0.086,0.036-0.182,0.063-0.295,0.084L91.82,88.609
	c-0.201,0.121-0.43,0.184-0.664,0.184c-0.457,0-0.887-0.244-1.122-0.639c-0.179-0.303-0.229-0.654-0.142-0.99
	c0.085-0.336,0.297-0.62,0.598-0.799l9.949-5.908l0.014-0.109c-0.662-0.672-1.537-1.041-2.462-1.041
	c-0.518,0-1.022,0.126-1.545,0.384l-8.55,5.077c-0.202,0.119-0.432,0.182-0.664,0.182c-0.459,0-0.889-0.244-1.121-0.639
	c-0.178-0.299-0.229-0.65-0.142-0.988c0.086-0.338,0.298-0.623,0.598-0.799l3.681-2.186c0,0,0.011-0.111,0.01-0.111
	c-0.645-0.594-1.475-0.92-2.338-0.92c-0.514,0.001-1.017,0.126-1.536,0.382l-7.457,4.572l0.017,0.126l2.357,0.713
	c1.25,0.383,2.339,0.886,3.238,1.498c1.095,0.746,1.897,1.647,2.388,2.678c0.366,0.768,0.559,1.639,0.558,2.52
	c-0.004,3.621-2.947,6.568-6.563,6.57l-3.815-0.369l-12.13-1.557c-0.713-0.094-1.219-0.748-1.126-1.461
	c0.083-0.648,0.64-1.139,1.293-1.139c0.056,0,0.109,0.004,0.165,0.01l12.094,1.555l3.545,0.348c1.041-0.01,2.033-0.42,2.772-1.156
	c0.745-0.75,1.157-1.746,1.158-2.801c-0.001-0.518-0.099-0.963-0.304-1.4c-0.189-0.399-0.48-0.783-0.864-1.139
	c-0.723-0.672-1.848-1.261-3.168-1.66c-1.956-0.594-12.03-3.644-18.325-5.291c-1.947-0.51-3.48-0.865-4.211-0.975
	c-0.188-0.029-0.329-0.039-0.354-0.039l-0.005-0.18l0.001,0.18c-0.036,0-0.217,0.016-0.443,0.053
	c-0.248,0.041-0.572,0.102-0.943,0.178c-0.744,0.156-1.679,0.375-2.669,0.62c-2.146,0.528-4.453,1.148-5.638,1.471l-1.044,0.286
	l-0.05,17.697l2.61,0.624c1.952,0.421,4.632,0.995,7.541,1.604c5.301,1.105,12.409,2.54,16.174,3.093
	c0.931,0.139,1.758,0.229,2.109,0.229c0.119,0,0.378-0.034,0.715-0.13c0.342-0.096,0.767-0.247,1.266-0.453
	c0.967-0.401,2.174-1,3.588-1.775c2.479-1.358,5.685-3.313,9.526-5.811c5.5-3.576,11.05-7.439,14.722-9.996
	c0,0,1.773-1.234,2.324-1.613c0.83-0.566,1.348-1.621,1.352-2.754c0-0.93-0.361-1.805-1.018-2.463
	C107.109,81.492,106.235,81.131,105.311,81.129z M46.788,41.873h-5.137l0.809,1.751C44.499,43.296,46.007,42.604,46.788,41.873z
	 M70.142,50.236l-1.487-3.219c-2.992,0.42-4.449,1.157-4.775,1.527C64.299,49.046,66.406,49.911,70.142,50.236z M46.114,51.535
	c0.549-0.049,1.107-0.076,1.669-0.076c4.884,0,8.699,1.777,9.492,4.266h15.402l-1.488-3.22c-2.605-0.146-9.544-0.828-9.544-3.963
	c0-2.158,3.317-3.148,6.052-3.598l-1.419-3.072h-16.89c-0.644,1.779-2.849,3.192-5.978,3.81L46.114,51.535z M78.617,55.725
	c0.057,0,0.113-0.001,0.171-0.002l-6.409-13.872c-0.391,0.013-0.782,0.022-1.175,0.021h-2.511l6.399,13.853H78.617z M77.15,46.95
	l1.378,2.981c2.439-0.433,3.614-1.06,3.905-1.388C82.09,48.161,80.504,47.352,77.15,46.95z M84.67,48.542
	c0,1.132-0.944,2.596-5.193,3.443l1.683,3.641c3.435-0.265,6.787-1.066,9.995-2.395c1.541-0.638,3.018-1.387,4.428-2.24
	c-1.234-2.686,0.301-6.303,3.639-8.696l-2.595-5.618c-2.111,1.047-4.202,1.586-5.956,1.586c-1.084,0-2.039-0.206-2.79-0.625
	c-1.067,0.578-2.167,1.104-3.299,1.573c-3.171,1.313-6.474,2.145-9.856,2.484l1.36,2.946C78.756,44.86,84.67,45.667,84.67,48.542z"
	/>
</svg>
