<?xml version="1.0" encoding="utf-8"?>
<!-- Generator: Adobe Illustrator 16.0.0, SVG Export Plug-In . SVG Version: 6.00 Build 0)  -->
<!DOCTYPE svg PUBLIC "-//W3C//DTD SVG 1.1//EN" "http://www.w3.org/Graphics/SVG/1.1/DTD/svg11.dtd">
<svg version="1.1" id="Layer_1" xmlns="http://www.w3.org/2000/svg" xmlns:xlink="http://www.w3.org/1999/xlink" x="0px" y="0px"
	 width="144px" height="144px" viewBox="-1.5 -2.014 144 144" enable-background="new -1.5 -2.014 144 144" xml:space="preserve">
<path fill="#37B5CD" d="M97.677,68.678c0,3.241-2.307,6.055-5.486,6.692c-0.016,0.003-0.033,0.005-0.049,0.005
	c-0.057,0-0.113-0.02-0.158-0.057c-0.059-0.048-0.092-0.118-0.092-0.193V62.229c0-0.075,0.033-0.146,0.092-0.193
	c0.045-0.037,0.102-0.057,0.158-0.057c0.016,0,0.033,0.002,0.049,0.005C95.37,62.622,97.677,65.437,97.677,68.678z M88.595,46.87
	c-0.041,0-0.127,0.025-0.164,0.044c-10.608,5.929-22.124,9.494-34.23,10.6c-0.128,0.012-0.227,0.12-0.227,0.249v21.833
	c0,0.127,0.099,0.236,0.227,0.248c12.105,1.104,23.62,4.668,34.227,10.596c0.037,0.021,0.125,0.047,0.168,0.047
	s0.133-0.025,0.17-0.047c0.109-0.066,0.164-0.16,0.164-0.285V47.2c0-0.088-0.084-0.236-0.16-0.281
	C88.712,46.885,88.653,46.87,88.595,46.87z M51.18,82.616h-8.177c-0.082,0-0.158,0.041-0.205,0.105
	c-0.047,0.066-0.058,0.152-0.03,0.229l7.453,20.555c0.036,0.1,0.176,0.195,0.281,0.195h8.076c0.083,0,0.2-0.063,0.247-0.131
	c0.047-0.068,0.062-0.199,0.032-0.277l-7.441-20.51C51.379,82.683,51.285,82.616,51.18,82.616z M142.5,70.282
	c0,39.763-32.236,72-72,72c-39.764,0-72-32.236-72-72c0-39.766,32.236-72,72-72C110.264-1.719,142.5,30.516,142.5,70.282z
	 M104.015,57.819c0.586,0.586,1.535,0.586,2.121,0l4.949-4.949c0.586-0.586,0.586-1.535,0-2.121s-1.535-0.586-2.121,0l-4.949,4.949
	C103.429,56.284,103.429,57.233,104.015,57.819z M100.64,68.678c0-4.904-3.668-9.076-8.531-9.705
	c-0.123-0.016-0.217-0.122-0.217-0.248V47.2c0-1.18-0.607-2.24-1.625-2.836c-0.512-0.3-1.088-0.457-1.67-0.457
	c-0.559,0-1.117,0.146-1.617,0.426c-10.674,5.965-22.287,9.449-34.516,10.355c-0.094,0.007-8.542,0.044-11.13,0.057
	c-2.615,0-4.817,1.955-5.123,4.549c-0.015,0.125-0.121,0.22-0.248,0.22h-2.262c-2.338,0-4.24,1.9-4.24,4.237v9.859
	c0,2.336,1.902,4.237,4.24,4.237h2.262c0.127,0,0.233,0.094,0.248,0.221c0.212,1.799,1.378,3.373,3.042,4.109
	c0.063,0.029,0.111,0.08,0.134,0.145l8.048,22.193c0.467,1.283,1.699,2.146,3.066,2.146h8.076c1.063,0,2.062-0.52,2.672-1.391
	c0.609-0.869,0.757-1.984,0.394-2.984l-6.915-19.059c-0.029-0.082-0.015-0.17,0.038-0.24c0.048-0.061,0.121-0.094,0.197-0.094
	c0.008,0,0.017,0,0.026,0c11.299,1.174,22.062,4.58,31.99,10.129c0.5,0.279,1.059,0.426,1.617,0.426c0.582,0,1.158-0.158,1.67-0.457
	c1.018-0.596,1.625-1.658,1.625-2.838V78.628c0-0.125,0.094-0.23,0.217-0.246C96.972,77.751,100.64,73.581,100.64,68.678z
	 M111.085,85.698l-4.949-4.949c-0.586-0.586-1.535-0.586-2.121,0s-0.586,1.535,0,2.121l4.949,4.949c0.586,0.586,1.535,0.586,2.121,0
	S111.671,86.284,111.085,85.698z M121.55,69.284c0-0.828-0.672-1.5-1.5-1.5h-13c-0.828,0-1.5,0.672-1.5,1.5s0.672,1.5,1.5,1.5h13
	C120.878,70.784,121.55,70.112,121.55,69.284z M50.937,79.583c0.047-0.049,0.073-0.111,0.073-0.178v-21.45
	c0-0.139-0.112-0.25-0.25-0.25h-9.427c-1.211,0-2.197,0.983-2.197,2.194v17.559c0,0.862,0.511,1.649,1.301,2.005
	c0.276,0.117,0.373,0.141,0.744,0.184c0.023,0.002,0.061,0.004,9.579,0.008C50.827,79.655,50.89,79.628,50.937,79.583z
	 M35.923,62.474h-2.223c-0.704,0-1.277,0.572-1.277,1.276v9.859c0,0.704,0.573,1.275,1.277,1.275h2.223
	c0.138,0,0.25-0.112,0.25-0.25V62.724C36.173,62.586,36.062,62.474,35.923,62.474z"/>
</svg>
