<?xml version="1.0" encoding="utf-8"?>
<!-- Generator: Adobe Illustrator 16.0.0, SVG Export Plug-In . SVG Version: 6.00 Build 0)  -->
<!DOCTYPE svg PUBLIC "-//W3C//DTD SVG 1.1//EN" "http://www.w3.org/Graphics/SVG/1.1/DTD/svg11.dtd">
<svg version="1.1" id="Layer_1" xmlns="http://www.w3.org/2000/svg" xmlns:xlink="http://www.w3.org/1999/xlink" x="0px" y="0px"
	 width="144px" height="144px" viewBox="0 0 144 144" enable-background="new 0 0 144 144" xml:space="preserve">
<path fill="#4AC3CA" d="M72,144c-39.764,0-72-32.236-72-72C0,32.234,32.236,0,72,0c39.764,0,72,32.235,72,72
	C144,111.764,111.764,144,72,144z M118.423,83.561c-1.797-2.642-5.414-3.342-8.062-1.56l-12.051,8.063l-0.035-25.104l4.188,3.922
	c0.891,0.834,2.051,1.293,3.27,1.293c0.004,0,0.007,0,0.009,0c1.315-0.002,2.586-0.554,3.485-1.514
	c0.873-0.933,1.332-2.15,1.289-3.428c-0.041-1.278-0.578-2.462-1.511-3.335l-7.938-7.437c-0.543-0.509-1.396-0.48-1.903,0.063
	c-0.511,0.543-0.481,1.396,0.063,1.904l7.938,7.438c0.406,0.381,0.643,0.896,0.66,1.456c0.018,0.558-0.184,1.089-0.563,1.495
	c-0.396,0.426-0.938,0.66-1.521,0.661c-0.002,0-0.004,0-0.004,0c-0.531,0-1.039-0.2-1.428-0.564l0,0L72.788,37.391
	c-0.52-0.486-1.328-0.486-1.846,0.002L39.505,67.006c-0.406,0.383-0.937,0.583-1.494,0.567c-0.558-0.017-1.076-0.249-1.458-0.655
	c-0.382-0.406-0.584-0.938-0.567-1.494c0.017-0.559,0.25-1.076,0.656-1.459L70.427,32.14c0.801-0.755,2.057-0.757,2.86-0.005
	l19.768,18.517c0.543,0.51,1.396,0.48,1.903-0.063c0.51-0.543,0.479-1.396-0.063-1.904L75.13,30.168
	c-1.84-1.723-4.717-1.719-6.552,0.01L57.762,40.366l-0.003-1.817c-0.001-0.573-0.225-1.111-0.63-1.516
	c-0.405-0.403-0.942-0.626-1.514-0.626c-0.001,0-0.002,0-0.003,0l-7.736,0.012c-0.573,0-1.111,0.225-1.516,0.63
	c-0.405,0.405-0.626,0.944-0.626,1.517l0.021,13.111L34.793,62.004c-0.93,0.876-1.463,2.063-1.501,3.34
	c-0.038,1.277,0.423,2.493,1.3,3.423c0.876,0.93,2.062,1.464,3.339,1.501c0.049,0.002,0.098,0.002,0.147,0.002
	c1.224,0,2.382-0.459,3.276-1.301l4.177-3.936l0.017,11.854c-1.351-0.194-2.719-0.299-4.092-0.299H39.15V75.78
	c0-2.712-2.208-4.921-4.921-4.921h-4.313c-2.713,0-4.921,2.208-4.921,4.918V96.9c0,0.744,0.604,1.351,1.348,1.351
	c0.744,0,1.348-0.604,1.348-1.351V75.78c0-1.228,0.998-2.226,2.225-2.226h4.313c1.227,0,2.225,0.999,2.225,2.226v2.155v27.629v2.136
	c0,1.227-0.998,2.225-2.225,2.225h-4.313c-1.227,0-2.225-0.998-2.225-2.225v-2.359c0-0.744-0.604-1.348-1.348-1.348
	c-0.745,0-1.348,0.604-1.348,1.348v2.359c0,2.713,2.208,4.92,4.921,4.92h4.313c2.713,0,4.92-2.207,4.92-4.92v-0.185l19.74,7.477
	c0.036,0.014,0.073,0.025,0.111,0.035c0.858,0.242,1.716,0.365,2.563,0.365c0.458,0,0.913-0.037,1.364-0.107l29.009-4.184
	c0.006,0,0.015-0.002,0.021-0.002c2.467-0.395,4.793-1.438,6.729-3.016c0.018-0.014,0.032-0.027,0.049-0.043l18.742-16.854
	C119.657,89.251,120.064,85.973,118.423,83.561z M96.955,106.018c-1.561,1.267-3.434,2.104-5.415,2.42l-28.997,4.183
	c-0.006,0-0.012,0.002-0.018,0.002l-0.02,0.004c-0.878,0.14-1.793,0.08-2.719-0.176l-20.638-7.813V79.285h2.307
	c1.963,0,3.913,0.227,5.812,0.668c0.071,0.016,0.141,0.031,0.211,0.049c0.233,0.057,0.466,0.115,0.698,0.178
	c0.021,0.006,0.041,0.012,0.061,0.019c0.232,0.063,0.463,0.131,0.694,0.198c0.042,0.015,0.083,0.025,0.124,0.039
	c0.245,0.075,0.49,0.155,0.733,0.237c0.025,0.011,0.05,0.019,0.075,0.025c0.506,0.176,1.007,0.364,1.501,0.571
	c0.027,0.013,0.054,0.021,0.081,0.033c0.247,0.104,0.492,0.211,0.735,0.322c0.006,0.004,0.013,0.006,0.021,0.01
	c0.235,0.107,0.469,0.221,0.701,0.336c0.027,0.014,0.055,0.025,0.082,0.039c0.227,0.113,0.452,0.232,0.676,0.353
	c0.042,0.022,0.084,0.047,0.126,0.067c0.226,0.123,0.45,0.25,0.672,0.379c3.208,1.877,6.699,3.092,10.378,3.613
	c0.011,0,0.023,0.002,0.035,0.004l15.104,1.738c0.082,0.012,0.166,0.025,0.248,0.041c2.225,0.418,3.979,2.061,4.565,4.199
	c0.087,0.315,0.147,0.646,0.182,0.979l0.062,0.604l-28.304-2.479c-0.741-0.063-1.395,0.484-1.46,1.226
	c-0.065,0.742,0.484,1.396,1.225,1.461l29.924,2.621c0.008,0.002,0.016,0,0.021,0.002c0.006,0,0.014,0,0.021,0.002l5.644,0.315
	c0.025,0.002,0.051,0.002,0.075,0.002c0.027,0,0.054-0.004,0.08-0.006c0.029-0.002,0.06-0.004,0.091-0.008
	c0.039-0.004,0.078-0.015,0.118-0.021c0.028-0.007,0.058-0.013,0.084-0.021c0.043-0.015,0.085-0.029,0.127-0.045
	c0.022-0.011,0.046-0.019,0.067-0.027c0.063-0.028,0.123-0.063,0.183-0.102l4.79-3.205l0,0l14.147-9.47
	c1.424-0.957,3.364-0.579,4.329,0.837c0.884,1.297,0.664,3.061-0.516,4.104L96.955,106.018z M66.824,83.938l-1.062-0.123
	L65.741,68.34l12.333-0.018l0.023,16.912L66.824,83.938z M87.759,94.191l-0.104-1.071c-0.377-3.779-3.168-6.82-6.858-7.547
	l-0.022-17.512c-0.002-1.344-1.098-2.437-2.439-2.437c-0.001,0-0.002,0-0.003,0l-12.847,0.019c-0.652,0-1.264,0.255-1.724,0.717
	c-0.46,0.461-0.713,1.074-0.712,1.727l0.021,15.267c-2.545-0.58-4.976-1.541-7.247-2.871c-0.284-0.164-0.57-0.326-0.858-0.48
	c-0.112-0.061-0.227-0.117-0.34-0.176c-0.176-0.094-0.351-0.186-0.528-0.271c-0.141-0.07-0.284-0.137-0.426-0.205
	c-0.151-0.072-0.302-0.145-0.454-0.213c-0.155-0.07-0.312-0.139-0.467-0.205c-0.143-0.063-0.285-0.123-0.429-0.184
	c-0.161-0.064-0.322-0.129-0.483-0.193c-0.143-0.055-0.287-0.111-0.431-0.164c-0.16-0.061-0.321-0.117-0.481-0.176
	c-0.151-0.053-0.302-0.104-0.455-0.154c-0.154-0.053-0.309-0.102-0.464-0.149c-0.166-0.054-0.332-0.104-0.498-0.15
	c-0.144-0.043-0.287-0.084-0.429-0.125c-0.188-0.053-0.376-0.102-0.565-0.147c-0.088-0.021-0.176-0.049-0.265-0.07L48.227,62.5
	l23.645-22.273l23.704,22.205l0.041,29.437L91.8,94.421L87.759,94.191z M55.071,42.901l-6.625,6.239L48.43,39.112l6.635-0.009
	L55.071,42.901z"/>
</svg>
