<?xml version="1.0" encoding="utf-8"?>
<!-- Generator: Adobe Illustrator 16.0.0, SVG Export Plug-In . SVG Version: 6.00 Build 0)  -->
<!DOCTYPE svg PUBLIC "-//W3C//DTD SVG 1.1//EN" "http://www.w3.org/Graphics/SVG/1.1/DTD/svg11.dtd">
<svg version="1.1" id="Layer_1" xmlns="http://www.w3.org/2000/svg" xmlns:xlink="http://www.w3.org/1999/xlink" x="0px" y="0px"
	 width="108px" height="105px" viewBox="0 0 108 105" enable-background="new 0 0 108 105" xml:space="preserve">
<linearGradient id="SVGID_1_" gradientUnits="userSpaceOnUse" x1="-482.9209" y1="455.498" x2="-395.0771" y2="455.498" gradientTransform="matrix(1 0 0 -1 494 510)">
	<stop  offset="0" style="stop-color:#4CC3CA"/>
	<stop  offset="1" style="stop-color:#1AA0D3"/>
</linearGradient>
<path fill="url(#SVGID_1_)" d="M84.644,75.067c0.453,0.629,0.313,1.511-0.313,1.966c-1.661,1.202-3.625,1.837-5.678,1.837
	c-5.343,0-9.688-4.346-9.688-9.688c0-1.077,0.176-2.138,0.522-3.151c0.197-0.569,0.732-0.951,1.334-0.951
	c0.156,0,0.313,0.025,0.459,0.078c0.73,0.251,1.123,1.054,0.873,1.788c-0.248,0.718-0.373,1.471-0.373,2.236
	c0,3.789,3.082,6.871,6.871,6.871c1.457,0,2.85-0.45,4.024-1.302c0.241-0.175,0.526-0.268,0.825-0.268
	C83.952,74.484,84.379,74.702,84.644,75.067z M78.651,59.496c-2.541,0-4.941,0.977-6.763,2.75c-0.554,0.542-0.565,1.436-0.022,1.993
	c0.269,0.272,0.625,0.424,1.008,0.424c0.369,0,0.719-0.143,0.984-0.399c1.287-1.258,2.99-1.951,4.793-1.951
	c3.788,0,6.87,3.082,6.87,6.871c0,1.104-0.254,2.155-0.754,3.13c-0.353,0.691-0.077,1.541,0.611,1.896
	c0.196,0.103,0.42,0.156,0.643,0.156c0.53,0,1.011-0.293,1.255-0.768c0.694-1.354,1.063-2.88,1.063-4.415
	C88.338,63.842,83.991,59.496,78.651,59.496z M98.923,68.018v2.333c0,1.484-1.055,2.772-2.51,3.063l-3.457,0.69
	c-0.03,0.088-0.074,0.168-0.105,0.256c-0.17,0.468-0.35,0.93-0.558,1.361c-0.005,0.012-0.015,0.02-0.021,0.028
	c-0.011,0.021-0.018,0.047-0.027,0.069l1.955,2.935c0.344,0.511,0.522,1.109,0.522,1.728c0,0.838-0.324,1.623-0.913,2.211
	l-1.648,1.65c-1.049,1.049-2.707,1.213-3.939,0.391l-2.936-1.955c-0.041,0.021-0.084,0.037-0.125,0.058
	c-0.01,0.004-0.019,0.012-0.027,0.016c-0.033,0.017-0.066,0.025-0.102,0.041c-0.479,0.224-0.965,0.427-1.461,0.597l-0.69,3.456
	c-0.026,0.133-0.069,0.256-0.112,0.381c-0.016,0.05-0.023,0.101-0.042,0.146c-0.005,0.015-0.013,0.022-0.018,0.037
	c-0.472,1.156-1.606,1.946-2.892,1.946h-2.332c-1.484,0-2.772-1.055-3.063-2.51l-0.691-3.456c-0.024-0.009-0.047-0.021-0.069-0.029
	c-0.535-0.187-1.057-0.396-1.547-0.633c-0.014-0.006-0.021-0.017-0.035-0.021c-0.021-0.01-0.041-0.018-0.063-0.027l-2.936,1.957
	c-0.512,0.342-1.11,0.521-1.729,0.521c-0.838,0-1.622-0.324-2.21-0.912l-1.648-1.65c-1.049-1.049-1.215-2.704-0.393-3.939
	l1.956-2.935c-0.017-0.031-0.024-0.065-0.04-0.098c-0.011-0.02-0.023-0.035-0.033-0.055c-0.242-0.512-0.455-1.036-0.637-1.563
	l-3.456-0.69c-1.455-0.29-2.511-1.578-2.511-3.063V70.35v-2.332v-0.001c0-1.483,1.056-2.771,2.511-3.063l3.456-0.691
	c0.202-0.586,0.439-1.161,0.711-1.713l-1.957-2.936c-0.095-0.144-0.175-0.294-0.244-0.449c-0.021-0.048-0.037-0.097-0.056-0.146
	c-0.042-0.105-0.08-0.215-0.11-0.324c-0.017-0.063-0.027-0.123-0.041-0.187c-0.021-0.101-0.035-0.201-0.047-0.304
	c-0.007-0.067-0.012-0.134-0.015-0.201c-0.002-0.04-0.009-0.079-0.009-0.119c0-0.044,0.011-0.085,0.013-0.129
	c0.005-0.118,0.017-0.235,0.034-0.354c0.012-0.079,0.025-0.156,0.043-0.234c0.025-0.107,0.06-0.212,0.096-0.317
	c0.027-0.075,0.053-0.152,0.084-0.229c0.049-0.11,0.11-0.216,0.172-0.321c0.035-0.059,0.063-0.12,0.102-0.176
	c0.108-0.159,0.23-0.313,0.371-0.451l1.648-1.648c0.02-0.02,0.042-0.032,0.063-0.051c0.121-0.114,0.246-0.222,0.382-0.313
	c0.073-0.05,0.151-0.088,0.229-0.132c0.089-0.051,0.175-0.102,0.267-0.143c0.088-0.039,0.179-0.067,0.271-0.099
	c0.091-0.03,0.179-0.061,0.271-0.082c0.091-0.021,0.182-0.037,0.272-0.051c0.104-0.016,0.206-0.025,0.31-0.03
	c0.052-0.002,0.101-0.015,0.15-0.015c0.047,0,0.094,0.008,0.139,0.01c0.056,0.002,0.108,0.007,0.164,0.012
	c0.114,0.011,0.229,0.029,0.34,0.053c0.054,0.012,0.105,0.021,0.158,0.035c0.119,0.031,0.232,0.071,0.347,0.116
	c0.044,0.018,0.089,0.032,0.133,0.051c0.155,0.07,0.308,0.15,0.45,0.246l2.934,1.956c0.553-0.271,1.127-0.509,1.715-0.711
	l0.691-3.457c0.29-1.455,1.578-2.51,3.063-2.51h2.334c1.299,0,2.447,0.809,2.907,1.984c0.066,0.168,0.118,0.345,0.154,0.526
	l0.69,3.456c0.588,0.201,1.162,0.439,1.715,0.71l2.935-1.956c0.146-0.097,0.299-0.178,0.456-0.249
	c0.036-0.016,0.073-0.027,0.109-0.042c0.121-0.049,0.242-0.091,0.369-0.124c0.049-0.013,0.097-0.021,0.146-0.033
	c0.114-0.023,0.229-0.042,0.347-0.054c0.057-0.005,0.109-0.01,0.165-0.012c0.046-0.002,0.091-0.011,0.136-0.011
	c0.051,0,0.098,0.013,0.146,0.015c0.107,0.005,0.215,0.015,0.321,0.031c0.087,0.013,0.173,0.027,0.259,0.048
	c0.1,0.022,0.195,0.055,0.292,0.088c0.084,0.029,0.168,0.055,0.249,0.091c0.104,0.045,0.2,0.103,0.299,0.159
	c0.064,0.038,0.135,0.071,0.197,0.114c0.154,0.104,0.302,0.225,0.438,0.359c0.004,0.002,0.006,0.004,0.01,0.007l1.649,1.648
	c0.14,0.141,0.263,0.293,0.37,0.452c0.04,0.059,0.068,0.122,0.104,0.184c0.061,0.103,0.119,0.203,0.166,0.312
	c0.037,0.08,0.063,0.164,0.092,0.247c0.033,0.097,0.063,0.192,0.088,0.293c0.021,0.086,0.035,0.173,0.049,0.261
	c0.016,0.104,0.025,0.211,0.03,0.318c0.003,0.05,0.015,0.098,0.015,0.146c0,0.046-0.008,0.092-0.01,0.138
	c-0.003,0.056-0.008,0.107-0.012,0.162c-0.013,0.117-0.03,0.233-0.055,0.35c-0.011,0.049-0.021,0.097-0.033,0.146
	c-0.033,0.127-0.074,0.249-0.123,0.37c-0.016,0.036-0.025,0.072-0.041,0.107c-0.071,0.157-0.151,0.313-0.25,0.458l-1.955,2.933
	c0.269,0.553,0.505,1.122,0.703,1.698c0.002,0.006,0.006,0.011,0.008,0.017l3.455,0.691c0.322,0.063,0.619,0.185,0.895,0.337
	C98.278,65.83,98.923,66.86,98.923,68.018z M91.907,80.485c0-0.063-0.018-0.121-0.052-0.173l-2.419-3.628
	c-0.154-0.23-0.234-0.501-0.234-0.779c0-0.242,0.063-0.48,0.183-0.691c0.198-0.354,0.368-0.722,0.53-1.094
	c0.058-0.129,0.113-0.257,0.166-0.388c0.149-0.379,0.287-0.762,0.397-1.152c0.009-0.024,0.019-0.049,0.024-0.073
	c0.145-0.513,0.558-0.896,1.08-1l4.277-0.854c0.07-0.016,0.133-0.055,0.176-0.106c0.013-0.015,0.011-0.037,0.021-0.054
	c0.022-0.044,0.05-0.088,0.05-0.142v-2.332c0-0.146-0.104-0.271-0.246-0.301l-4.275-0.854c-0.393-0.078-0.723-0.313-0.924-0.644
	c-0.068-0.109-0.121-0.229-0.157-0.358c-0.083-0.299-0.197-0.586-0.304-0.877c-0.062-0.17-0.106-0.345-0.176-0.51
	c-0.019-0.044-0.044-0.084-0.063-0.127c-0.174-0.406-0.363-0.808-0.58-1.191c-0.061-0.109-0.105-0.228-0.137-0.348
	c-0.018-0.065-0.02-0.134-0.025-0.201c-0.005-0.049-0.02-0.096-0.02-0.145c0-0.006,0.002-0.011,0.004-0.017
	c0-0.116,0.021-0.23,0.051-0.344c0.004-0.018,0.004-0.035,0.009-0.054c0.04-0.129,0.097-0.253,0.175-0.369l2.416-3.627
	c0.038-0.056,0.049-0.121,0.047-0.185c-0.004-0.068-0.029-0.128-0.072-0.181c-0.006-0.007-0.006-0.017-0.012-0.022l-0.824-0.825
	l-0.823-0.823c-0.005-0.005-0.013-0.003-0.017-0.008c-0.052-0.045-0.115-0.072-0.187-0.076c-0.063-0.003-0.128,0.01-0.185,0.046
	l-3.629,2.421c-0.117,0.075-0.24,0.133-0.369,0.172c-0.021,0.007-0.045,0.006-0.066,0.012c-0.107,0.027-0.217,0.047-0.328,0.048
	c-0.006,0-0.012,0.003-0.02,0.003c-0.053,0-0.104-0.015-0.157-0.021c-0.063-0.008-0.126-0.01-0.188-0.024
	c-0.072-0.019-0.139-0.052-0.207-0.081c-0.045-0.02-0.093-0.029-0.137-0.054c-0.423-0.239-0.861-0.453-1.313-0.641
	c-0.002-0.001-0.002-0.001-0.002-0.002c-0.453-0.187-0.918-0.348-1.393-0.479c-0.128-0.036-0.248-0.09-0.357-0.157
	c-0.203-0.124-0.366-0.302-0.482-0.509c-0.009-0.017-0.021-0.028-0.031-0.045c-0.021-0.039-0.027-0.084-0.044-0.125
	c-0.03-0.079-0.067-0.156-0.085-0.242l-0.32-1.604l-0.535-2.674c-0.015-0.07-0.054-0.133-0.105-0.177
	c-0.055-0.043-0.121-0.069-0.193-0.069h-2.332c-0.146,0-0.271,0.104-0.302,0.246l-0.854,4.276c-0.104,0.522-0.487,0.936-1.002,1.08
	c-0.947,0.266-1.857,0.644-2.705,1.122c-0.059,0.032-0.12,0.047-0.182,0.071c-0.054,0.021-0.104,0.049-0.16,0.063
	c-0.076,0.021-0.151,0.023-0.229,0.03c-0.041,0.003-0.082,0.016-0.124,0.016c-0.005,0-0.01-0.002-0.015-0.002
	c-0.117-0.002-0.232-0.021-0.346-0.052c-0.019-0.004-0.037-0.004-0.054-0.009c-0.128-0.04-0.252-0.098-0.367-0.175l-3.627-2.417
	c-0.057-0.036-0.122-0.05-0.186-0.047c-0.063,0.004-0.117,0.031-0.166,0.068c-0.011,0.008-0.024,0.006-0.034,0.016l-1.652,1.649
	c-0.053,0.054-0.078,0.127-0.082,0.204c-0.003,0.062,0.008,0.125,0.045,0.18v0.001l2.42,3.63c0.076,0.115,0.131,0.238,0.17,0.365
	c0.014,0.039,0.014,0.081,0.021,0.12c0.02,0.09,0.038,0.179,0.04,0.271c0,0.01,0.004,0.019,0.004,0.026
	c0,0.076-0.017,0.149-0.028,0.225c-0.006,0.038-0.006,0.076-0.016,0.113c-0.029,0.123-0.074,0.241-0.137,0.354
	c-0.479,0.849-0.856,1.76-1.122,2.707c-0.144,0.514-0.56,0.896-1.081,1.001l-4.275,0.854c-0.143,0.029-0.246,0.155-0.246,0.301
	v2.333c0,0.072,0.026,0.141,0.069,0.192c0.044,0.053,0.104,0.092,0.177,0.106l4.275,0.854c0.393,0.078,0.723,0.313,0.925,0.644
	c0.067,0.11,0.12,0.23,0.156,0.358c0.003,0.011,0.008,0.021,0.011,0.031c0.116,0.412,0.26,0.814,0.418,1.211
	c0.044,0.108,0.092,0.218,0.139,0.327c0.168,0.387,0.348,0.77,0.555,1.136c0.262,0.466,0.24,1.03-0.057,1.474l-2.418,3.627
	c-0.08,0.121-0.064,0.283,0.037,0.386l1.649,1.651c0.058,0.058,0.136,0.09,0.219,0.09c0.062,0,0.117-0.018,0.169-0.053l3.629-2.418
	c0.233-0.154,0.504-0.236,0.78-0.236c0.24,0,0.479,0.063,0.69,0.181c0.365,0.207,0.748,0.385,1.135,0.553
	c0.105,0.045,0.21,0.092,0.316,0.135c0.41,0.166,0.828,0.314,1.256,0.437c0.3,0.084,0.545,0.268,0.728,0.504
	c0.13,0.168,0.229,0.358,0.272,0.575l0.855,4.275c0.029,0.143,0.155,0.246,0.301,0.246h2.334c0.146,0,0.271-0.104,0.301-0.246
	l0.854-4.275c0.026-0.131,0.069-0.254,0.128-0.369c0.176-0.344,0.487-0.604,0.872-0.71c0.022-0.006,0.044-0.017,0.065-0.021
	c0.394-0.112,0.779-0.25,1.16-0.399c0.121-0.049,0.239-0.103,0.358-0.152c0.382-0.166,0.761-0.342,1.124-0.547
	c0.464-0.262,1.027-0.24,1.473,0.057l3.627,2.416c0.121,0.082,0.283,0.066,0.388-0.037l1.649-1.647
	C91.876,80.645,91.907,80.567,91.907,80.485z M95.079,50.978V38.549v-3v-13v-3h-3h-24h-3h-24h-3h-24h-3v3v13v3v13v3v12v3v13v3h3h24
	h3h20.43l-2.571-3H41.079v-13h13v-3h-13v-12h18.834l2.5-3H41.079v-13h24v11c0.865,0,2.105,0,3,0v-11h24v9.857L95.079,50.978z
	 M38.079,35.549h-24v-13h24V35.549z M38.079,51.549h-24v-13h24V51.549z M38.079,66.549h-24v-12h24V66.549z M38.079,82.549h-24v-13
	h24V82.549z M65.079,35.549h-24v-13h24V35.549z M92.079,35.549h-24v-13h24V35.549z M48.079,27.549h10v-3h-10V27.549z M43.079,27.549
	h3v-3h-3V27.549z M75.079,27.549h10v-3h-10V27.549z M70.079,27.549h3v-3h-3V27.549z M21.079,27.549h10v-3h-10V27.549z
	 M16.079,27.549h3v-3h-3V27.549z M16.079,30.549h3v-3h-3V30.549z"/>
</svg>
