<?xml version="1.0" encoding="utf-8"?>
<!-- Generator: Adobe Illustrator 16.0.0, SVG Export Plug-In . SVG Version: 6.00 Build 0)  -->
<!DOCTYPE svg PUBLIC "-//W3C//DTD SVG 1.1//EN" "http://www.w3.org/Graphics/SVG/1.1/DTD/svg11.dtd">
<svg version="1.1" id="Layer_1" xmlns="http://www.w3.org/2000/svg" xmlns:xlink="http://www.w3.org/1999/xlink" x="0px" y="0px"
	 width="108px" height="105px" viewBox="0 0 108 105" enable-background="new 0 0 108 105" xml:space="preserve">
<linearGradient id="SVGID_1_" gradientUnits="userSpaceOnUse" x1="-966.8462" y1="777.5801" x2="-901.1547" y2="704.6224" gradientTransform="matrix(1 0 0 1 988 -688.6016)">
	<stop  offset="0" style="stop-color:#4CC3CA"/>
	<stop  offset="1" style="stop-color:#1AA0D3"/>
</linearGradient>
<path fill="url(#SVGID_1_)" d="M94,60.502h-3.199v-3.201H94V60.502z M90.801,44.501H94V47.7h-3.199V44.501z M94,54.1h-3.199v-3.198
	H94V54.1z M14,44.501h3.201V47.7H14V44.501z M17.201,60.502H14v-3.201h3.201V60.502z M14,50.901h3.201V54.1H14V50.901z
	 M95.412,37.829c-3.289,1.899-7.367,1.194-9.851-1.473l-11.327,6.54c1.387,2.911,2.166,6.166,2.166,9.604
	c0,3.437-0.779,6.692-2.166,9.603l11.327,6.539c2.482-2.668,6.562-3.371,9.851-1.473c3.826,2.209,5.139,7.102,2.93,10.928
	c-2.211,3.826-7.104,5.141-10.93,2.93c-3.289-1.898-4.719-5.781-3.648-9.268l-11.33-6.539c-3.721,5.381-9.736,9.053-16.633,9.602
	v13.084C59.352,88.723,62,91.9,62,95.699c0,4.42-3.582,8-8,8s-8-3.58-8-8c0-3.799,2.648-6.977,6.201-7.793V74.823
	c-6.898-0.549-12.912-4.222-16.635-9.603l-11.328,6.541c1.068,3.483-0.358,7.367-3.649,9.268c-3.826,2.211-8.72,0.896-10.929-2.93
	c-2.209-3.825-0.897-8.719,2.929-10.928c3.291-1.897,7.366-1.195,9.851,1.473l11.327-6.538c-1.385-2.912-2.165-6.166-2.165-9.604
	c0-3.439,0.78-6.693,2.165-9.604l-11.327-6.54c-2.482,2.667-6.56,3.372-9.851,1.474c-3.826-2.211-5.138-7.104-2.929-10.93
	c2.209-3.826,7.103-5.138,10.929-2.928c3.291,1.899,4.717,5.782,3.649,9.267l11.328,6.54c3.721-5.379,9.736-9.052,16.633-9.601
	V17.095C48.647,16.278,46,13.1,46,9.301c0-4.418,3.582-8,8-8s8,3.582,8,8c0,3.799-2.65,6.977-6.201,7.794v13.084
	c6.896,0.549,12.912,4.221,16.635,9.601l11.328-6.541c-1.068-3.483,0.359-7.366,3.65-9.267c3.824-2.209,8.719-0.898,10.928,2.928
	C100.551,30.727,99.238,35.62,95.412,37.829z M88.912,78.43c2.297,1.326,5.254,0.5,6.606-1.844c0.027-0.05,0.076-0.131,0.101-0.172
	c1.354-2.345,0.59-5.318-1.707-6.646c-2.295-1.323-5.254-0.5-6.605,1.845c-0.018,0.028-0.031,0.062-0.047,0.09l0,0
	c-0.018,0.029-0.037,0.056-0.055,0.084C85.854,74.133,86.617,77.107,88.912,78.43z M20.795,71.789
	c-0.018-0.029-0.037-0.056-0.055-0.085l0,0c-0.017-0.028-0.029-0.062-0.047-0.09c-1.353-2.345-4.312-3.168-6.605-1.845
	c-2.295,1.326-3.061,4.302-1.707,6.646c0.027,0.049,0.076,0.131,0.1,0.172c1.354,2.344,4.312,3.17,6.607,1.844
	C21.383,77.107,22.148,74.133,20.795,71.789z M19.088,26.571c-2.295-1.326-5.254-0.5-6.605,1.844
	c-0.029,0.05-0.076,0.132-0.102,0.173c-1.354,2.343-0.588,5.317,1.707,6.644c2.297,1.325,5.254,0.5,6.607-1.844
	c0.022-0.042,0.071-0.124,0.1-0.173C22.148,30.871,21.383,27.896,19.088,26.571z M72.689,56.893
	c-2.514,1.511-6.328,2.687-10.986,3.312c-0.604,4.507-1.725,8.335-3.161,10.953C65.545,69.459,71.045,63.92,72.689,56.893z
	 M49,95.699c0,2.652,2.193,4.803,4.9,4.803c0.057,0,0.151,0,0.199,0c2.706,0,4.898-2.148,4.898-4.803
	c0-2.648-2.192-4.799-4.898-4.799c-0.033,0-0.064,0.004-0.102,0.004c-0.032,0-0.064-0.004-0.1-0.004
	C51.195,90.9,49,93.051,49,95.699z M54,71.7L54,71.7L54,71.7c1.938,0,3.607-4.573,4.365-11.155
	c-1.412,0.104-2.871,0.157-4.365,0.157s-2.953-0.056-4.365-0.157C50.394,67.127,52.063,71.7,54,71.7z M49.461,71.157
	c-1.438-2.618-2.559-6.446-3.162-10.953c-4.66-0.625-8.473-1.801-10.987-3.312C36.957,63.92,42.457,69.459,49.461,71.157z
	 M53.9,57.301c0.029,0,0.063,0,0.101,0c0.036,0,0.069,0,0.101,0c1.852,0,19.249-1.101,19.102-4.799
	c-0.15-3.7-14.25-4.801-19.102-4.801c-0.033,0-0.066,0-0.101,0s-0.067,0-0.101,0c-4.85,0-18.949,1.101-19.1,4.801
	C34.65,56.201,52.051,57.301,53.9,57.301z M35.312,48.109c2.515-1.51,6.327-2.686,10.987-3.311
	c0.604-4.507,1.724-8.334,3.162-10.953C42.457,35.544,36.957,41.083,35.312,48.109z M59,9.301c0-2.651-2.193-4.8-4.899-4.8
	c-0.058,0-0.151,0-0.2,0c-2.705,0-4.899,2.148-4.899,4.8c0,2.65,2.194,4.8,4.899,4.8c0.049,0,0.144,0,0.2,0
	C56.807,14.101,59,11.952,59,9.301z M54,33.501c-1.918,0-3.574,4.48-4.342,10.955c1.404-0.103,2.854-0.155,4.342-0.155
	c1.486,0,2.938,0.054,4.342,0.155C57.572,37.982,55.92,33.501,54,33.501z M58.539,33.845c1.438,2.619,2.559,6.446,3.164,10.953
	c4.658,0.625,8.473,1.8,10.985,3.311C71.045,41.083,65.545,35.544,58.539,33.845z M95.619,28.588
	c-0.027-0.049-0.076-0.131-0.101-0.173c-1.354-2.344-4.313-3.17-6.606-1.844c-2.295,1.325-3.062,4.301-1.707,6.645
	c0.022,0.042,0.07,0.124,0.102,0.173c1.354,2.344,4.311,3.169,6.605,1.844C96.209,33.905,96.973,30.931,95.619,28.588z
	 M89.227,30.315l2.771-1.6l1.6,2.771l-2.77,1.601L89.227,30.315z M52.4,7.701H55.6v3.2H52.4V7.701z M55.6,97.301H52.4V94.1H55.6
	V97.301z M14.402,31.487l1.601-2.771l2.771,1.6l-1.6,2.771L14.402,31.487z M14.402,73.516l2.771-1.602l1.6,2.771l-2.771,1.6
	L14.402,73.516z M93.598,73.516l-1.6,2.771l-2.771-1.601l1.602-2.77L93.598,73.516z M76.557,23.031l1.602-2.771l2.771,1.6
	l-1.6,2.771L76.557,23.031z M71.016,19.833l1.6-2.771l2.771,1.6l-1.602,2.771L71.016,19.833z M65.473,16.631l1.6-2.771l2.771,1.601
	l-1.6,2.771L65.473,16.631z M38.156,15.46l2.771-1.601l1.602,2.771l-2.771,1.6L38.156,15.46z M32.615,18.66l2.771-1.6l1.601,2.771
	l-2.771,1.6L32.615,18.66z M27.072,21.86l2.771-1.6l1.6,2.771l-2.771,1.6L27.072,21.86z M31.443,81.971l-1.6,2.77l-2.771-1.6
	l1.601-2.77L31.443,81.971z M36.986,85.172l-1.602,2.77l-2.771-1.6l1.602-2.77L36.986,85.172z M42.529,88.369l-1.602,2.771
	l-2.771-1.6l1.602-2.771L42.529,88.369z M69.844,89.543l-2.771,1.6l-1.6-2.771l2.771-1.6L69.844,89.543z M75.387,86.344l-2.771,1.6
	l-1.6-2.771l2.771-1.6L75.387,86.344z M80.928,83.141l-2.771,1.6l-1.6-2.77l2.771-1.602L80.928,83.141z"/>
</svg>
