<?xml version="1.0" encoding="utf-8"?>
<!-- Generator: Adobe Illustrator 16.0.0, SVG Export Plug-In . SVG Version: 6.00 Build 0)  -->
<!DOCTYPE svg PUBLIC "-//W3C//DTD SVG 1.1//EN" "http://www.w3.org/Graphics/SVG/1.1/DTD/svg11.dtd">
<svg version="1.1" id="Layer_1" xmlns="http://www.w3.org/2000/svg" xmlns:xlink="http://www.w3.org/1999/xlink" x="0px" y="0px"
	 width="108px" height="105px" viewBox="0 0 108 105" enable-background="new 0 0 108 105" xml:space="preserve">
<linearGradient id="SVGID_1_" gradientUnits="userSpaceOnUse" x1="-979.0225" y1="741.1016" x2="-886.9761" y2="741.1016" gradientTransform="matrix(1 0 0 1 988 -688.6016)">
	<stop  offset="0" style="stop-color:#4CC3CA"/>
	<stop  offset="1" style="stop-color:#1AA0D3"/>
</linearGradient>
<path fill="url(#SVGID_1_)" d="M35.284,29.331h-24.98c-0.732,0-1.326,0.601-1.326,1.338v59.756c0,0.74,0.594,1.339,1.326,1.339
	h24.98c0.729,0,1.324-0.599,1.324-1.339V30.668C36.608,29.931,36.015,29.331,35.284,29.331z M33.958,89.086h-22.33v-57.08h22.33
	V89.086L33.958,89.086z M87.849,31.472c-0.164-0.697-0.918-1.15-1.596-0.994l-18.49,4.455c-0.141,0.034-0.264,0.104-0.381,0.178
	V13.124c0-0.737-0.592-1.336-1.324-1.336H41.075c-0.729,0-1.324,0.599-1.324,1.336v77.301c0,0.74,0.596,1.339,1.324,1.339h24.981
	c0.729,0,1.324-0.599,1.324-1.339V39.078L79.92,92.184c0.082,0.346,0.293,0.641,0.596,0.83c0.207,0.131,0.447,0.199,0.692,0.199
	c0.101,0,0.199-0.014,0.31-0.035l18.488-4.455c0.709-0.172,1.151-0.895,0.981-1.613L87.849,31.472z M64.731,89.086h-22.33V14.461
	h22.33V89.086z M82.192,90.263L69.669,37.222l15.91-3.826L98.1,86.433L82.192,90.263z M22.792,70.011
	c4.727,0,8.563-3.878,8.563-8.646c0-4.77-3.84-8.647-8.563-8.647c-4.721,0-8.563,3.88-8.563,8.647
	C14.229,66.133,18.071,70.011,22.792,70.011z M22.792,55.392c3.266,0,5.916,2.681,5.916,5.976c0,3.296-2.652,5.972-5.916,5.972
	c-3.26,0-5.912-2.676-5.912-5.972C16.88,58.072,19.532,55.392,22.792,55.392z M15.554,87.924h14.48c0.731,0,1.324-0.598,1.324-1.338
	v-5.483c0-0.735-0.593-1.338-1.324-1.338h-14.48c-0.73,0-1.324,0.603-1.324,1.338v5.483C14.229,87.326,14.823,87.924,15.554,87.924z
	 M16.88,82.439h11.83v2.808H16.88V82.439z M15.554,44.613h14.48c0.731,0,1.324-0.6,1.324-1.338v-5.479
	c0-0.737-0.593-1.338-1.324-1.338h-14.48c-0.73,0-1.324,0.601-1.324,1.338v5.479C14.229,44.015,14.823,44.613,15.554,44.613z
	 M16.88,39.133h11.83v2.806H16.88V39.133z M53.567,63.982c4.723,0,8.564-3.881,8.564-8.646c0-4.766-3.842-8.646-8.564-8.646
	c-4.725,0-8.563,3.879-8.563,8.646C45.003,60.103,48.843,63.982,53.567,63.982z M53.567,49.367c3.262,0,5.914,2.679,5.914,5.97
	s-2.652,5.972-5.914,5.972s-5.916-2.681-5.916-5.972S50.304,49.367,53.567,49.367z M46.327,87.924h14.479
	c0.729,0,1.324-0.598,1.324-1.338v-5.483c0-0.735-0.595-1.338-1.324-1.338H46.327c-0.73,0-1.324,0.603-1.324,1.338v5.483
	C45.003,87.326,45.595,87.924,46.327,87.924z M47.651,82.439h11.828v2.808H47.651V82.439z M46.327,25.426h14.479
	c0.729,0,1.324-0.601,1.324-1.338v-5.479c0-0.738-0.595-1.338-1.324-1.338H46.327c-0.73,0-1.324,0.6-1.324,1.338v5.479
	C45.003,24.824,45.595,25.426,46.327,25.426z M47.651,19.945h11.828v2.806H47.651V19.945z M82.487,55.902
	c-1.563,0.379-2.895,1.351-3.735,2.734c-0.849,1.387-1.105,3.021-0.73,4.602c0.65,2.752,3.058,4.679,5.855,4.679
	c0.477,0,0.948-0.058,1.409-0.173c3.23-0.78,5.234-4.064,4.463-7.327c-0.641-2.709-3.118-4.679-5.893-4.679
	C83.396,55.742,82.935,55.795,82.487,55.902z M87.171,61.04c0.211,0.881,0.064,1.795-0.408,2.569
	c-0.475,0.775-1.217,1.322-2.098,1.535c-0.254,0.063-0.519,0.094-0.777,0.094c-1.549,0-2.932-1.104-3.293-2.623
	c-0.211-0.887-0.063-1.805,0.41-2.58c0.477-0.773,1.219-1.319,2.096-1.528c0.256-0.063,0.521-0.092,0.785-0.092
	C85.456,58.415,86.804,59.492,87.171,61.04z M81.921,81.081c-0.186,0.299-0.242,0.668-0.162,1.015l1.264,5.331
	c0.082,0.349,0.289,0.646,0.594,0.832c0.209,0.132,0.447,0.199,0.693,0.199c0.102,0,0.199-0.017,0.313-0.037l10.732-2.597
	c0.711-0.168,1.15-0.889,0.98-1.606l-1.262-5.331c-0.166-0.707-0.9-1.158-1.597-0.99l-10.737,2.583
	C82.397,80.563,82.103,80.775,81.921,81.081z M92.804,80.806l0.648,2.73l-8.162,1.968l-0.646-2.729L92.804,80.806z M83.532,36.297
	l-10.735,2.586c-0.351,0.084-0.64,0.298-0.818,0.601c-0.184,0.299-0.245,0.668-0.161,1.015l1.26,5.334
	c0.143,0.604,0.674,1.026,1.287,1.026c0.106,0,0.215-0.012,0.311-0.037l10.736-2.588c0.711-0.172,1.149-0.894,0.979-1.61
	l-1.26-5.332C84.962,36.584,84.235,36.136,83.532,36.297z M75.341,43.906l-0.646-2.729l8.162-1.963l0.646,2.729L75.341,43.906z"/>
</svg>
