<?xml version="1.0" encoding="utf-8"?>
<!-- Generator: Adobe Illustrator 16.0.0, SVG Export Plug-In . SVG Version: 6.00 Build 0)  -->
<!DOCTYPE svg PUBLIC "-//W3C//DTD SVG 1.1//EN" "http://www.w3.org/Graphics/SVG/1.1/DTD/svg11.dtd">
<svg version="1.1" id="Layer_1" xmlns="http://www.w3.org/2000/svg" xmlns:xlink="http://www.w3.org/1999/xlink" x="0px" y="0px"
	 width="108px" height="105px" viewBox="0 0 108 105" enable-background="new 0 0 108 105" xml:space="preserve">
<linearGradient id="SVGID_1_" gradientUnits="userSpaceOnUse" x1="-476.1025" y1="457.501" x2="-403.8994" y2="457.501" gradientTransform="matrix(1 0 0 -1 494 510)">
	<stop  offset="0" style="stop-color:#4CC3CA"/>
	<stop  offset="1" style="stop-color:#1AA0D3"/>
</linearGradient>
<path fill="url(#SVGID_1_)" d="M83.101,99.125v3H69.087V84.113h6.999v-4h14.015v19.013L83.101,99.125L83.101,99.125z M71.276,86.356
	v13.525h9.635V86.356H71.276z M87.909,82.357h-9.633v1.756H83.1v2.011h2.997v3H83.1v2h2.997v3H83.1v2.759h4.81V82.357z
	 M73.098,94.123h6v3h-6V94.123z M73.098,89.123h6v3h-6V89.123z M83.95,77.977h-2.707V75.27h2.707V77.977z M81.243,70.27h2.707v2.707
	h-2.707V70.27z M81.334,67.977h-0.091V65.27h0.091v-0.156h2.772v3.021h-2.772V67.977z M76.211,68.134v-3.021h2.772v3.021H76.211z
	 M78.708,14.355l1.64,1.641L60.719,35.625l-16.871,3.749l3.75-16.87l19.629-19.63l1.64,1.64L51.622,21.756l2.455,0.818l13.141-13.14
	l1.639,1.64L55.655,24.278l0.549,2.74l2.74,0.549L78.709,7.803l1.64,1.64L60.653,29.145l0.812,2.454L78.708,14.355z M46.903,36.318
	l5.554-1.232l-4.318-4.319L46.903,36.318z M58.431,29.831l-4.199-0.839l-0.84-4.199l-3.598-1.2l-0.074,0.074l-0.986,4.417
	l6.406,6.401l4.417-0.981l0.074-0.069L58.431,29.831z M72.136,4.516l1.641-1.641l1.641,1.641l-1.641,1.64L72.136,4.516z
	 M68.854,7.798l1.641-1.64l1.641,1.64l-1.641,1.641L68.854,7.798z M25.087,43.123h12.014v12.012H25.087V43.123z M27.276,52.89h7.635
	v-7.525h-7.635V52.89z M37.101,74.125H25.087V62.114h12.014V74.125z M34.911,64.357h-7.635v7.524h7.635V64.357z M40.598,69.123h12
	c0.829,0,1.5,0.672,1.5,1.5s-0.671,1.5-1.5,1.5h-12c-0.829,0-1.5-0.672-1.5-1.5S39.769,69.123,40.598,69.123z M59.598,66.123h-19
	c-0.829,0-1.5-0.672-1.5-1.5s0.671-1.5,1.5-1.5h19c0.829,0,1.5,0.672,1.5,1.5S60.427,66.123,59.598,66.123z M40.598,48.124
	c-0.829,0-1.5-0.672-1.5-1.5c0-0.828,0.671-1.5,1.5-1.5h12c0.829,0,1.5,0.672,1.5,1.5c0,0.828-0.671,1.5-1.5,1.5H40.598z
	 M61.098,52.624c0,0.828-0.671,1.5-1.5,1.5h-19c-0.829,0-1.5-0.672-1.5-1.5c0-0.828,0.671-1.5,1.5-1.5h19
	C60.427,51.124,61.098,51.795,61.098,52.624z M36.231,13.319v15.04c0,0.72-0.641,1.359-1.361,1.359H20.62v49.839h47.955V32.458
	l2.724-2.662v35.316h2.563v3.021h-2.563v12.704c0,0.72-0.642,1.36-1.361,1.36H19.259c-0.721,0-1.361-0.642-1.361-1.36V28.359
	c0-0.16,0-0.32,0.08-0.48c0-0.08,0.08-0.16,0.16-0.24s0.08-0.159,0.16-0.239l15.611-16.32c0.08-0.08,0.24-0.24,0.399-0.24
	c0.16-0.08,0.32-0.08,0.562-0.08h19.908c-0.931,0.926-1.781,1.796-2.496,2.561H36.231V13.319z M33.589,15.399L22.541,27h11.048
	V15.399z M58.243,84.27h2.709v2.707h-2.709V84.27z M60.952,91.977h-2.709V89.27h2.709V91.977z M60.862,94.27h0.09v2.707h-0.09v0.157
	h-2.774v-3.021h2.774V94.27z M65.985,97.134h-2.774v-3.021h2.774V97.134z"/>
</svg>
