<?xml version="1.0" encoding="utf-8"?>
<!-- Generator: Adobe Illustrator 16.0.0, SVG Export Plug-In . SVG Version: 6.00 Build 0)  -->
<!DOCTYPE svg PUBLIC "-//W3C//DTD SVG 1.1//EN" "http://www.w3.org/Graphics/SVG/1.1/DTD/svg11.dtd">
<svg version="1.1" id="Layer_1" xmlns="http://www.w3.org/2000/svg" xmlns:xlink="http://www.w3.org/1999/xlink" x="0px" y="0px"
	 width="108px" height="105px" viewBox="0 0 108 105" enable-background="new 0 0 108 105" xml:space="preserve">
<linearGradient id="SVGID_1_" gradientUnits="userSpaceOnUse" x1="-986.6294" y1="741.1016" x2="-881.3711" y2="741.1016" gradientTransform="matrix(1 0 0 1 988 -688.6016)">
	<stop  offset="0" style="stop-color:#4CC3CA"/>
	<stop  offset="1" style="stop-color:#1AA0D3"/>
</linearGradient>
<path fill="url(#SVGID_1_)" d="M15.883,76.749v2.905h-2.906v-2.905H15.883z M73.969,4.15h-55.18v60.976h9.713
	c0.074,0.979,0.18,1.948,0.33,2.905H11.418c-0.621,3.648-3.49,6.521-7.141,7.142v6.042c3.649,0.62,6.52,3.491,7.141,7.143h27.74
	c1.028,1.032,2.123,2,3.268,2.905H8.635H1.371v-7.266V72.391v-7.266h7.264h7.248V1.244h60.992v25.839
	c-0.951-0.312-1.922-0.583-2.906-0.817V4.15z M4.277,88.355h4.146c-0.533-2.021-2.109-3.615-4.146-4.146V88.355z M4.277,68.031
	v4.146c2.021-0.531,3.613-2.107,4.146-4.146H4.277z M23.148,8.51h20.324v23.231H23.148V8.51z M26.055,28.834h14.512V11.415H26.055
	V28.834z M26.055,85.467c-3.207,0-5.813-3.26-5.813-7.266c0-4.005,2.604-7.267,5.813-7.267c1.488,0,2.834,0.725,3.863,1.877
	c0.518,1.746,1.162,3.438,1.922,5.065c0.004,0.108,0.027,0.214,0.027,0.322C31.867,82.207,29.262,85.467,26.055,85.467z
	 M26.055,73.825c-1.578,0-2.906,2.002-2.906,4.358s1.328,4.358,2.906,4.358c1.576,0,2.906-1.983,2.906-4.358
	C28.961,75.827,27.631,73.825,26.055,73.825z M24.148,38.988h12.467c-0.754,0.933-1.465,1.902-2.127,2.906h-10.34V38.988z
	 M47.832,20.834h15.777v1.419H47.832V20.834z M69.609,16.569H47.832v-2.906h21.777V16.569L69.609,16.569z M104.381,92.338
	L91.344,79.309c3.102-4.795,4.904-10.502,4.904-16.623c0-16.926-13.775-30.695-30.709-30.695c-16.935,0-30.711,13.769-30.711,30.693
	c0,16.926,13.776,30.695,30.711,30.695c6.123,0,11.834-1.803,16.629-4.9l13.037,13.029c1.227,1.227,2.854,1.898,4.588,1.898
	c1.732,0,3.363-0.674,4.588-1.898C106.91,98.98,106.91,94.867,104.381,92.338z M65.539,90.787
	c-15.504,0-28.115-12.606-28.115-28.104c0-15.496,12.611-28.102,28.115-28.102c15.502,0,28.113,12.605,28.113,28.102
	S81.041,90.787,65.539,90.787z M102.547,99.676c-0.736,0.734-1.713,1.141-2.754,1.141c-1.039,0-2.018-0.404-2.752-1.141
	l-12.725-12.72c2.059-1.595,3.909-3.444,5.506-5.504l12.725,12.72C104.064,95.689,104.064,98.158,102.547,99.676z M31.658,49.013
	h-3.271c-0.717,0-1.299,0.581-1.299,1.297c0,0.717,0.582,1.297,1.299,1.297h3.271c0.717,0,1.297-0.581,1.297-1.297
	C32.955,49.594,32.375,49.013,31.658,49.013z M101.871,51.013h-3.365c-0.717,0-1.297,0.581-1.297,1.297
	c0,0.718,0.58,1.298,1.297,1.298h3.365c0.717,0,1.297-0.582,1.297-1.298S102.588,51.013,101.871,51.013z M100.141,71.764h-1.635
	c-0.717,0-1.297,0.58-1.297,1.297s0.58,1.298,1.297,1.298h1.635c0.717,0,1.299-0.581,1.299-1.298S100.857,71.764,100.141,71.764z
	 M55.158,97.703H33.781c-0.565-1.992-2.401-3.457-4.576-3.457c-2.622,0-4.758,2.133-4.758,4.755s2.136,4.756,4.758,4.756
	c2.175,0,4.011-1.465,4.576-3.459h21.377c0.718,0,1.297-0.58,1.297-1.297C56.455,98.285,55.873,97.703,55.158,97.703z
	 M29.205,101.163c-1.191,0-2.162-0.97-2.162-2.162c0-1.191,0.971-2.161,2.162-2.161c1.192,0,2.162,0.97,2.162,2.161
	C31.367,100.193,30.398,101.163,29.205,101.163z M100.141,21.614c-3.133,0-5.754,2.231-6.357,5.188H86.68
	c-0.717,0-1.297,0.581-1.297,1.298c0,0.716,0.58,1.297,1.297,1.297h7.104c0.605,2.956,3.228,5.188,6.357,5.188
	c3.578,0,6.488-2.909,6.488-6.484C106.629,24.521,103.719,21.614,100.141,21.614z M100.141,31.99c-2.146,0-3.893-1.746-3.893-3.891
	c0-2.146,1.746-3.892,3.893-3.892s3.893,1.745,3.893,3.892C104.033,30.244,102.287,31.99,100.141,31.99z M65.424,86.413
	c-13.104,0-23.727-10.623-23.727-23.729c0-13.104,10.623-23.728,23.727-23.728c13.105,0,23.729,10.623,23.729,23.728
	C89.152,75.79,78.529,86.413,65.424,86.413z M65.424,41.696c-11.592,0-20.988,9.396-20.988,20.988
	c0,11.593,9.396,20.99,20.988,20.99c11.594,0,20.99-9.397,20.99-20.99C86.414,51.093,77.018,41.696,65.424,41.696z M81.119,55.348
	v10.043H58.592V54.799h22.262C80.947,54.979,81.031,55.164,81.119,55.348z M61.244,57.451v5.289h17.223v-5.289H61.244z
	 M58.592,68.043h2.652v2.651h-2.652V68.043z M61.244,75.999h-2.652v-2.651h2.652V75.999z M61.244,79.495
	c-0.892-0.221-1.76-0.49-2.59-0.844h2.59V79.495z M65.223,68.043h2.652v2.651h-2.652V68.043z M67.875,75.999h-2.652v-2.651h2.652
	V75.999z M67.875,78.651v1.181c-0.803,0.113-1.617,0.192-2.451,0.192c-0.068,0-0.133-0.011-0.201-0.011v-1.362H67.875z
	 M71.852,68.043h2.65v2.651h-2.65V68.043z M74.504,75.999h-2.652v-2.651h2.65v2.651H74.504z M78.467,70.695v-2.651h2.652v1.979
	c-0.107,0.229-0.211,0.453-0.326,0.675L78.467,70.695L78.467,70.695z M79.172,52.146H55.939V77.19
	c-0.947-0.621-1.83-1.329-2.637-2.118V50.297c0.285-0.278,0.58-0.544,0.883-0.802h22.479C77.592,50.287,78.428,51.179,79.172,52.146
	z"/>
</svg>
