<?xml version="1.0" encoding="utf-8"?>
<!-- Generator: Adobe Illustrator 16.0.0, SVG Export Plug-In . SVG Version: 6.00 Build 0)  -->
<!DOCTYPE svg PUBLIC "-//W3C//DTD SVG 1.1//EN" "http://www.w3.org/Graphics/SVG/1.1/DTD/svg11.dtd">
<svg version="1.1" id="Layer_1" xmlns="http://www.w3.org/2000/svg" xmlns:xlink="http://www.w3.org/1999/xlink" x="0px" y="0px"
	 width="174px" height="173.997px" viewBox="0 0 174 173.997" enable-background="new 0 0 174 173.997" xml:space="preserve">
<path fill="#FFFFFF" d="M108.468,132.137c0.093-0.08,0.189-0.165,0.283-0.25c0.985-0.896,1.833-1.945,2.504-3.104
	c1.099-1.901,1.729-4.105,1.729-6.459c0-7.134-5.788-12.919-12.925-12.919s-12.925,5.785-12.925,12.919
	c0,2.354,0.631,4.558,1.729,6.459c0.67,1.159,1.519,2.209,2.504,3.104c0.093,0.085,0.189,0.17,0.282,0.25
	c1.301,1.184,2.359,2.628,3.09,4.248c0.735,1.618,1.144,3.419,1.144,5.316s-0.408,3.698-1.144,5.316
	c-0.73,1.619-1.789,3.064-3.09,4.247c-0.093,0.085-0.189,0.17-0.282,0.25c-0.985,0.896-1.834,1.946-2.504,3.105
	c-1.099,1.901-1.729,4.105-1.729,6.459c0,7.134,5.788,12.918,12.925,12.918s12.925-5.784,12.925-12.918
	c0-2.354-0.63-4.558-1.729-6.459c-0.671-1.159-1.519-2.209-2.504-3.105c-0.094-0.08-0.19-0.165-0.283-0.25
	c-1.301-1.183-2.358-2.628-3.09-4.247c-0.734-1.618-1.143-3.419-1.143-5.316s0.408-3.698,1.143-5.316
	C106.109,134.765,107.167,133.32,108.468,132.137z M130.084,128.782c-2.354,0-4.56,0.63-6.462,1.728
	c-3.861,2.233-6.462,6.411-6.462,11.191c0,4.779,2.601,8.958,6.462,11.19c1.902,1.098,4.107,1.729,6.462,1.729
	c7.137,0,12.925-5.785,12.925-12.919S137.221,128.782,130.084,128.782z M65.534,22.732c-0.093-0.08-0.19-0.165-0.282-0.25
	c-0.986-0.896-1.834-1.945-2.505-3.104c-1.099-1.902-1.729-4.105-1.729-6.46C61.019,5.785,66.807,0,73.943,0
	s12.924,5.785,12.924,12.919c0,2.354-0.63,4.558-1.729,6.46c-0.67,1.158-1.518,2.207-2.504,3.104
	c-0.093,0.085-0.189,0.17-0.283,0.25c-1.3,1.184-2.358,2.629-3.089,4.248c-0.735,1.619-1.144,3.419-1.144,5.316
	s0.408,3.698,1.144,5.316c0.73,1.619,1.789,3.064,3.089,4.247c0.094,0.085,0.19,0.17,0.283,0.251
	c0.986,0.896,1.834,1.945,2.504,3.104c1.099,1.902,1.729,4.106,1.729,6.46c0,7.134-5.787,12.919-12.924,12.919
	s-12.925-5.785-12.925-12.919c0-2.354,0.63-4.558,1.729-6.46c0.671-1.158,1.519-2.208,2.505-3.104
	c0.092-0.081,0.189-0.166,0.282-0.251c1.3-1.183,2.358-2.628,3.089-4.247c0.736-1.618,1.144-3.419,1.144-5.316
	s-0.407-3.697-1.144-5.316C67.893,25.361,66.834,23.916,65.534,22.732z M43.918,19.379c2.354,0,4.56,0.629,6.462,1.727
	c3.861,2.233,6.462,6.412,6.462,11.191s-2.601,8.958-6.462,11.191c-1.902,1.098-4.107,1.727-6.462,1.727
	c-7.137,0-12.925-5.784-12.925-12.918C30.993,25.164,36.781,19.379,43.918,19.379z M58.625,128.15
	c0.117,0.04,0.238,0.081,0.359,0.119c1.269,0.405,2.602,0.615,3.941,0.616c2.196,0,4.421-0.557,6.461-1.733
	c6.18-3.567,8.299-11.47,4.73-17.647s-11.475-8.295-17.655-4.729c-2.04,1.177-3.634,2.824-4.732,4.727
	c-0.669,1.159-1.153,2.418-1.438,3.72c-0.026,0.123-0.052,0.249-0.075,0.37c-0.375,1.717-1.098,3.355-2.135,4.798
	c-1.035,1.445-2.392,2.698-4.035,3.647c-1.645,0.949-3.408,1.496-5.179,1.669c-1.769,0.177-3.55-0.017-5.224-0.551
	c-0.121-0.038-0.242-0.08-0.359-0.12c-1.269-0.405-2.603-0.614-3.941-0.615c-2.197,0-4.422,0.557-6.461,1.733
	c-6.181,3.566-8.299,11.47-4.73,17.647s11.475,8.295,17.654,4.729c2.04-1.178,3.635-2.824,4.732-4.727
	c0.669-1.159,1.154-2.418,1.438-3.72c0.023-0.121,0.048-0.247,0.075-0.37c0.375-1.717,1.098-3.355,2.135-4.798
	c1.035-1.445,2.391-2.699,4.035-3.647c1.645-0.949,3.408-1.496,5.178-1.669C55.169,127.423,56.95,127.616,58.625,128.15z
	 M72.34,145.185c-1.177-2.038-2.825-3.632-4.728-4.729c-3.865-2.227-8.786-2.389-12.927,0.001c-4.143,2.391-6.461,6.73-6.465,11.189
	c0,2.195,0.557,4.42,1.733,6.458c3.568,6.178,11.475,8.295,17.655,4.729S75.908,151.362,72.34,145.185z M131.949,36.283
	c0.023-0.12,0.049-0.246,0.075-0.369c0.284-1.302,0.77-2.561,1.438-3.721c1.099-1.9,2.693-3.549,4.732-4.725
	c6.181-3.567,14.087-1.45,17.655,4.729c3.568,6.178,1.45,14.08-4.73,17.646c-2.039,1.177-4.265,1.733-6.461,1.733
	c-1.339-0.001-2.673-0.21-3.941-0.616c-0.12-0.037-0.242-0.079-0.358-0.119c-1.676-0.534-3.456-0.728-5.225-0.551
	c-1.771,0.173-3.534,0.721-5.178,1.669c-1.645,0.948-3.001,2.202-4.035,3.647c-1.037,1.442-1.761,3.081-2.135,4.799
	c-0.027,0.122-0.053,0.248-0.076,0.369c-0.283,1.301-0.769,2.561-1.438,3.721c-1.099,1.901-2.693,3.549-4.732,4.726
	c-6.181,3.567-14.087,1.449-17.655-4.729c-3.568-6.179-1.45-14.08,4.73-17.647c2.04-1.176,4.265-1.733,6.461-1.732
	c1.339,0,2.673,0.209,3.942,0.615c0.116,0.039,0.238,0.081,0.358,0.119c1.675,0.534,3.456,0.728,5.224,0.551
	c1.771-0.173,3.534-0.721,5.179-1.669c1.644-0.948,3-2.202,4.035-3.647C130.852,39.64,131.574,38.001,131.949,36.283z
	 M124.048,15.895c1.177,2.039,1.734,4.262,1.734,6.458c-0.004,4.458-2.324,8.8-6.466,11.189c-4.141,2.39-9.062,2.228-12.927,0.001
	c-1.902-1.098-3.551-2.691-4.728-4.729c-3.569-6.178-1.45-14.081,4.73-17.647S120.479,9.717,124.048,15.895z M136.843,90.986
	c-0.023-0.121-0.048-0.247-0.075-0.37c-0.283-1.302-0.769-2.561-1.438-3.72c-1.098-1.902-2.693-3.549-4.732-4.727
	c-6.181-3.566-14.087-1.449-17.655,4.729s-1.449,14.081,4.73,17.647c2.04,1.177,4.265,1.733,6.461,1.733
	c1.34-0.001,2.673-0.211,3.942-0.616c0.12-0.038,0.241-0.079,0.358-0.119c1.675-0.534,3.456-0.728,5.225-0.551
	c1.77,0.173,3.534,0.72,5.178,1.669c1.645,0.948,3,2.202,4.035,3.647c1.037,1.442,1.76,3.081,2.135,4.798
	c0.027,0.123,0.052,0.249,0.075,0.37c0.284,1.302,0.77,2.561,1.438,3.72c1.098,1.902,2.692,3.55,4.731,4.727
	c6.181,3.566,14.087,1.449,17.655-4.729c3.569-6.178,1.45-14.08-4.73-17.647c-2.039-1.177-4.264-1.733-6.461-1.733
	c-1.339,0.001-2.673,0.21-3.941,0.615c-0.117,0.04-0.238,0.082-0.358,0.12c-1.675,0.534-3.456,0.728-5.225,0.551
	c-1.771-0.173-3.534-0.72-5.178-1.669c-1.645-0.948-3-2.202-4.035-3.647C137.941,94.342,137.218,92.703,136.843,90.986z
	 M144.745,70.597c-1.178,2.038-1.734,4.263-1.734,6.458c0.004,4.459,2.323,8.799,6.465,11.189c4.142,2.39,9.062,2.228,12.927,0.001
	c1.903-1.098,3.552-2.691,4.729-4.729c3.568-6.178,1.45-14.08-4.73-17.647C156.22,62.302,148.313,64.419,144.745,70.597z
	 M20.586,73.448c-0.117,0.04-0.238,0.081-0.358,0.12c-1.27,0.404-2.603,0.614-3.942,0.615c-2.196,0-4.421-0.557-6.46-1.734
	c-6.181-3.566-8.3-11.469-4.731-17.646s11.475-8.295,17.656-4.729c2.039,1.177,3.633,2.824,4.731,4.727
	c0.669,1.16,1.154,2.418,1.438,3.72c0.027,0.122,0.052,0.249,0.075,0.37c0.375,1.717,1.098,3.355,2.136,4.798
	c1.034,1.445,2.392,2.698,4.035,3.647s3.407,1.496,5.179,1.669c1.768,0.177,3.549-0.017,5.224-0.551
	c0.12-0.038,0.241-0.079,0.358-0.12c1.27-0.404,2.603-0.613,3.941-0.615c2.197,0,4.422,0.557,6.461,1.733
	c6.182,3.567,8.299,11.47,4.73,17.647s-11.475,8.295-17.654,4.729c-2.039-1.177-3.635-2.824-4.732-4.727
	c-0.669-1.159-1.154-2.418-1.438-3.72c-0.023-0.121-0.049-0.247-0.076-0.37c-0.375-1.717-1.098-3.355-2.135-4.797
	c-1.035-1.446-2.391-2.699-4.035-3.648s-3.408-1.496-5.178-1.669C24.042,72.721,22.262,72.914,20.586,73.448z M6.871,90.482
	c1.178-2.038,2.825-3.632,4.728-4.73c3.865-2.226,8.786-2.388,12.928,0.002c4.142,2.391,6.461,6.73,6.465,11.189
	c0,2.195-0.558,4.42-1.734,6.458c-3.568,6.178-11.475,8.295-17.655,4.729S3.303,96.66,6.871,90.482z"/>
</svg>
