<?xml version="1.0" encoding="utf-8"?>
<!-- Generator: Adobe Illustrator 16.0.0, SVG Export Plug-In . SVG Version: 6.00 Build 0)  -->
<!DOCTYPE svg PUBLIC "-//W3C//DTD SVG 1.1//EN" "http://www.w3.org/Graphics/SVG/1.1/DTD/svg11.dtd">
<svg version="1.1" id="Layer_1" xmlns="http://www.w3.org/2000/svg" xmlns:xlink="http://www.w3.org/1999/xlink" x="0px" y="0px"
	 width="193.633px" height="68.959px" viewBox="0 0 193.633 68.959" enable-background="new 0 0 193.633 68.959"
	 xml:space="preserve">
<path fill="#8BA2AD" d="M41.637,52.369c0.037-0.031,0.075-0.065,0.112-0.099c0.39-0.355,0.726-0.771,0.992-1.23
	c0.435-0.754,0.685-1.627,0.685-2.561c0-2.826-2.292-5.119-5.12-5.119c-2.828,0-5.12,2.293-5.12,5.119
	c0,0.934,0.25,1.807,0.685,2.561c0.266,0.459,0.602,0.875,0.992,1.23c0.037,0.032,0.075,0.066,0.112,0.099
	c0.515,0.469,0.934,1.042,1.224,1.684c0.292,0.642,0.453,1.354,0.453,2.107c0,0.752-0.161,1.466-0.453,2.106
	c-0.29,0.642-0.708,1.215-1.224,1.684c-0.037,0.033-0.075,0.066-0.112,0.1c-0.391,0.355-0.728,0.771-0.992,1.229
	c-0.435,0.754-0.685,1.628-0.685,2.561c0,2.827,2.293,5.12,5.12,5.12c2.827,0,5.12-2.293,5.12-5.12c0-0.933-0.25-1.807-0.685-2.561
	c-0.266-0.458-0.602-0.874-0.992-1.229c-0.037-0.031-0.075-0.066-0.112-0.1c-0.515-0.469-0.935-1.042-1.224-1.684
	c-0.291-0.642-0.453-1.354-0.453-2.106c0-0.753,0.162-1.466,0.453-2.107C40.703,53.411,41.122,52.837,41.637,52.369z M50.201,51.04
	c-0.933,0-1.807,0.25-2.56,0.686c-1.53,0.885-2.56,2.541-2.56,4.436s1.03,3.551,2.56,4.436c0.753,0.436,1.627,0.685,2.56,0.685
	c2.827,0,5.12-2.292,5.12-5.119S53.028,51.04,50.201,51.04z M24.629,9.009c-0.037-0.032-0.075-0.066-0.112-0.1
	c-0.39-0.355-0.726-0.771-0.992-1.23C23.09,6.926,22.84,6.052,22.84,5.12c0-2.827,2.293-5.12,5.12-5.12s5.12,2.292,5.12,5.12
	c0,0.933-0.25,1.807-0.685,2.56c-0.266,0.459-0.602,0.875-0.992,1.23c-0.037,0.034-0.075,0.067-0.112,0.1
	c-0.515,0.469-0.934,1.042-1.224,1.683c-0.292,0.642-0.453,1.355-0.453,2.107s0.162,1.466,0.453,2.107
	c0.29,0.642,0.708,1.214,1.224,1.683c0.037,0.034,0.075,0.067,0.112,0.099c0.39,0.355,0.726,0.771,0.992,1.23
	c0.435,0.753,0.685,1.627,0.685,2.56c0,2.827-2.293,5.12-5.12,5.12s-5.12-2.293-5.12-5.12c0-0.933,0.25-1.807,0.685-2.56
	c0.266-0.459,0.602-0.875,0.992-1.23c0.037-0.032,0.075-0.065,0.112-0.099c0.515-0.469,0.934-1.042,1.224-1.683
	c0.292-0.642,0.453-1.355,0.453-2.107c0-0.751-0.161-1.465-0.453-2.107C25.563,10.051,25.145,9.478,24.629,9.009z M16.066,7.68
	c0.933,0,1.807,0.25,2.56,0.685c1.53,0.885,2.56,2.541,2.56,4.435c0,1.895-1.03,3.551-2.56,4.435
	c-0.753,0.436-1.627,0.685-2.56,0.685c-2.827,0-5.12-2.293-5.12-5.12C10.946,9.973,13.239,7.68,16.066,7.68z M21.893,50.79
	c0.046,0.016,0.094,0.031,0.142,0.047c0.503,0.16,1.031,0.243,1.562,0.244c0.871,0,1.751-0.221,2.56-0.688
	c2.448-1.414,3.288-4.545,1.874-6.994c-1.414-2.448-4.545-3.289-6.994-1.875c-0.808,0.468-1.439,1.121-1.875,1.873
	c-0.265,0.461-0.457,0.959-0.569,1.476c-0.011,0.049-0.021,0.099-0.03,0.146c-0.148,0.682-0.435,1.33-0.846,1.902
	c-0.41,0.572-0.947,1.069-1.599,1.445c-0.651,0.376-1.35,0.593-2.051,0.66c-0.701,0.07-1.406-0.006-2.07-0.217
	c-0.047-0.017-0.096-0.031-0.142-0.049c-0.502-0.16-1.031-0.242-1.562-0.244c-0.87,0-1.751,0.222-2.56,0.688
	C5.285,50.619,4.445,53.75,5.859,56.2c1.414,2.447,4.546,3.287,6.994,1.873c0.808-0.467,1.439-1.118,1.875-1.872
	c0.265-0.46,0.458-0.959,0.57-1.476c0.009-0.048,0.019-0.098,0.03-0.146c0.148-0.681,0.435-1.33,0.846-1.901
	c0.41-0.572,0.947-1.07,1.599-1.445c0.652-0.377,1.35-0.594,2.051-0.661C20.523,50.5,21.229,50.578,21.893,50.79z M27.326,57.541
	c-0.467-0.81-1.12-1.44-1.873-1.875c-1.531-0.883-3.48-0.946-5.121,0.001s-2.56,2.667-2.561,4.436c0,0.869,0.221,1.75,0.687,2.56
	c1.414,2.448,4.545,3.287,6.994,1.874C27.9,63.121,28.739,59.989,27.326,57.541z M50.939,14.379c0.009-0.047,0.019-0.098,0.03-0.146
	c0.112-0.516,0.305-1.015,0.569-1.474c0.435-0.754,1.067-1.407,1.875-1.873c2.449-1.414,5.581-0.574,6.994,1.874
	c1.413,2.448,0.575,5.581-1.874,6.994c-0.808,0.466-1.689,0.687-2.559,0.687c-0.531,0-1.059-0.083-1.562-0.244
	c-0.048-0.015-0.096-0.031-0.142-0.047c-0.664-0.211-1.369-0.289-2.07-0.218c-0.701,0.068-1.4,0.286-2.051,0.662
	c-0.651,0.375-1.188,0.873-1.599,1.446c-0.411,0.571-0.697,1.221-0.846,1.901c-0.01,0.049-0.021,0.099-0.03,0.146
	c-0.112,0.516-0.305,1.015-0.569,1.475c-0.435,0.753-1.067,1.406-1.875,1.873c-2.448,1.414-5.58,0.574-6.994-1.875
	c-1.414-2.449-0.575-5.58,1.874-6.994c0.808-0.466,1.689-0.687,2.559-0.687c0.531,0,1.059,0.083,1.562,0.244
	c0.046,0.016,0.094,0.032,0.142,0.047c0.664,0.212,1.369,0.289,2.07,0.219c0.701-0.069,1.4-0.286,2.051-0.662
	c0.651-0.376,1.188-0.873,1.599-1.446C50.504,15.709,50.791,15.06,50.939,14.379z M47.809,6.299c0.466,0.808,0.687,1.689,0.687,2.56
	c-0.001,1.767-0.92,3.487-2.561,4.435s-3.59,0.883-5.121,0c-0.753-0.435-1.406-1.067-1.873-1.875
	c-1.414-2.448-0.574-5.581,1.874-6.994C43.263,3.012,46.396,3.851,47.809,6.299z M52.878,36.06c-0.009-0.048-0.019-0.099-0.03-0.146
	c-0.112-0.516-0.305-1.015-0.569-1.474c-0.435-0.754-1.067-1.407-1.875-1.873c-2.448-1.414-5.58-0.575-6.994,1.874
	c-1.414,2.448-0.574,5.581,1.874,6.995c0.808,0.465,1.689,0.687,2.56,0.687c0.531,0,1.059-0.083,1.563-0.244
	c0.048-0.015,0.096-0.031,0.142-0.047c0.664-0.212,1.369-0.289,2.07-0.22c0.701,0.068,1.4,0.285,2.051,0.662
	s1.188,0.873,1.598,1.445c0.411,0.571,0.697,1.221,0.846,1.901c0.01,0.049,0.021,0.099,0.03,0.146
	c0.112,0.517,0.305,1.016,0.569,1.476c0.435,0.754,1.067,1.405,1.875,1.873c2.449,1.413,5.581,0.573,6.994-1.874
	c1.413-2.448,0.575-5.58-1.874-6.994c-0.808-0.467-1.689-0.688-2.56-0.688c-0.53,0-1.059,0.084-1.562,0.243
	c-0.046,0.017-0.094,0.033-0.142,0.048c-0.664,0.213-1.37,0.288-2.07,0.219c-0.701-0.068-1.4-0.285-2.051-0.661
	c-0.651-0.376-1.188-0.872-1.599-1.445C53.313,37.39,53.026,36.741,52.878,36.06z M56.008,27.979
	c-0.466,0.808-0.687,1.689-0.687,2.559c0.001,1.768,0.92,3.488,2.561,4.435c1.641,0.947,3.59,0.883,5.121,0
	c0.753-0.435,1.406-1.067,1.873-1.875c1.414-2.448,0.574-5.581-1.874-6.994C60.554,24.691,57.422,25.53,56.008,27.979z
	 M6.823,29.109c-0.046,0.016-0.095,0.032-0.142,0.048C6.178,29.317,5.65,29.4,5.12,29.4c-0.87,0-1.751-0.221-2.559-0.687
	c-2.449-1.414-3.288-4.545-1.874-6.994c1.413-2.448,4.545-3.288,6.994-1.874c0.808,0.466,1.44,1.12,1.875,1.873
	c0.265,0.46,0.457,0.958,0.569,1.475c0.011,0.048,0.021,0.098,0.03,0.146c0.148,0.68,0.435,1.33,0.846,1.901
	c0.41,0.573,0.947,1.07,1.599,1.446s1.35,0.593,2.051,0.661c0.7,0.07,1.406-0.006,2.069-0.218c0.048-0.015,0.096-0.032,0.142-0.047
	c0.503-0.161,1.031-0.244,1.562-0.244c0.87,0,1.751,0.221,2.559,0.687c2.448,1.414,3.288,4.546,1.874,6.995
	c-1.414,2.448-4.545,3.288-6.994,1.874c-0.808-0.466-1.439-1.119-1.875-1.873c-0.265-0.46-0.458-0.958-0.569-1.474
	c-0.01-0.048-0.02-0.098-0.03-0.147c-0.148-0.68-0.435-1.33-0.846-1.901c-0.41-0.573-0.947-1.07-1.598-1.446
	c-0.651-0.376-1.35-0.592-2.051-0.661C8.192,28.821,7.487,28.897,6.823,29.109z M1.39,35.86c0.466-0.809,1.119-1.439,1.873-1.875
	c1.531-0.882,3.48-0.947,5.121,0c1.641,0.948,2.56,2.668,2.561,4.435c0,0.871-0.221,1.752-0.687,2.561
	c-1.414,2.447-4.546,3.287-6.994,1.875C0.816,41.44-0.023,38.31,1.39,35.86z M90.201,24.843c0.77-0.216,1.442-0.539,2.018-0.97
	c0.574-0.431,1.021-0.981,1.339-1.648s0.478-1.463,0.478-2.388v-0.062c0-0.76-0.154-1.406-0.462-1.94
	c-0.308-0.534-0.698-0.985-1.171-1.355c-0.473-0.37-1.006-0.683-1.602-0.939c-0.595-0.257-1.181-0.478-1.755-0.662
	c-0.452-0.144-0.878-0.288-1.278-0.432s-0.755-0.292-1.063-0.446c-0.308-0.154-0.555-0.318-0.739-0.493
	c-0.184-0.175-0.277-0.375-0.277-0.601v-0.063c0-0.328,0.144-0.601,0.431-0.815c0.287-0.215,0.719-0.323,1.294-0.323
	c0.595,0,1.283,0.139,2.063,0.416c0.78,0.277,1.582,0.652,2.402,1.125l1.787-3.234c-0.904-0.595-1.895-1.063-2.973-1.402
	c-1.078-0.338-2.14-0.508-3.188-0.508c-0.842,0-1.627,0.113-2.356,0.339c-0.729,0.227-1.366,0.565-1.909,1.017
	c-0.544,0.452-0.976,1.001-1.294,1.648c-0.318,0.646-0.477,1.391-0.477,2.233v0.062c0,0.801,0.148,1.479,0.446,2.033
	c0.297,0.555,0.683,1.021,1.155,1.401c0.472,0.381,1.001,0.688,1.586,0.924c0.585,0.237,1.165,0.438,1.74,0.601
	c0.452,0.144,0.883,0.277,1.293,0.4c0.411,0.124,0.775,0.252,1.093,0.385c0.318,0.134,0.57,0.292,0.755,0.478
	c0.185,0.185,0.277,0.4,0.277,0.646v0.062c0,0.37-0.159,0.667-0.477,0.893c-0.318,0.227-0.816,0.339-1.494,0.339
	c-0.781,0-1.617-0.164-2.51-0.493c-0.893-0.328-1.792-0.821-2.695-1.479l-2.002,3.08c1.109,0.863,2.274,1.494,3.496,1.895
	c1.221,0.401,2.417,0.601,3.588,0.601C88.604,25.167,89.431,25.059,90.201,24.843z M97.098,24.859h4.682V8.348h-4.682V24.859z
	 M96.975,6.53h4.928V2.372h-4.928V6.53z M105.413,24.859h4.68v-9.188c0-1.106,0.252-1.941,0.756-2.504
	c0.503-0.563,1.195-0.845,2.078-0.845c0.884,0,1.562,0.282,2.033,0.845c0.473,0.563,0.709,1.398,0.709,2.504v9.188h4.682v-9.188
	c0-1.106,0.251-1.941,0.754-2.504s1.195-0.845,2.079-0.845c0.883,0,1.562,0.282,2.032,0.845c0.473,0.563,0.709,1.398,0.709,2.504
	v9.188h4.682v-10.75c0-1.992-0.492-3.501-1.479-4.528c-0.985-1.027-2.352-1.541-4.096-1.541c-1.131,0-2.137,0.223-3.02,0.667
	c-0.883,0.445-1.684,1.102-2.402,1.97c-0.432-0.848-1.043-1.5-1.833-1.955c-0.79-0.455-1.729-0.683-2.817-0.683
	c-0.597,0-1.135,0.073-1.617,0.218c-0.482,0.145-0.918,0.341-1.309,0.589c-0.391,0.249-0.744,0.532-1.064,0.854
	c-0.318,0.321-0.609,0.657-0.877,1.008v-2.36h-4.682v16.512H105.413z M140.827,20.87c-0.482-0.215-0.902-0.524-1.263-0.924
	c-0.36-0.4-0.646-0.883-0.862-1.448c-0.216-0.564-0.322-1.186-0.322-1.863v-0.062c0-0.677,0.106-1.298,0.322-1.863
	c0.217-0.565,0.504-1.048,0.862-1.448c0.358-0.399,0.78-0.709,1.263-0.924c0.482-0.216,1.002-0.324,1.557-0.324
	s1.072,0.108,1.556,0.324c0.481,0.215,0.908,0.524,1.278,0.924c0.369,0.4,0.662,0.883,0.877,1.448
	c0.216,0.565,0.324,1.186,0.324,1.863v0.062c0,0.698-0.108,1.325-0.324,1.879c-0.215,0.554-0.508,1.032-0.877,1.432
	c-0.37,0.399-0.797,0.709-1.278,0.924c-0.483,0.215-1.001,0.323-1.556,0.323S141.31,21.085,140.827,20.87z M133.758,29.788
	l4.683-1.458v-5.627c0.556,0.658,1.237,1.232,2.048,1.725c0.813,0.493,1.844,0.74,3.096,0.74c0.985,0,1.931-0.185,2.834-0.555
	c0.904-0.37,1.699-0.919,2.388-1.648s1.241-1.622,1.663-2.68c0.421-1.058,0.631-2.274,0.631-3.65v-0.062
	c0-1.375-0.21-2.592-0.631-3.65c-0.422-1.057-0.98-1.95-1.68-2.68c-0.697-0.729-1.498-1.278-2.401-1.648
	c-0.903-0.369-1.839-0.554-2.804-0.554c-1.23,0-2.254,0.252-3.063,0.754c-0.812,0.504-1.505,1.146-2.079,1.926V8.348h-4.682v21.44
	H133.758z M153.357,24.859l4.681-1.458V2.372h-4.681V24.859z M160.895,24.859h4.682V8.348h-4.682V24.859z M160.771,6.53h4.929V2.372
	h-4.929V6.53z M92.853,49.468c1.026-0.563,1.94-1.289,2.741-2.172l-2.741-2.771c-0.575,0.533-1.155,0.959-1.74,1.277
	c-0.585,0.318-1.268,0.479-2.048,0.479c-0.637,0-1.212-0.118-1.725-0.354c-0.514-0.235-0.955-0.56-1.325-0.971
	c-0.37-0.41-0.652-0.894-0.847-1.447c-0.196-0.555-0.292-1.149-0.292-1.787v-0.062c0-0.616,0.097-1.196,0.292-1.74
	c0.195-0.544,0.472-1.021,0.832-1.432c0.359-0.411,0.78-0.734,1.263-0.971c0.482-0.236,1.021-0.354,1.617-0.354
	c0.842,0,1.545,0.164,2.109,0.493c0.563,0.328,1.114,0.77,1.648,1.324l2.864-3.08c-0.78-0.862-1.685-1.541-2.71-2.033
	c-1.027-0.493-2.32-0.739-3.881-0.739c-1.273,0-2.438,0.226-3.496,0.677c-1.058,0.453-1.966,1.068-2.726,1.85
	c-0.76,0.779-1.355,1.692-1.787,2.74c-0.431,1.047-0.646,2.156-0.646,3.326v0.063c0,1.17,0.215,2.274,0.646,3.311
	c0.431,1.038,1.027,1.941,1.787,2.712c0.759,0.771,1.668,1.381,2.726,1.832s2.202,0.678,3.434,0.678
	C90.49,50.315,91.825,50.033,92.853,49.468z M96.99,49.946h4.68V27.458l-4.68,1.458V49.946z M110.834,45.91
	c-0.523-0.246-0.98-0.58-1.371-1.001s-0.688-0.903-0.894-1.447s-0.308-1.125-0.308-1.741v-0.062c0-0.616,0.097-1.196,0.292-1.74
	c0.194-0.544,0.478-1.021,0.848-1.432c0.369-0.411,0.815-0.734,1.341-0.971c0.523-0.237,1.123-0.354,1.801-0.354
	c0.637,0,1.222,0.123,1.756,0.37c0.533,0.246,0.996,0.58,1.387,1.001s0.688,0.903,0.893,1.446c0.205,0.545,0.31,1.125,0.31,1.74
	v0.063c0,0.616-0.099,1.196-0.294,1.739c-0.194,0.545-0.477,1.021-0.846,1.433c-0.371,0.411-0.816,0.733-1.34,0.971
	c-0.525,0.237-1.125,0.354-1.803,0.354C111.948,46.28,111.357,46.157,110.834,45.91z M116.116,49.637
	c1.088-0.45,2.033-1.067,2.834-1.848c0.801-0.781,1.428-1.688,1.879-2.728c0.451-1.037,0.678-2.15,0.678-3.343v-0.062
	c0-1.19-0.227-2.305-0.678-3.342s-1.072-1.94-1.863-2.711s-1.729-1.375-2.817-1.817c-1.089-0.441-2.271-0.662-3.542-0.662
	c-1.294,0-2.484,0.226-3.572,0.677c-1.089,0.453-2.033,1.068-2.834,1.85c-0.801,0.779-1.428,1.688-1.879,2.726
	c-0.451,1.037-0.678,2.151-0.678,3.342v0.063c0,1.189,0.227,2.305,0.678,3.342s1.072,1.939,1.863,2.711
	c0.79,0.77,1.729,1.376,2.818,1.816c1.088,0.441,2.269,0.662,3.541,0.662C113.836,50.315,115.027,50.088,116.116,49.637z
	 M130.426,50.037c0.473-0.146,0.902-0.343,1.293-0.59c0.391-0.248,0.744-0.532,1.064-0.854c0.317-0.32,0.61-0.656,0.877-1.008v2.359
	h4.682v-16.51h-4.682v9.188c0,1.105-0.262,1.941-0.785,2.505c-0.522,0.563-1.236,0.844-2.141,0.844s-1.602-0.28-2.095-0.844
	c-0.492-0.563-0.739-1.397-0.739-2.505v-9.188h-4.682v10.689c0,1.91,0.488,3.409,1.463,4.497c0.977,1.089,2.355,1.633,4.143,1.633
	C129.42,50.253,129.954,50.181,130.426,50.037z M147.754,45.957c-0.483-0.216-0.91-0.524-1.278-0.925
	c-0.37-0.4-0.662-0.883-0.878-1.447c-0.217-0.564-0.323-1.186-0.323-1.864v-0.062c0-0.697,0.106-1.324,0.323-1.879
	c0.216-0.555,0.508-1.031,0.878-1.432c0.368-0.4,0.795-0.709,1.278-0.926c0.48-0.216,1-0.322,1.555-0.322s1.072,0.106,1.557,0.322
	c0.482,0.217,0.902,0.524,1.262,0.926c0.36,0.4,0.646,0.883,0.863,1.446c0.215,0.563,0.322,1.187,0.322,1.863v0.062
	c0,0.68-0.107,1.301-0.322,1.864c-0.217,0.565-0.504,1.047-0.863,1.447c-0.358,0.399-0.779,0.709-1.262,0.925
	c-0.484,0.216-1.002,0.323-1.557,0.323C148.754,46.28,148.235,46.172,147.754,45.957z M151.172,49.499
	c0.812-0.503,1.504-1.145,2.078-1.925v2.372h4.683V27.458l-4.683,0.146v7.987c-0.553-0.658-1.236-1.232-2.047-1.726
	c-0.813-0.493-1.844-0.739-3.097-0.739c-0.985,0-1.931,0.185-2.833,0.554c-0.904,0.37-1.699,0.919-2.389,1.648
	c-0.688,0.729-1.241,1.623-1.662,2.681c-0.422,1.059-0.631,2.274-0.631,3.649v0.062c0,1.376,0.209,2.594,0.631,3.65
	c0.421,1.059,0.98,1.952,1.679,2.681c0.699,0.729,1.499,1.278,2.402,1.647s1.838,0.555,2.803,0.555
	C149.34,50.253,150.361,50.001,151.172,49.499z M169.614,24.828h4.68V12.321h3.729v-3.82h-3.789V7.855
	c0-1.191,0.564-1.787,1.693-1.787c0.41,0,0.781,0.036,1.109,0.107c0.328,0.072,0.666,0.17,1.016,0.293V2.587
	c-0.43-0.144-0.907-0.257-1.432-0.339c-0.523-0.082-1.154-0.124-1.895-0.124c-1.663,0-2.926,0.432-3.788,1.294
	c-0.883,0.883-1.324,2.218-1.324,4.004v1.047h-1.94v3.851h1.94L169.614,24.828L169.614,24.828z M183.717,29.787
	c0.533-0.164,1.011-0.431,1.432-0.801c0.421-0.37,0.807-0.847,1.155-1.432c0.349-0.585,0.678-1.299,0.985-2.141l6.344-16.912h-4.865
	l-3.604,11.244l-3.758-11.244h-4.959l6.469,16.573c-0.207,0.411-0.428,0.693-0.662,0.847c-0.236,0.154-0.561,0.231-0.971,0.231
	c-0.309,0-0.643-0.062-1.002-0.185c-0.359-0.124-0.693-0.277-1-0.462l-1.57,3.388c0.595,0.35,1.221,0.627,1.877,0.832
	c0.658,0.205,1.418,0.308,2.279,0.308C182.566,30.034,183.183,29.952,183.717,29.787z M83.116,66.721h1.127l1.156-2.575h5.304
	l1.142,2.575h1.183l-4.44-9.813h-1.03L83.116,66.721z M85.831,63.144l2.228-4.955l2.213,4.955H85.831L85.831,63.144z M99.844,66.888
	c1.769,0,2.882-0.683,3.898-1.712l-0.725-0.71c-0.934,0.891-1.811,1.405-3.146,1.405c-2.144,0-3.771-1.769-3.771-4.022v-0.027
	c0-2.241,1.613-3.995,3.771-3.995c1.322,0,2.242,0.557,3.063,1.336l0.752-0.808c-0.976-0.918-2.032-1.545-3.802-1.545
	c-2.866,0-4.927,2.282-4.927,5.039v0.027C94.958,64.674,97.032,66.888,99.844,66.888z M110.851,66.888
	c1.769,0,2.882-0.683,3.897-1.712l-0.725-0.71c-0.934,0.891-1.811,1.405-3.146,1.405c-2.144,0-3.771-1.769-3.771-4.022v-0.027
	c0-2.241,1.613-3.995,3.771-3.995c1.322,0,2.242,0.557,3.063,1.336l0.752-0.808c-0.976-0.918-2.032-1.545-3.801-1.545
	c-2.867,0-4.929,2.282-4.929,5.039v0.027C105.965,64.674,108.04,66.888,110.851,66.888z M121.926,66.888
	c2.967,0,4.984-2.353,4.984-5.039v-0.027c0-2.688-1.99-5.012-4.955-5.012c-2.967,0-4.984,2.353-4.984,5.039v0.027
	C116.971,64.563,118.961,66.888,121.926,66.888z M121.956,65.872c-2.229,0-3.844-1.811-3.844-4.021v-0.028
	c0-2.214,1.588-3.995,3.814-3.995s3.842,1.81,3.842,4.023v0.026C125.769,64.09,124.182,65.872,121.956,65.872z M134.145,66.874
	c2.436,0,4.064-1.475,4.064-4.314v-5.582h-1.101v5.666c0,2.129-1.142,3.215-2.938,3.215c-1.852,0-2.979-1.184-2.979-3.284v-5.597
	h-1.102v5.666C130.092,65.399,131.736,66.874,134.145,66.874z M141.823,66.721h1.072v-7.991l6.292,7.991h0.877v-9.745h-1.071v7.811
	l-6.14-7.811h-1.03V66.721z M156.407,66.721h1.114v-8.729h3.271v-1.017h-7.656v1.017h3.271V66.721L156.407,66.721z M163.961,66.721
	h1.101v-9.745h-1.101V66.721z M168.926,66.721h1.072v-7.991l6.293,7.991h0.877v-9.745h-1.072v7.811l-6.139-7.811h-1.031V66.721z
	 M185.459,66.888c1.644,0,3.008-0.683,3.912-1.488v-3.885h-4.023v0.988h2.966v2.422c-0.668,0.543-1.698,0.975-2.813,0.975
	c-2.365,0-3.854-1.727-3.854-4.051v-0.027c0-2.172,1.545-3.995,3.702-3.995c1.379,0,2.214,0.46,2.966,1.112l0.71-0.834
	c-0.975-0.821-1.99-1.295-3.634-1.295c-2.923,0-4.886,2.366-4.886,5.039v0.027C180.504,64.661,182.396,66.888,185.459,66.888z"/>
</svg>
