<?xml version="1.0" encoding="utf-8"?>
<!-- Generator: Adobe Illustrator 16.0.0, SVG Export Plug-In . SVG Version: 6.00 Build 0)  -->
<!DOCTYPE svg PUBLIC "-//W3C//DTD SVG 1.1//EN" "http://www.w3.org/Graphics/SVG/1.1/DTD/svg11.dtd">
<svg version="1.1" id="Layer_1" xmlns="http://www.w3.org/2000/svg" xmlns:xlink="http://www.w3.org/1999/xlink" x="0px" y="0px"
	 width="144px" height="144px" viewBox="0 0 144 144" enable-background="new 0 0 144 144" xml:space="preserve">
<path fill="#43BDCB" d="M82.205,45.032v3.257c-0.949-0.357-1.721-0.734-1.721-1.754C80.484,45.604,81.201,45.157,82.205,45.032z
	 M67.915,95.498h-5.388c-0.157,0-0.286,0.128-0.286,0.285v5.388c0,0.157,0.128,0.285,0.286,0.285h5.388
	c0.157,0,0.286-0.128,0.286-0.285v-5.388C68.2,95.626,68.072,95.498,67.915,95.498z M81.475,67.828h-5.389
	c-0.158,0-0.285,0.129-0.285,0.286v5.388c0,0.157,0.127,0.285,0.285,0.285h5.389c0.156,0,0.285-0.128,0.285-0.285v-5.388
	C81.76,67.957,81.631,67.828,81.475,67.828z M67.915,81.663h-5.388c-0.157,0-0.286,0.128-0.286,0.286v5.387
	c0,0.158,0.128,0.286,0.286,0.286h5.388c0.157,0,0.286-0.128,0.286-0.286v-5.387C68.2,81.791,68.072,81.663,67.915,81.663z
	 M81.475,81.663h-5.389c-0.158,0-0.285,0.128-0.285,0.286v5.387c0,0.158,0.127,0.286,0.285,0.286h5.389
	c0.156,0,0.285-0.128,0.285-0.286v-5.387C81.76,81.791,81.631,81.663,81.475,81.663z M67.915,67.828h-5.388
	c-0.157,0-0.286,0.129-0.286,0.286v5.388c0,0.157,0.128,0.285,0.286,0.285h5.388c0.157,0,0.286-0.128,0.286-0.285v-5.388
	C68.2,67.957,68.072,67.828,67.915,67.828z M83.045,50.616v3.775c0.967-0.179,1.576-0.751,1.576-1.771
	C84.621,51.493,83.922,50.992,83.045,50.616z M95.318,40.58v18.226c0,0.631-0.514,1.147-1.146,1.147H49.829
	c-0.632,0-1.147-0.515-1.147-1.147V40.58c0-0.631,0.515-1.146,1.147-1.146h44.343C94.805,39.434,95.318,39.948,95.318,40.58z
	 M67.682,49.693c0-0.645-0.522-1.166-1.167-1.166h-4.042v-4.041c0-0.645-0.521-1.166-1.166-1.166s-1.167,0.521-1.167,1.166v4.041
	h-4.042c-0.644,0-1.167,0.521-1.167,1.166s0.523,1.166,1.167,1.166h4.042V54.9c0,0.645,0.523,1.166,1.167,1.166
	c0.645,0,1.166-0.521,1.166-1.166v-4.041h4.042C67.161,50.859,67.682,50.338,67.682,49.693z M86.412,52.423
	c0-2.436-1.701-3.223-3.26-3.795v-3.633c1.252,0.09,1.719,0.662,2.147,0.662c0.537,0,0.787-0.68,0.787-1.021
	c0-0.877-1.719-1.254-2.937-1.289v-0.483c0-0.215-0.268-0.411-0.536-0.411c-0.306,0-0.521,0.196-0.521,0.411v0.519
	c-1.699,0.18-3.4,1.074-3.4,3.329c0,2.29,1.789,2.935,3.4,3.508v4.206c-1.824-0.143-2.307-1.396-2.898-1.396
	c-0.446,0-0.821,0.591-0.821,1.019c0,0.877,1.502,2.076,3.724,2.112v0.555c0,0.215,0.215,0.412,0.518,0.412
	c0.27,0,0.537-0.197,0.537-0.412v-0.608C85.086,55.841,86.412,54.624,86.412,52.423z M81.475,95.498h-5.389
	c-0.158,0-0.285,0.128-0.285,0.285v5.388c0,0.157,0.127,0.285,0.285,0.285h5.389c0.156,0,0.285-0.128,0.285-0.285v-5.388
	C81.76,95.626,81.631,95.498,81.475,95.498z M95.033,67.828h-5.389c-0.158,0-0.285,0.129-0.285,0.286v5.388
	c0,0.157,0.127,0.285,0.285,0.285h5.389c0.156,0,0.285-0.128,0.285-0.285v-5.388C95.318,67.957,95.189,67.828,95.033,67.828z
	 M89.645,81.663c-0.158,0-0.285,0.128-0.285,0.286v19.222c0,0.157,0.127,0.285,0.285,0.285h5.39c0.155,0,0.284-0.128,0.284-0.285
	V81.949c0-0.158-0.129-0.286-0.284-0.286H89.645z M48.967,87.622h5.388c0.157,0,0.286-0.128,0.286-0.286v-5.387
	c0-0.158-0.128-0.286-0.286-0.286h-5.388c-0.157,0-0.286,0.128-0.286,0.286v5.387C48.681,87.494,48.81,87.622,48.967,87.622z
	 M48.967,101.456h5.388c0.157,0,0.286-0.128,0.286-0.285v-5.388c0-0.157-0.128-0.285-0.286-0.285h-5.388
	c-0.157,0-0.286,0.128-0.286,0.285v5.388C48.681,101.328,48.81,101.456,48.967,101.456z M144,72c0,39.763-32.236,72-72,72
	c-39.764,0-72-32.236-72-72C0,32.234,32.236,0,72,0C111.764,0,144,32.235,144,72z M102.719,55.58c0-0.645-0.521-1.166-1.166-1.166
	c-0.645,0-1.166,0.521-1.166,1.166v51.775c0,1.805-1.467,3.271-3.272,3.271H46.885c-1.804,0-3.273-1.467-3.273-3.271V96.215
	c0-0.645-0.522-1.166-1.166-1.166s-1.166,0.521-1.166,1.166v11.141c0,3.088,2.515,5.604,5.604,5.604h50.229
	c3.092,0,5.604-2.514,5.604-5.604L102.719,55.58L102.719,55.58z M97.65,73.502v-5.388c0-1.443-1.174-2.617-2.617-2.617h-5.389
	c-1.441,0-2.617,1.174-2.617,2.617v5.388c0,1.441,1.176,2.617,2.617,2.617h5.389C96.477,76.119,97.65,74.943,97.65,73.502z
	 M95.035,79.331h-5.389c-1.445,0-2.619,1.175-2.619,2.618v19.222c0,1.442,1.176,2.617,2.619,2.617h5.389
	c1.441,0,2.615-1.175,2.615-2.617V81.949C97.65,80.506,96.477,79.331,95.035,79.331z M97.65,58.806V40.58
	c0-1.918-1.562-3.478-3.479-3.478H49.829c-1.918,0-3.479,1.56-3.479,3.478v18.226c0,1.918,1.562,3.479,3.479,3.479h44.343
	C96.09,62.285,97.65,60.725,97.65,58.806z M84.092,87.336v-5.387c0-1.443-1.174-2.618-2.617-2.618h-5.389
	c-1.443,0-2.618,1.175-2.618,2.618v5.387c0,1.443,1.175,2.617,2.618,2.617h5.389C82.918,89.953,84.092,88.779,84.092,87.336z
	 M81.475,93.166h-5.389c-1.443,0-2.618,1.174-2.618,2.617v5.388c0,1.442,1.175,2.617,2.618,2.617h5.389
	c1.443,0,2.617-1.175,2.617-2.617v-5.388C84.092,94.34,82.918,93.166,81.475,93.166z M84.092,73.502v-5.388
	c0-1.443-1.174-2.617-2.617-2.617h-5.389c-1.443,0-2.618,1.174-2.618,2.617v5.388c0,1.441,1.175,2.617,2.618,2.617h5.389
	C82.918,76.119,84.092,74.943,84.092,73.502z M70.531,87.336v-5.387c0-1.443-1.174-2.618-2.617-2.618h-5.388
	c-1.443,0-2.617,1.175-2.617,2.618l0,0v5.387c0,1.443,1.174,2.617,2.617,2.617h5.388C69.357,89.953,70.531,88.779,70.531,87.336z
	 M67.915,93.166h-5.388c-1.443,0-2.617,1.174-2.617,2.617v5.388c0,1.442,1.174,2.617,2.617,2.617h5.388
	c1.443,0,2.617-1.175,2.617-2.617v-5.388C70.531,94.34,69.357,93.166,67.915,93.166z M70.531,73.502v-5.388
	c0-1.443-1.174-2.617-2.617-2.617h-5.388c-1.443,0-2.617,1.174-2.617,2.617l0,0v5.388c0,1.441,1.174,2.617,2.617,2.617h5.388
	C69.357,76.119,70.531,74.943,70.531,73.502z M46.349,68.114v5.388c0,1.443,1.174,2.617,2.617,2.617h5.388
	c1.444,0,2.618-1.174,2.618-2.617v-5.388c0-1.443-1.175-2.617-2.618-2.617h-5.388C47.523,65.497,46.349,66.671,46.349,68.114z
	 M46.349,81.949v5.387c0,1.443,1.174,2.617,2.617,2.617h5.388c1.444,0,2.618-1.174,2.618-2.617v-5.387
	c0-1.443-1.175-2.618-2.618-2.618h-5.388C47.523,79.331,46.349,80.506,46.349,81.949z M46.349,95.783v5.388
	c0,1.442,1.174,2.617,2.617,2.617h5.388c1.444,0,2.618-1.175,2.618-2.617v-5.388c0-1.443-1.175-2.617-2.618-2.617h-5.388
	C47.523,93.166,46.349,94.34,46.349,95.783z M102.719,36.645c0-3.09-2.514-5.604-5.604-5.604H46.885
	c-3.091,0-5.604,2.513-5.604,5.604v52.203c0,0.646,0.521,1.166,1.166,1.166c0.644,0,1.166-0.521,1.166-1.166V36.645
	c0-1.804,1.468-3.273,3.273-3.273h50.23c1.805,0,3.273,1.468,3.273,3.273v11.568c0,0.644,0.521,1.166,1.166,1.166
	c0.643,0,1.165-0.522,1.163-1.166L102.719,36.645L102.719,36.645z M48.967,73.787h5.388c0.157,0,0.286-0.128,0.286-0.285v-5.388
	c0-0.157-0.128-0.286-0.286-0.286h-5.388c-0.157,0-0.286,0.129-0.286,0.286v5.388C48.681,73.659,48.81,73.787,48.967,73.787z"/>
</svg>
