<?xml version="1.0" encoding="utf-8"?>
<!-- Generator: Adobe Illustrator 16.0.0, SVG Export Plug-In . SVG Version: 6.00 Build 0)  -->
<!DOCTYPE svg PUBLIC "-//W3C//DTD SVG 1.1//EN" "http://www.w3.org/Graphics/SVG/1.1/DTD/svg11.dtd">
<svg version="1.1" id="Layer_1" xmlns="http://www.w3.org/2000/svg" xmlns:xlink="http://www.w3.org/1999/xlink" x="0px" y="0px"
	 width="144px" height="144px" viewBox="-1.5 -2.014 144 144" enable-background="new -1.5 -2.014 144 144" xml:space="preserve">
<path fill="#2AADD0" d="M39.833,61.236h61.333v-8H39.833V61.236z M95.834,55.903H98.5v2.666h-2.666V55.903z M90.5,55.903h2.666
	v2.666H90.5V55.903z M50.5,55.903h5.333v2.666H50.5V55.903z M42.5,55.903h5.333v2.666H42.5V55.903z M33.167,39.903h74.667v-8H33.167
	V39.903z M102.5,34.569h2.666v2.667H102.5V34.569z M97.166,34.569h2.668v2.667h-2.668V34.569z M43.833,34.569h5.333v2.667h-5.333
	V34.569z M35.833,34.569h5.333v2.667h-5.333V34.569z M39.833,106.568h61.333V63.903H39.833V106.568z M58.167,99.902H55.5v-2.666
	h2.667V99.902z M85.5,99.902h-2.666v-2.666H85.5V99.902z M93.5,97.236h2.666v2.666H93.5V97.236z M88.166,97.236h2.668v2.666h-2.668
	V97.236z M63,86.236h21c0.828,0,1.5,0.672,1.5,1.5s-0.672,1.5-1.5,1.5H63c-0.829,0-1.5-0.672-1.5-1.5S62.171,86.236,63,86.236z
	 M51.439,73.518c-0.586-0.585-0.586-1.535,0-2.121c0.585-0.586,1.536-0.586,2.121,0l7.778,7.779c0.586,0.586,0.586,1.535,0,2.121
	l-7.778,7.777c-0.585,0.586-1.536,0.586-2.121,0c-0.586-0.586-0.586-1.535,0-2.121l6.717-6.717L51.439,73.518z M50.167,97.236h2.667
	v2.666h-2.667V97.236z M44.833,97.236H47.5v2.666h-2.667V97.236z M70.5-2.014c-39.764,0-72,32.235-72,72c0,39.764,32.236,72,72,72
	c39.764,0,72-32.236,72-72C142.5,30.221,110.264-2.014,70.5-2.014z M110.5,91.902c0,0.801-0.533,1.334-1.334,1.334h-5.332v14.666
	c0,0.801-0.534,1.334-1.334,1.334h-64c-0.8,0-1.333-0.533-1.333-1.334V93.236h-5.333c-0.8,0-1.333-0.533-1.333-1.334V30.569
	c0-0.8,0.533-1.333,1.333-1.333h77.333c0.801,0,1.334,0.533,1.334,1.333V91.902z M33.167,42.569h74.667v48h-4V51.903
	c0-0.801-0.534-1.334-1.334-1.334h-64c-0.8,0-1.333,0.533-1.333,1.334v38.666h-4V42.569z"/>
</svg>
