<?xml version="1.0" encoding="utf-8"?>
<!-- Generator: Adobe Illustrator 16.0.0, SVG Export Plug-In . SVG Version: 6.00 Build 0)  -->
<!DOCTYPE svg PUBLIC "-//W3C//DTD SVG 1.1//EN" "http://www.w3.org/Graphics/SVG/1.1/DTD/svg11.dtd">
<svg version="1.1" id="Layer_1" xmlns="http://www.w3.org/2000/svg" xmlns:xlink="http://www.w3.org/1999/xlink" x="0px" y="0px"
	 width="144px" height="144px" viewBox="-1.5 -2.014 144 144" enable-background="new -1.5 -2.014 144 144" xml:space="preserve">
<path fill="#25A9D1" d="M85.342,37.495h-7.298l0.107-2.268h7.083L85.342,37.495z M69.282,101.418h-9.797V77.951l9.797-6.459v1.777
	v4.854V101.418z M67.689,87.246c0-0.715-0.579-1.293-1.294-1.293h-4.023c-0.715,0-1.293,0.578-1.293,1.293s0.578,1.293,1.293,1.293
	h4.023C67.11,88.539,67.689,87.961,67.689,87.246z M67.689,83.039c0-0.715-0.579-1.293-1.294-1.293h-4.023
	c-0.715,0-1.293,0.578-1.293,1.293s0.578,1.293,1.293,1.293h4.023C67.11,84.332,67.689,83.754,67.689,83.039z M44.516,101.418H34.72
	V77.951l9.796-6.459v5.762V101.418z M42.924,87.246c0-0.715-0.579-1.293-1.293-1.293h-4.024c-0.715,0-1.293,0.578-1.293,1.293
	s0.579,1.293,1.293,1.293h4.024C42.345,88.539,42.924,87.961,42.924,87.246z M42.924,83.039c0-0.715-0.579-1.293-1.293-1.293h-4.024
	c-0.715,0-1.293,0.578-1.293,1.293s0.579,1.293,1.293,1.293h4.024C42.345,84.332,42.924,83.754,42.924,83.039z M56.899,101.418
	h-9.796V77.951l9.796-6.459v5.762V101.418z M55.307,87.246c0-0.715-0.579-1.293-1.293-1.293h-4.024
	c-0.714,0-1.293,0.578-1.293,1.293s0.579,1.293,1.293,1.293h4.024C54.728,88.539,55.307,87.961,55.307,87.246z M55.307,83.039
	c0-0.715-0.579-1.293-1.293-1.293h-4.024c-0.714,0-1.293,0.578-1.293,1.293s0.579,1.293,1.293,1.293h4.024
	C54.728,84.332,55.307,83.754,55.307,83.039z M84.964,29.527h-6.543l-0.147,3.113h6.839L84.964,29.527z M102.413,56.407H95.87
	l-0.147,3.113h6.839L102.413,56.407z M102.684,62.107h-7.083l-0.107,2.268h7.298L102.684,62.107z M108.271,104.006h-0.34H70.575
	H58.192H45.81H33.427H33.26c-0.479,0-0.868,0.389-0.868,0.867v5.531c0,0.479,0.389,0.869,0.868,0.869h75.01
	c0.479,0,0.868-5.391,0.868-5.869v-0.531C109.138,104.395,108.749,104.006,108.271,104.006z M103.138,71.695l-0.225-4.734H95.37
	l-0.238,5.016h8.052C103.159,71.885,103.143,71.791,103.138,71.695z M85.465,40.082h-7.544l-1.512,31.895h10.567L85.465,40.082z
	 M101.779,91.711h-6.581v4.791h6.581V91.711z M86.032,89.125h6.58v-4.793h-6.58V89.125z M86.031,96.502h6.581v-4.791h-6.581V96.502z
	 M109.138,75.432v0.531c0,0.479-0.389,0.867-0.868,0.867h-0.339h-9.457c-0.715,0-1.293,0.578-1.293,1.293s0.578,1.293,1.293,1.293
	h8.164v22.002H71.869V79.416h22.179c0.714,0,1.293-0.578,1.293-1.293s-0.579-1.293-1.293-1.293H71.869v-2.268h3.184h13.28h4.169
	h13.28h2.487C108.749,74.563,109.138,74.953,109.138,75.432z M93.905,81.746h-9.168h-9.168c-0.714,0-1.293,0.578-1.293,1.293v7.379
	v7.379c0,0.715,0.579,1.293,1.293,1.293h9.168h9.168h9.168c0.714,0,1.293-0.578,1.293-1.293v-7.379v-7.379
	c0-0.715-0.579-1.293-1.293-1.293H93.905z M76.864,96.502h6.58v-4.791h-6.58V96.502z M101.779,84.332h-6.581v4.793h6.581V84.332z
	 M142.5,69.986c0,39.764-32.236,72-72,72c-39.764,0-72-32.236-72-72c0-39.766,32.236-72,72-72
	C110.264-2.014,142.5,30.221,142.5,69.986z M92.504,44.192c0,0.169,0.014,0.338,0.038,0.506c0.008,0.054,0.023,0.104,0.033,0.158
	c0.023,0.117,0.047,0.234,0.081,0.35c0.006,0.02,0.015,0.037,0.021,0.057c0.288,0.911,0.946,1.762,1.984,2.386
	c0,0.252,0.028,0.497,0.07,0.737c0.008,0.053,0.016,0.105,0.025,0.157c0.044,0.208,0.104,0.409,0.176,0.605
	c0.029,0.08,0.061,0.159,0.094,0.237c0.074,0.174,0.156,0.344,0.25,0.507c0.057,0.098,0.121,0.192,0.184,0.288
	c0.046,0.067,0.094,0.133,0.143,0.197c0.07,0.098,0.131,0.2,0.21,0.295c0.021,0.02,0.045,0.027,0.065,0.046
	c0.072,0.082,0.145,0.164,0.223,0.241c0.144,0.145,0.432,0.288,0.719,0.288s0.575,0,0.719-0.288
	c0.377-0.377,0.404-0.964,0.123-1.397c-0.033-0.109-0.067-0.22-0.123-0.33c-0.432-0.432-0.574-1.008-0.574-1.729
	c0-0.144,0-0.144,0-0.287c0-0.433-0.145-0.864-0.576-1.152c-1.007-0.576-1.727-1.296-1.727-1.872c0-0.72,0.72-1.44,1.727-2.016
	c0.432-0.288,0.719-0.721,0.576-1.296c-0.145-0.288-0.145-0.576-0.145-0.721c0-1.391,1.076-2.502,2.445-2.577
	c1.369,0.075,2.445,1.187,2.445,2.577c0,0.145,0,0.433-0.145,0.721c-0.143,0.575,0.145,1.008,0.576,1.296
	c1.007,0.575,1.727,1.296,1.727,2.016c0,0.576-0.72,1.296-1.727,1.872c-0.432,0.288-0.576,0.72-0.576,1.152c0,0.144,0,0.144,0,0.287
	c0,0.721-0.143,1.297-0.574,1.729c-0.056,0.11-0.09,0.221-0.123,0.33c-0.281,0.434-0.254,1.021,0.123,1.397
	c0.144,0.288,0.432,0.288,0.719,0.288s0.575-0.144,0.719-0.288c0.078-0.077,0.15-0.159,0.223-0.241
	c0.021-0.019,0.045-0.026,0.065-0.046c0.079-0.095,0.14-0.197,0.21-0.295c0.049-0.064,0.097-0.13,0.143-0.197
	c0.063-0.096,0.127-0.19,0.184-0.288c0.094-0.163,0.176-0.333,0.25-0.507c0.033-0.078,0.064-0.157,0.094-0.237
	c0.072-0.196,0.132-0.397,0.176-0.605c0.01-0.052,0.018-0.104,0.025-0.157c0.042-0.24,0.07-0.485,0.07-0.737
	c1.038-0.624,1.696-1.475,1.984-2.386c0.006-0.02,0.015-0.037,0.021-0.057c0.034-0.115,0.058-0.232,0.081-0.35
	c0.01-0.054,0.025-0.104,0.033-0.158c0.024-0.168,0.038-0.337,0.038-0.506c0-0.475-0.103-0.915-0.279-1.327
	c-0.022-0.056-0.044-0.111-0.067-0.166c-0.002-0.003-0.003-0.006-0.005-0.009c-0.331-0.746-0.851-1.43-1.374-1.954
	c0-0.144,0-0.288,0-0.432c0-2.592-2.158-4.752-4.748-4.752c-0.096,0-0.191,0.009-0.287,0.015c-0.096-0.006-0.191-0.015-0.287-0.015
	c-2.59,0-4.748,2.16-4.748,4.752c0,0.144,0,0.288,0,0.432c-0.523,0.524-1.043,1.208-1.374,1.954
	c-0.002,0.003-0.003,0.006-0.005,0.009c-0.023,0.055-0.045,0.11-0.067,0.166C92.606,43.277,92.504,43.718,92.504,44.192z
	 M111.725,75.43c0-1.904-1.55-3.453-3.455-3.453h-2.593c0.035-0.129,0.052-0.264,0.045-0.404l-0.275-5.833
	c0.002-0.044,0.002-0.089,0-0.133l-0.233-4.854c-0.001-0.025-0.005-0.05-0.007-0.075l-0.203-4.27h0.352
	c0.715,0,1.293-0.579,1.293-1.293c0-0.715-0.578-1.294-1.293-1.294h-1.707h-9.011H92.93c-0.714,0-1.294,0.579-1.294,1.294
	c0,0.714,0.58,1.293,1.294,1.293h0.351l-0.201,4.271c-0.003,0.024-0.007,0.049-0.008,0.074l-0.232,4.854
	c-0.003,0.044-0.002,0.089,0,0.133l-0.296,6.237h-2.977l-1.569-33.118c0.002-0.044,0.002-0.088,0-0.132l-0.232-4.854
	c-0.002-0.025-0.006-0.05-0.008-0.075l-0.203-4.27h0.352c0.715,0,1.293-0.579,1.293-1.293c0-0.715-0.578-1.294-1.293-1.294h-1.707
	h-9.011H75.48c-0.714,0-1.294,0.579-1.294,1.293c0,0.715,0.58,1.294,1.294,1.294h0.351l-0.201,4.271
	c-0.003,0.024-0.007,0.049-0.008,0.074l-0.232,4.854c-0.003,0.044-0.002,0.088,0,0.132l-1.57,33.118H71.87V69.09
	c0-0.475-0.262-0.912-0.681-1.139c-0.419-0.225-0.928-0.203-1.325,0.059l-10.378,6.842V69.09c0-0.475-0.261-0.912-0.681-1.139
	c-0.418-0.225-0.927-0.203-1.324,0.059l-10.378,6.842V69.09c0-0.475-0.261-0.912-0.68-1.139c-0.419-0.225-0.928-0.203-1.325,0.059
	l-12.383,8.164c-0.363,0.238-0.582,0.645-0.582,1.08v24.357c-1.354,0.469-2.329,1.752-2.329,3.262v5.531
	c0,1.906,1.55,3.455,3.455,3.455h75.01c1.905,0,3.455-1.549,3.455-3.455v-5.531c0-1.572-1.059-2.9-2.5-3.316V79.279
	c1.441-0.416,2.5-1.744,2.5-3.318V75.43z M76.864,89.125h6.58v-4.793h-6.58V89.125z"/>
</svg>
