<?xml version="1.0" encoding="UTF-8"?>
<svg width="208px" height="32px" viewBox="0 0 208 32" version="1.1" xmlns="http://www.w3.org/2000/svg" xmlns:xlink="http://www.w3.org/1999/xlink">
    <!-- Generator: Sketch 45.2 (43514) - http://www.bohemiancoding.com/sketch -->
    <title>Group 14</title>
    <desc>Created with Sketch.</desc>
    <defs></defs>
    <g id="Web-iteration-03" stroke="none" stroke-width="1" fill="none" fill-rule="evenodd">
        <g id="[autoentry]hp_iteration01" transform="translate(-20.000000, -21.000000)">
            <g id="Group-14" transform="translate(20.000000, 21.000000)">
                <path d="M24.0412196,20.0764029 C20.9340969,20.0764029 18.4135513,17.5539293 18.4135513,14.4439148 C18.4135513,11.3331773 20.9340969,8.81359558 24.0412196,8.81359558 C27.1495471,8.81359558 29.6705748,11.3331773 29.6705748,14.4439148 C29.6705748,17.5539293 27.1495471,20.0764029 24.0412196,20.0764029 M24.0641139,0 C11.753951,0 0,14.7740752 0,14.7740752 C0,14.7740752 11.791064,28.7899864 24.0641139,28.7899864 C25.5360991,28.7899864 27.0042283,28.5868293 28.4417515,28.2325696 L26.7282914,25.7970945 C25.848426,25.9578368 24.955547,26.0412204 24.0641139,26.0412204 C13.8573378,26.0412204 4.05061015,14.7025003 4.05061015,14.7025003 C4.05061015,14.7025003 13.8289007,2.74539213 24.0641139,2.74539213 C34.2957122,2.74539213 44.0725568,14.7396132 44.0725568,14.7396132 C44.0725568,14.7396132 39.1616016,20.3964416 32.6764803,23.7074443 L30.2499219,20.2569067 C32.9451875,17.3837882 33.3481278,12.923731 30.9965182,9.57007257 C28.3010116,5.73442816 23.0015758,4.81166601 19.1656904,7.50403968 C15.3273951,10.2012332 14.402464,15.4989821 17.0967656,19.3326985 C19.4515081,22.686839 23.785767,23.8146861 27.4066866,22.2595584 L27.4112655,22.2595584 L31.0468857,27.4252431 C40.4511551,23.9067455 48.121721,14.8227558 48.121721,14.8227558 C48.121721,14.8227558 36.3680109,0 24.0641139,0" id="Fill-1" fill="#EB2150"></path>
                <path d="M76.899007,19.5665099 L76.899007,8.28611013 L80.9619078,8.28611013 L80.9619078,18.3579301 C80.9619078,21.110311 82.3379778,22.6900201 84.7573064,22.6900201 C87.10747,22.6900201 88.7520062,21.0452429 88.7520062,18.29238 L88.7520062,8.28611013 L92.814907,8.28611013 L92.814907,26.0145183 L88.7520062,26.0145183 L88.7520062,23.2602095 C87.6118683,24.9392076 85.9649223,26.3846836 83.2096494,26.3846836 C79.2173596,26.3846836 76.899007,23.6976117 76.899007,19.5665099 Z M97.5156921,21.1103833 L97.5156921,11.7776888 L93.8294634,11.7776888 L95.2674685,8.28618242 L97.5156921,8.28618242 L97.5156921,3.41812405 L101.577147,3.41812405 L101.577147,8.28618242 L106.347362,8.28618242 L106.347362,11.7776888 L101.577147,11.7776888 L101.577147,20.4729569 C101.577147,22.0526659 102.383268,22.6900924 103.760784,22.6900924 C104.665954,22.6900924 105.472076,22.4888632 106.280848,22.0878509 L106.280848,25.4084933 C105.270846,25.9808516 104.127094,26.3143859 102.61896,26.3143859 C99.6299236,26.3143859 97.5156921,25.005794 97.5156921,21.1103833 Z M107.034987,17.2518687 L107.034987,17.1836677 C107.034987,12.1141392 111.066077,7.91676427 116.50553,7.91676427 C121.942091,7.91676427 125.939441,12.0483481 125.939441,17.1171536 L125.939441,17.1836677 C125.939441,22.2216261 121.910521,26.417314 116.436124,26.417314 C111.031374,26.417314 107.034987,22.2866942 107.034987,17.2518687 Z M121.875095,17.2518687 L121.875095,17.1836677 C121.875095,14.0620855 119.627353,11.4767127 116.436124,11.4767127 C113.18055,11.4767127 111.097888,14.0283465 111.097888,17.1171536 L111.097888,17.1836677 C111.097888,20.2734388 113.346594,22.8913456 116.50553,22.8913456 C119.796048,22.8913456 121.875095,20.3045269 121.875095,17.2518687 Z M76.1940784,26.1455221 L71.8313824,26.1455221 L69.4939914,20.6246138 L61.7624543,20.6246138 L63.2744443,16.9624843 L67.9359717,16.9624843 L63.9415129,7.56303476 L56.0567043,26.1455221 L51.8287233,26.1455221 L62.0976755,2.62749836 L65.9248852,2.62749836 L76.1940784,26.1455221 Z M132.263411,6.32298124 L132.263411,12.4338405 L132.263411,12.4413112 L140.88373,12.4413112 L139.371258,16.1031997 L132.263411,16.1031997 L132.263411,16.126335 L132.263411,22.4381824 L143.333183,22.4381824 L141.810589,26.1330869 L128.133996,26.1330869 L128.133996,2.6295227 L143.368609,2.6295227 L141.841918,6.32298124 L132.263411,6.32298124 Z M165.304971,21.1103833 L165.304971,11.7776888 L161.619466,11.7776888 L163.05723,8.28618242 L165.304971,8.28618242 L165.304971,3.41812405 L169.368836,3.41812405 L169.368836,8.28618242 L174.132786,8.28618242 L174.132786,11.7776888 L169.368836,11.7776888 L169.368836,20.4729569 C169.368836,22.0526659 170.174958,22.6900924 171.550064,22.6900924 C172.458125,22.6900924 173.264247,22.4888632 174.068681,22.0878509 L174.068681,25.4084933 C173.060126,25.9808516 171.91806,26.3143859 170.407998,26.3143859 C167.419685,26.3143859 165.304971,25.005794 165.304971,21.1103833 Z M145.042136,8.40438949 L149.104555,8.40438949 L149.104555,11.1570114 C150.246139,9.47825424 151.890434,8.03446525 154.645948,8.03446525 C158.639202,8.03446525 160.955144,10.7220191 160.955144,14.8516749 L160.955144,26.1330387 L156.894894,26.1330387 L156.894894,16.0604957 C156.894894,13.3069099 155.518583,11.7288878 153.098291,11.7288878 C150.748368,11.7288878 149.104555,13.3734239 149.104555,16.1262868 L149.104555,26.1330387 L145.042136,26.1330387 L145.042136,8.40438949 Z M176.280346,8.40438949 L180.344211,8.40438949 L180.344211,12.3983663 C181.452297,9.74696142 183.497122,7.93541713 186.622078,8.06940923 L188.411692,12.3530596 C188.411692,12.3530596 188.14419,12.2624462 186.454347,12.271122 C182.855599,12.2928114 180.344211,14.6829798 180.344211,19.3828251 L180.344211,26.1330387 L176.280346,26.1330387 L176.280346,8.40438949 Z M190.029599,30.5308233 L191.404946,27.5080483 C192.144312,27.9109886 192.948265,28.1804187 193.787644,28.1804187 C194.929709,28.1804187 195.634373,27.6767434 196.306743,26.1331833 L203.000805,8.06304702 L207.22975,8.06304702 L200.068162,26.6363766 C198.656666,30.2625981 197.081054,31.6046881 194.225769,31.6046881 C192.513032,31.6046881 191.271677,31.2034348 190.029599,30.5308233 Z M193.09086,8.06292652 L197.160268,18.531421 L195.237144,23.5180479 L188.760698,8.06292652 L193.09086,8.06292652 Z" id="Combined-Shape" fill="#071D49"></path>
            </g>
        </g>
    </g>
</svg>