<?xml version="1.0" encoding="utf-8"?>
<!-- Generator: Adobe Illustrator 16.0.0, SVG Export Plug-In . SVG Version: 6.00 Build 0)  -->
<!DOCTYPE svg PUBLIC "-//W3C//DTD SVG 1.1//EN" "http://www.w3.org/Graphics/SVG/1.1/DTD/svg11.dtd">
<svg version="1.1" id="Layer_1" xmlns="http://www.w3.org/2000/svg" xmlns:xlink="http://www.w3.org/1999/xlink" x="0px" y="0px"
	 width="108px" height="105px" viewBox="0 0 108 105" enable-background="new 0 0 108 105" xml:space="preserve">
<linearGradient id="SVGID_1_" gradientUnits="userSpaceOnUse" x1="-979.0098" y1="741.1025" x2="-888.9902" y2="741.1025" gradientTransform="matrix(1 0 0 1 988 -688.6016)">
	<stop  offset="0" style="stop-color:#4CC3CA"/>
	<stop  offset="1" style="stop-color:#1AA0D3"/>
</linearGradient>
<path fill="url(#SVGID_1_)" d="M99.01,19.494V7.492H8.99v12.002h3.002v60.012h-1.5c-0.83,0-1.502,0.671-1.502,1.5
	c0,0.83,0.672,1.501,1.502,1.501h1.5H52.5v3c0,0.071,0.031,0.133,0.041,0.201C49.937,86.363,48,88.703,48,91.509
	c0,3.312,2.691,6.001,6,6.001c3.311,0,6.002-2.689,6.002-6.001c0-2.806-1.938-5.146-4.543-5.801c0.012-0.068,0.041-0.13,0.041-0.201
	v-3h40.51h1.5c0.83,0,1.5-0.671,1.5-1.501c0-0.829-0.67-1.5-1.5-1.5h-1.5V19.494H99.01z M57,91.508c0,1.654-1.346,3-3,3
	c-1.652,0-3-1.346-3-3s1.348-3.001,3-3.001C55.654,88.507,57,89.852,57,91.508z M11.992,10.492H96.01v6.001H11.992V10.492z
	 M93.01,79.505H14.992V19.493H93.01V79.505z M23.994,72.004h12.002c0.83,0,1.5-0.671,1.5-1.501c0-0.829-0.67-1.5-1.5-1.5H23.994
	c-0.83,0-1.5,0.671-1.5,1.5C22.494,71.333,23.164,72.004,23.994,72.004z M42.434,69.438c-0.271,0.282-0.436,0.675-0.436,1.063
	c0,0.404,0.162,0.779,0.436,1.064c0.283,0.271,0.674,0.437,1.064,0.437c0.39,0,0.779-0.165,1.063-0.437
	c0.271-0.285,0.437-0.676,0.437-1.064s-0.166-0.781-0.437-1.063C44.01,68.883,42.988,68.883,42.434,69.438z M38.998,64.502h4.5
	c0.83,0,1.5-0.671,1.5-1.5c0-0.83-0.67-1.501-1.5-1.501h-4.5c-0.83,0-1.502,0.671-1.502,1.501S38.168,64.502,38.998,64.502z
	 M23.994,64.502h3c0.83,0,1.5-0.671,1.5-1.5c0-0.83-0.67-1.501-1.5-1.501h-3c-0.83,0-1.5,0.671-1.5,1.501
	S23.164,64.502,23.994,64.502z M31.932,61.936c-0.271,0.284-0.436,0.659-0.436,1.065c0,0.39,0.162,0.78,0.436,1.065
	c0.283,0.281,0.674,0.435,1.064,0.435c0.39,0,0.779-0.165,1.063-0.435c0.271-0.285,0.437-0.678,0.437-1.065
	c0-0.392-0.166-0.781-0.437-1.065C33.508,61.382,32.5,61.382,31.932,61.936z M61.504,64.502v-3.001V35.997H49.5v25.504v3.001v7.502
	h12.004V64.502z M52.5,38.998h6.002v22.503H52.5V38.998z M58.502,69.003H52.5v-4.501h6.002V69.003z M75.006,64.502v-3.001V46.499
	H63.004v15.002v3.001v7.502h12.002V64.502z M66.004,49.499h6.002v12.002h-6.002V49.499z M72.006,69.003h-6.002v-4.501h6.002V69.003z
	 M88.508,64.502v-3.001V26.996H76.506v34.505v3.001v7.502h12.002V64.502z M79.506,29.996h6.002v31.505h-6.002V29.996z
	 M85.508,69.003h-6.002v-4.501h6.002V69.003z M37.934,30.66c-1.916-1.403-3.969-2.292-6.432-2.601v-2.053h-2.977v1.983
	c-4.275,0.377-7.185,2.874-7.185,6.534v0.068c0,3.865,2.323,5.713,7.317,7.014v6.737c-2.223-0.376-4.067-1.401-6.02-3.01
	l-2.189,3.146c2.293,1.847,5.099,3.044,8.072,3.386v3.42h2.977v-3.353c4.347-0.41,7.287-2.907,7.287-6.637v-0.065
	c0-3.66-2.225-5.714-7.424-7.014v-6.565c1.574,0.342,3.146,1.128,4.652,2.224L37.934,30.66z M34.754,45.47v0.068
	c0,1.643-1.197,2.703-3.389,2.941v-6.227C34,43.042,34.754,43.966,34.754,45.47z M25.381,34.32v-0.034
	c0-1.506,1.094-2.634,3.281-2.84v6.055C26.029,36.679,25.381,35.756,25.381,34.32z"/>
</svg>
