<?xml version="1.0" encoding="utf-8"?>
<!DOCTYPE svg PUBLIC "-//W3C//DTD SVG 1.1//EN" "http://www.w3.org/Graphics/SVG/1.1/DTD/svg11.dtd">

<svg version="1.1" id="Layer_1" xmlns="http://www.w3.org/2000/svg" xmlns:xlink="http://www.w3.org/1999/xlink" x="0px" y="0px"
	 width="66.268px" height="68.96px" viewBox="0 0 66.268 68.96" enable-background="new 0 0 66.268 68.96" xml:space="preserve">

<linearGradient id="SVGID_1_" gradientUnits="userSpaceOnUse" x1="-979.4871" y1="311.103" x2="-930.2454" y2="261.8612" gradientTransform="matrix(1 0 0 1 988 -252)">
	<stop  offset="0" style="stop-color:#4FC3CA"/>
	<stop  offset="1" style="stop-color:#1CA0D3"/>
</linearGradient>
<path class="logopath" fill="url(#SVGID_1_)" d="M41.637,52.369c0.037-0.031,0.074-0.064,0.111-0.099c0.391-0.354,0.727-0.771,0.992-1.229
	c0.436-0.754,0.686-1.627,0.686-2.562c0-2.826-2.293-5.119-5.119-5.119c-2.828,0-5.121,2.293-5.121,5.119
	c0,0.935,0.25,1.808,0.687,2.562c0.266,0.459,0.602,0.875,0.992,1.229c0.036,0.03,0.073,0.065,0.11,0.099
	c0.517,0.469,0.935,1.043,1.226,1.684c0.291,0.643,0.452,1.355,0.452,2.107s-0.161,1.467-0.452,2.106
	c-0.291,0.642-0.709,1.215-1.226,1.685c-0.037,0.032-0.074,0.065-0.11,0.1c-0.392,0.355-0.729,0.771-0.992,1.229
	c-0.437,0.754-0.687,1.629-0.687,2.561c0,2.828,2.293,5.121,5.121,5.121c2.826,0,5.119-2.293,5.119-5.121
	c0-0.932-0.25-1.807-0.686-2.561c-0.267-0.457-0.603-0.873-0.992-1.229c-0.037-0.031-0.074-0.066-0.111-0.1
	c-0.516-0.47-0.936-1.043-1.225-1.685c-0.291-0.644-0.453-1.354-0.453-2.106s0.162-1.466,0.453-2.107
	C40.703,53.412,41.121,52.837,41.637,52.369z M50.201,51.041c-0.935,0-1.808,0.25-2.562,0.686c-1.529,0.885-2.561,2.541-2.561,4.438
	c0,1.896,1.03,3.551,2.561,4.437c0.754,0.437,1.627,0.685,2.562,0.685c2.825,0,5.118-2.291,5.118-5.119
	C55.32,53.339,53.027,51.041,50.201,51.041z M24.629,9.009c-0.037-0.032-0.074-0.066-0.111-0.1c-0.391-0.355-0.727-0.771-0.992-1.23
	C23.09,6.926,22.84,6.052,22.84,5.12c0-2.827,2.293-5.12,5.119-5.12c2.828,0,5.121,2.292,5.121,5.12c0,0.933-0.25,1.807-0.687,2.56
	c-0.266,0.459-0.602,0.875-0.992,1.23c-0.036,0.034-0.073,0.067-0.11,0.1c-0.517,0.469-0.935,1.042-1.226,1.683
	c-0.291,0.642-0.453,1.355-0.453,2.107s0.162,1.466,0.453,2.107c0.291,0.642,0.709,1.214,1.226,1.683
	c0.037,0.034,0.074,0.067,0.11,0.099c0.392,0.355,0.728,0.771,0.992,1.23c0.437,0.753,0.687,1.627,0.687,2.56
	c0,2.827-2.293,5.12-5.121,5.12c-2.826,0-5.119-2.293-5.119-5.12c0-0.933,0.25-1.807,0.686-2.56c0.267-0.459,0.603-0.875,0.992-1.23
	c0.037-0.032,0.074-0.065,0.111-0.099c0.516-0.469,0.934-1.042,1.225-1.683c0.291-0.642,0.453-1.355,0.453-2.107
	c0-0.751-0.162-1.465-0.453-2.107S25.145,9.478,24.629,9.009z M16.066,7.68c0.933,0,1.808,0.25,2.56,0.685
	c1.531,0.885,2.561,2.541,2.561,4.435c0,1.895-1.028,3.551-2.561,4.435c-0.752,0.436-1.627,0.685-2.56,0.685
	c-2.828,0-5.121-2.293-5.121-5.12C10.945,9.973,13.238,7.68,16.066,7.68z M21.893,50.791c0.047,0.016,0.094,0.031,0.144,0.047
	c0.502,0.16,1.03,0.242,1.563,0.244c0.869,0,1.75-0.222,2.56-0.688c2.448-1.414,3.289-4.545,1.875-6.994
	c-1.414-2.448-4.546-3.289-6.994-1.875c-0.81,0.468-1.439,1.121-1.875,1.873c-0.267,0.461-0.457,0.959-0.57,1.476
	c-0.01,0.049-0.02,0.1-0.029,0.146c-0.147,0.684-0.436,1.33-0.846,1.902s-0.947,1.068-1.6,1.445
	c-0.65,0.375-1.351,0.592-2.052,0.659c-0.7,0.069-1.405-0.006-2.069-0.217c-0.047-0.019-0.097-0.031-0.142-0.05
	c-0.502-0.159-1.03-0.241-1.563-0.243c-0.871,0-1.752,0.222-2.562,0.688c-2.447,1.414-3.288,4.545-1.874,6.996
	c1.414,2.446,4.545,3.287,6.994,1.873c0.808-0.468,1.438-1.119,1.875-1.873c0.265-0.459,0.457-0.959,0.568-1.476
	c0.01-0.05,0.02-0.099,0.031-0.146c0.147-0.683,0.436-1.33,0.846-1.902c0.41-0.57,0.947-1.068,1.6-1.443
	c0.65-0.377,1.351-0.594,2.052-0.66C20.523,50.5,21.229,50.578,21.893,50.791z M27.326,57.541c-0.468-0.81-1.121-1.439-1.873-1.875
	c-1.531-0.883-3.48-0.945-5.121,0.002c-1.642,0.947-2.562,2.666-2.562,4.436c0,0.869,0.222,1.75,0.687,2.561
	c1.414,2.447,4.545,3.287,6.994,1.875C27.9,63.121,28.738,59.99,27.326,57.541z M50.939,14.379c0.009-0.047,0.019-0.098,0.029-0.146
	c0.111-0.516,0.305-1.015,0.568-1.474c0.436-0.754,1.067-1.407,1.875-1.873c2.448-1.414,5.582-0.574,6.994,1.874
	c1.413,2.448,0.575,5.581-1.873,6.994c-0.81,0.466-1.689,0.687-2.56,0.687c-0.531,0-1.061-0.083-1.563-0.244
	c-0.05-0.015-0.097-0.031-0.144-0.047c-0.664-0.211-1.369-0.289-2.069-0.218c-0.701,0.068-1.4,0.286-2.052,0.662
	c-0.649,0.375-1.188,0.873-1.6,1.446c-0.41,0.571-0.695,1.221-0.846,1.901c-0.011,0.049-0.021,0.099-0.029,0.146
	c-0.111,0.516-0.305,1.015-0.568,1.475c-0.436,0.753-1.067,1.406-1.875,1.873c-2.449,1.414-5.58,0.574-6.994-1.875
	c-1.414-2.449-0.575-5.58,1.873-6.994c0.81-0.466,1.689-0.687,2.56-0.687c0.531,0,1.061,0.083,1.563,0.244
	c0.047,0.016,0.095,0.032,0.144,0.047c0.664,0.212,1.369,0.289,2.069,0.219c0.701-0.069,1.398-0.286,2.052-0.662
	c0.649-0.376,1.188-0.873,1.598-1.446C50.504,15.709,50.791,15.06,50.939,14.379z M47.809,6.299c0.467,0.808,0.688,1.689,0.688,2.56
	c-0.002,1.767-0.92,3.487-2.562,4.435c-1.643,0.948-3.592,0.883-5.121,0c-0.754-0.435-1.405-1.067-1.873-1.875
	c-1.414-2.448-0.573-5.581,1.873-6.994C43.264,3.012,46.396,3.851,47.809,6.299z M52.877,36.06c-0.008-0.049-0.019-0.1-0.029-0.146
	c-0.111-0.517-0.305-1.015-0.567-1.474c-0.437-0.754-1.068-1.407-1.875-1.873c-2.449-1.414-5.58-0.575-6.994,1.874
	c-1.414,2.449-0.574,5.582,1.873,6.996c0.809,0.465,1.688,0.688,2.561,0.688c0.531,0,1.059-0.084,1.563-0.244
	c0.049-0.016,0.096-0.03,0.143-0.047c0.664-0.213,1.369-0.289,2.07-0.221s1.399,0.285,2.051,0.662s1.188,0.873,1.598,1.443
	c0.412,0.572,0.697,1.223,0.847,1.902c0.01,0.049,0.021,0.098,0.03,0.146c0.111,0.517,0.306,1.017,0.568,1.476
	c0.436,0.754,1.066,1.405,1.875,1.873c2.449,1.413,5.58,0.573,6.994-1.873c1.412-2.449,0.574-5.58-1.875-6.994
	c-0.81-0.467-1.689-0.688-2.562-0.688c-0.53,0-1.061,0.084-1.563,0.242c-0.047,0.018-0.094,0.033-0.144,0.049
	c-0.664,0.213-1.368,0.287-2.069,0.219s-1.398-0.285-2.052-0.66c-0.649-0.377-1.188-0.873-1.598-1.445
	C53.313,37.39,53.025,36.742,52.877,36.06z M56.008,27.979c-0.467,0.808-0.688,1.689-0.688,2.559
	c0.003,1.768,0.921,3.488,2.562,4.435c1.643,0.946,3.592,0.883,5.121,0c0.754-0.435,1.406-1.067,1.873-1.875
	c1.414-2.448,0.574-5.581-1.873-6.994S57.422,25.53,56.008,27.979z M6.822,29.109c-0.045,0.016-0.094,0.032-0.141,0.048
	C6.178,29.317,5.65,29.4,5.119,29.4c-0.869,0-1.75-0.221-2.56-0.687c-2.449-1.414-3.287-4.545-1.873-6.994
	c1.412-2.448,4.545-3.288,6.994-1.874c0.807,0.466,1.439,1.12,1.875,1.873c0.264,0.46,0.457,0.958,0.568,1.475
	c0.01,0.048,0.021,0.098,0.028,0.146c0.148,0.68,0.437,1.33,0.847,1.901c0.41,0.573,0.946,1.07,1.6,1.446s1.351,0.593,2.051,0.661
	c0.701,0.07,1.406-0.006,2.07-0.218c0.047-0.015,0.096-0.032,0.141-0.047c0.505-0.161,1.031-0.244,1.563-0.244
	c0.869,0,1.75,0.221,2.559,0.687c2.449,1.414,3.289,4.546,1.875,6.995c-1.414,2.448-4.545,3.288-6.993,1.874
	c-0.81-0.467-1.439-1.119-1.875-1.873c-0.267-0.46-0.46-0.958-0.57-1.474c-0.01-0.048-0.021-0.098-0.029-0.147
	c-0.147-0.68-0.436-1.33-0.846-1.901c-0.41-0.573-0.947-1.07-1.599-1.446s-1.35-0.592-2.051-0.661
	C8.191,28.821,7.486,28.897,6.822,29.109z M1.391,35.86c0.465-0.81,1.117-1.439,1.873-1.875c1.529-0.882,3.479-0.947,5.119,0
	c1.643,0.948,2.561,2.668,2.563,4.435c0,0.871-0.221,1.752-0.688,2.563c-1.414,2.445-4.547,3.287-6.994,1.875
	C0.816,41.44-0.023,38.31,1.391,35.86z"/>
</svg>
