<?xml version="1.0" encoding="utf-8"?>
<!-- Generator: Adobe Illustrator 27.5.0, SVG Export Plug-In . SVG Version: 6.00 Build 0)  -->
<svg version="1.1" id="Layer_1" xmlns="http://www.w3.org/2000/svg" xmlns:xlink="http://www.w3.org/1999/xlink" x="0px" y="0px"
	 viewBox="0 0 55 200" style="enable-background:new 0 0 55 200;" xml:space="preserve">
<style type="text/css">
	.st0{fill:#FFFFFF;}
</style>
<g>
	<g>
		<g>
			<g>
				<g>
					<g>
						<path class="st0" d="M52,65.5c1.1,0,2,0.9,2,2s-0.9,2-2,2s-2-0.9-2-2S50.9,65.5,52,65.5z M47.6,65.8v3.4H31v-3.4H47.6z"/>
						<path class="st0" d="M53.8,81.6c0,4.4-3,7.5-7.5,7.5c-4.4,0-7.5-3.1-7.5-7.6v-4.9H31v-3.5h22.8V81.6z M41.8,76.6v4.1
							c0,3.1,1.7,4.8,4.5,4.8c2.9,0,4.5-1.8,4.5-4.8v-4.1H41.8z"/>
						<path class="st0" d="M53.8,91.5v3.4h-8.9V95c1.9,0.9,3.1,2.7,3.1,5.3c0,3.6-2.4,5.8-6.2,5.8H31v-3.4h10c2.4,0,3.9-1.2,3.9-3.6
							c0-2.5-1.7-4.1-4.4-4.1H31v-3.4h22.8V91.5z"/>
						<path class="st0" d="M39.3,108.4c5.3,0,8.6,3.1,8.6,7.9s-3.3,7.9-8.6,7.9s-8.6-3.1-8.6-7.9S34,108.4,39.3,108.4z M39.3,120.7
							c3.7,0,5.8-1.7,5.8-4.4c0-2.7-2.1-4.4-5.8-4.4s-5.8,1.7-5.8,4.4S35.6,120.7,39.3,120.7z"/>
						<path class="st0" d="M47.6,126.7v3.3h-2.8v0.1c1.9,0.9,3.1,2.7,3.1,5.2c0,3.7-2.3,5.8-6.1,5.8H31v-3.4h10.1
							c2.5,0,3.9-1.2,3.9-3.5c0-2.4-1.7-3.9-4.3-3.9H31v-3.4h16.6V126.7z"/>
						<path class="st0" d="M35.9,158.4c-3-0.5-5.2-3.3-5.2-7.1c0-4.9,3.3-7.8,8.5-7.8s8.7,3,8.7,7.7c0,4.6-3.3,7.5-8.3,7.5h-1.2V147
							h-0.2c-2.9,0-4.8,1.7-4.8,4.5c0,1.9,1,3.4,2.4,3.8L35.9,158.4L35.9,158.4z M40.8,146.9v8.3c2.5-0.1,4.3-1.7,4.3-4.1
							C45.2,148.7,43.4,147,40.8,146.9z"/>
						<path class="st0" d="M35.5,186.8v-11.4h3.1c3.7,2,7.7,4.6,15.2,9.7v5.1H38.5v3.1h-3v-3.1H31v-3.4L35.5,186.8L35.5,186.8z
							 M38.5,178.7v8.1H51v-0.1C45.4,182.8,41.8,180.5,38.5,178.7L38.5,178.7z"/>
						<path class="st0" d="M24.1,74c0,4.4-3,7.5-7.5,7.5c-4.4,0-7.5-3.1-7.5-7.6V69H1.4v-3.5h22.8L24.1,74L24.1,74z M12.1,69v4.1
							c0,3.1,1.7,4.8,4.5,4.8c2.9,0,4.5-1.8,4.5-4.8V69H12.1z"/>
						<path class="st0" d="M18,84.2v3.3h-2.8v0.1c1.9,0.6,3.1,2,3.1,4c0,0.5-0.1,0.9-0.1,1.2H15c0.1-0.3,0.2-0.9,0.2-1.5
							c0-2.2-1.5-3.5-3.8-3.5h-10v-3.4H18V84.2z"/>
						<path class="st0" d="M9.7,93.4c5.3,0,8.6,3.1,8.6,7.9s-3.3,7.9-8.6,7.9s-8.6-3.1-8.6-7.9S4.3,93.4,9.7,93.4z M9.7,105.6
							c3.7,0,5.8-1.7,5.8-4.4c0-2.7-2.1-4.4-5.8-4.4s-5.8,1.7-5.8,4.4C3.9,103.9,6,105.6,9.7,105.6z"/>
						<path class="st0" d="M1.4,136.5h16.8v-0.1l-16.8-6.9v-2.6l16.8-6.9v-0.1H1.4v-3.2h22.8v4.1L6,128.1v0.1l18.1,7.4v4.1H1.4
							C1.4,139.7,1.4,136.5,1.4,136.5z"/>
						<path class="st0" d="M6.1,142.4c2.9,0,4.7,2.2,4.9,6.2l0.3,4.5h1.3c1.8,0,3-1.2,3-3.3c0-2-0.9-3.2-2.4-3.5v-3.2
							c3,0.2,5.2,2.7,5.2,6.8c0,4-2.1,6.6-5.5,6.6H1.4v-3.3h2.7v-0.1c-1.8-1-3-3.1-3-5.2C1.1,144.7,3.1,142.4,6.1,142.4z M7.6,153.1
							h1.3L8.6,149c-0.1-2-1-3.2-2.5-3.2s-2.4,1.2-2.4,3C3.8,151.2,5.4,153.1,7.6,153.1z"/>
						<path class="st0" d="M7.5,165.9l-6.1-3.7v-3.7l8.3,5.5l8.3-5.4v3.8l-6,3.6v0.1l6,3.6v3.8l-8.2-5.4l-8.4,5.4v-3.8L7.5,165.9
							L7.5,165.9z"/>
					</g>
				</g>
				<path class="st0" d="M41.2,39.9c0.3-4.4-2.4-8.1-2.4-10.1c0-2.1,2.4-5.3,2.3-8.7c-0.1-4.5-2.6-8.6-6.6-10.9
					C26.4,5.5,14.4,9,7.8,13.6C4.6,15.8,1,18.5,1.1,22c0.1,3.4,2.2,4.6,2.2,8.7c0,4-2.2,5.2-2.1,8.7c0.1,3.6,3.3,5.9,6.5,8.1
					c3.7,2.6,7.3,3.6,7.5,3.7c0-0.1,2.7-7,10.7-7.1c6.7-0.1,9.9,5.5,10.1,5.7C40.5,46.4,41,41.6,41.2,39.9z M45.5,37.2
					c2.2,1.8,5.3,3.1,8.4,2.8c-0.1-2.7-1.8-5.9-4-7.8c-2-1.7-5.1-3.2-8.2-2.8C41.5,32.3,43.3,35.3,45.5,37.2z"/>
			</g>
		</g>
	</g>
	<polygon class="st0" points="53.8,169.1 50.5,164.5 47.1,164.5 50.3,169.1 50.3,169.2 31,169.2 31,172.6 53.8,172.6 	"/>
</g>
</svg>
