<?xml version="1.0" encoding="utf-8"?>
<!-- Generator: Adobe Illustrator 27.5.0, SVG Export Plug-In . SVG Version: 6.00 Build 0)  -->
<svg version="1.1" id="Layer_1" xmlns="http://www.w3.org/2000/svg" xmlns:xlink="http://www.w3.org/1999/xlink" x="0px" y="0px"
	 viewBox="0 0 135 135" style="enable-background:new 0 0 135 135;" xml:space="preserve">
<style type="text/css">
	.st0{fill:url(#SVGID_1_);}
	.st1{fill:url(#SVGID_00000058563217516809083730000012403877052901393561_);}
	.st2{fill:url(#SVGID_00000076604324330153503340000011718762849144186498_);}
	.st3{fill-rule:evenodd;clip-rule:evenodd;fill:#FFFFFF;}
</style>
<radialGradient id="SVGID_1_" cx="67.5" cy="3651.5" r="62.7" gradientTransform="matrix(1 0 0 1 0 -3584)" gradientUnits="userSpaceOnUse">
	<stop  offset="0" style="stop-color:#632227"/>
	<stop  offset="1" style="stop-color:#632222;stop-opacity:0"/>
</radialGradient>
<path class="st0" d="M67.5,130.2c34.6,0,62.7-28.1,62.7-62.7S102.1,4.8,67.5,4.8C32.9,4.9,4.8,33,4.8,67.6S32.9,130.2,67.5,130.2z"
	/>
<radialGradient id="SVGID_00000169557655117708801460000004166592072883677059_" cx="67.5" cy="67.5" r="50" gradientUnits="userSpaceOnUse">
	<stop  offset="0" style="stop-color:#000000"/>
	<stop  offset="0.3081" style="stop-color:#030101"/>
	<stop  offset="0.4926" style="stop-color:#0B0404"/>
	<stop  offset="0.6446" style="stop-color:#19090A"/>
	<stop  offset="0.7788" style="stop-color:#2D1012"/>
	<stop  offset="0.9001" style="stop-color:#47181C"/>
	<stop  offset="1" style="stop-color:#632227"/>
</radialGradient>
<path style="fill:url(#SVGID_00000169557655117708801460000004166592072883677059_);" d="M117.5,67.5c0,27.6-22.4,50-50,50
	s-50-22.4-50-50l0,0c0-27.6,22.4-50,50-50S117.5,39.9,117.5,67.5z"/>
<radialGradient id="SVGID_00000176759493558540650010000006787644345230880701_" cx="67.5209" cy="443.4858" r="48.6921" gradientTransform="matrix(1 0 0 1 0 -376)" gradientUnits="userSpaceOnUse">
	<stop  offset="0" style="stop-color:#000000"/>
	<stop  offset="0.3081" style="stop-color:#030101"/>
	<stop  offset="0.4926" style="stop-color:#0B0404"/>
	<stop  offset="0.6446" style="stop-color:#19090A"/>
	<stop  offset="0.7788" style="stop-color:#2D1012"/>
	<stop  offset="0.9001" style="stop-color:#47181C"/>
	<stop  offset="1" style="stop-color:#632227"/>
</radialGradient>
<path style="fill:url(#SVGID_00000176759493558540650010000006787644345230880701_);" d="M86.1,112.5c24.8-10.3,36.7-38.8,26.4-63.6
	S73.7,12.2,48.9,22.5S12.3,61.3,22.5,86.1C32.8,111,61.2,122.7,86.1,112.5z"/>
<path class="st3" d="M59.1,66.2v21.2c0,0.5-0.1,0.7-0.6,0.7c-0.4,0-0.6-0.3-0.6-0.7v-2.8h-1c-0.7,0-3.2,1.9-4.8,3.1l0,0
	c-0.5,0.4-0.9,0.7-1.1,0.8c-1.7-1-3.8-2-5.4-2.5c-0.3,0.3-0.6,0.5-0.7,0.7l0,0l0,0l0,0c-0.5,0.5-0.8,0.8-1.1,1.1
	c-0.1,0.1-0.2,0.2-0.3,0.3c-0.2,0.3-0.4,0.4-0.5,0.4c-0.3,0-0.7-0.4-0.7-0.7s0.7-1,3.7-4c2.1-2.1,2.9-4.6,2.9-8.4
	c0-6.4-2.7-11.8-5.9-11.8c-1,0-1.6,0.4-1.8,1.5c-0.1,0.6-0.3,0.7-0.6,0.7c-0.5,0-0.7-0.7-0.7-2.1c0-2.9,2.1-5.2,4.6-5.2
	c1.2,0,2,0.5,2.6,0.9s1.1,0.7,1.7,0.7v-4.3c0-1.1-0.4-2.1-1.2-2.7c-0.7-0.6-4.3-3-5.7-3c-0.3,0-0.5,0.1-0.7,0.1
	c-0.1,0-0.3,0.1-0.4,0.1c-0.2,0-0.3-0.1-0.3-0.2c0-0.2,0.1-0.3,0.4-0.6l0,0l0.1-0.1l4.6-4.6l0.1-0.1c0.2-0.1,0.3-0.2,0.5-0.2
	c0.9,0,3.6,1.8,5.6,3.2c1.5,1,2.7,1.9,3,1.9c0.6,0,2.2-1,4-2.2c2.2-1.3,4.4-2.7,5.3-2.7c0.5,0,0.8,0.4,3.9,2.8l0,0
	c0.2,0.2,0.4,0.3,0.6,0.5c0.2,0.1,0.3,0.3,0.6,0.5l0,0c0.7,0.6,1.5,1.2,2.2,1.7c0.9,0.6,1,0.7,1,1.8c0.6-0.1,1.2-0.6,4.9-3.6
	c1-0.8,4.1-3.4,4.4-3.4s2.9,1,6.6,2.6c1.1,0.5,1.3,0.6,1.3,1.3v30.2c0,1,0.1,1.3,0.6,1.7c1.8,1.5,2.8,2.1,3.4,2.1
	c0.2,0,0.4-0.1,0.6-0.3c0.3-0.4,0.4-0.5,0.6-0.5s0.4,0.3,0.4,0.5c0,0.4-2.6,3.7-5.3,5.7c-1.6-0.6-4.5-2.5-6-4.1
	c-0.6-0.6-0.7-0.7-0.7-1.7V60.8c0-2.5,0.8-4.2,3.7-8.1c1.5-2,1.6-2.5,1.3-2.5c-0.2,0-1.5,0.9-2.6,1.8c-0.8,0.6-1.6,1.1-1.9,1.2
	c0.1-0.2,0-0.2-0.1-0.3c-2.9-1.7-3.8-2.2-5.4-2.2c-0.9,0-1.6,0.5-1.6,1v35.9c0,0.5-0.3,0.8-0.6,0.8c-0.3,0-0.5-0.3-0.5-0.7V85
	c-1.7,0.3-3.1,1.6-4,2.5c-0.5,0.5-0.9,0.8-1.1,0.8c-0.7,0-4.5-4.6-4.5-4.9V66.2H59.1z M58,51.3c0-1.2-0.1-1.6-0.4-1.6
	c-0.6,0-2.4,1.2-2.4,1.6v16.2c0,7.9-0.9,8.8-2.9,10.9l-0.1,0.1c-0.9,1-1.1,1.2-1.9,2.1c1.2,1.7,5.3,2.4,7.7,2.3L58,51.3L58,51.3z
	 M65.9,60.7h-6.8v-9.8c0-0.7,0.4-1.2,1-1.2c1.5,0,5.9,3.4,5.9,4.6L65.9,60.7L65.9,60.7z M75.6,52.4c0-0.1-0.1-0.2-0.3-0.2
	s-0.5,0.1-0.7,0.3l-1.3,0.8c-0.7,0.5-1,0.7-1,1v5.8c0,0.4,0.6,0.7,0.9,0.7h2.2L75.6,52.4L75.6,52.4z M73.3,66.1h2.2V83
	c-2.2-0.2-3.2-1.3-3.2-3.7v-12C72.4,66.6,72.6,66.1,73.3,66.1z"/>
</svg>
