<?xml version="1.0" encoding="utf-8"?>
<!-- Generator: Adobe Illustrator 16.0.0, SVG Export Plug-In . SVG Version: 6.00 Build 0)  -->
<!DOCTYPE svg PUBLIC "-//W3C//DTD SVG 1.1//EN" "http://www.w3.org/Graphics/SVG/1.1/DTD/svg11.dtd">
<svg version="1.1" id="Layer_1" xmlns="http://www.w3.org/2000/svg" xmlns:xlink="http://www.w3.org/1999/xlink" x="0px" y="0px"
	 width="144px" height="144px" viewBox="-1.5 -2.014 144 144" enable-background="new -1.5 -2.014 144 144" xml:space="preserve">
<path fill="#19A0D3" d="M55.702,42.834c3.764-6.53,8.607-10.349,13.754-10.899v19.844c-6.063-0.062-11.92-0.555-17.144-1.411
	C53.248,47.654,54.382,45.125,55.702,42.834z M54.619,87.863c-0.818,0.193-1.591,0.277-2.313,0.277c-1.902,0-3.459-0.57-4.586-1.186
	c-0.953-0.521-1.701-1.127-2.225-1.621c-1.48,1.191-2.899,1.703-3.856,1.923v0.249c0,3.586,2.914,6.502,6.496,6.502
	C51.595,94.008,54.433,91.283,54.619,87.863z M46.875,96.264v0.825l1.354,1.319l1.441-1.496v-0.707
	c-0.688,0.15-1.241,0.206-1.537,0.206C47.878,96.411,47.433,96.371,46.875,96.264z M54.629,84.938c0-3.586-2.914-6.502-6.496-6.502
	c-3.526,0-6.402,2.826-6.491,6.336c0.81-0.268,1.932-0.82,3.078-1.967c0.246-0.246,0.586-0.373,0.934-0.35
	c0.347,0.025,0.666,0.199,0.875,0.479c0.127,0.166,3.104,3.971,8.101,2.439V84.938z M48.133,73.299c-1.46,0-2.648,1.189-2.648,2.65
	c0,0.161,0.018,0.318,0.046,0.473c0.823-0.253,1.697-0.39,2.602-0.39c0.906,0,1.781,0.138,2.605,0.391
	c0.028-0.155,0.042-0.313,0.042-0.474C50.781,74.488,49.593,73.299,48.133,73.299z M69.457,67.041V54.366
	c-6.333-0.064-12.464-0.593-17.929-1.511c-1.429,4.946-2.23,10.409-2.336,16.088l14.502,0.013
	C65.321,67.781,67.309,67.077,69.457,67.041z M109.099,68.943c-0.235-7.021-2.381-13.759-6.128-19.547
	c-2.922,1.196-6.467,2.205-10.443,2.995c1.45,5.114,2.264,10.73,2.369,16.552H109.099z M92.001,96.418v0.671l1.354,1.319
	l1.441-1.496v-0.513c-0.492,0.107-0.977,0.163-1.436,0.163C92.926,96.563,92.468,96.514,92.001,96.418z M99.857,83.806
	c0-2.878-2.339-5.219-5.213-5.219h-2.565c-2.874,0-5.213,2.341-5.213,5.219v1.12c0.809-0.268,1.934-0.82,3.081-1.97
	c0.232-0.231,0.54-0.353,0.85-0.353c0.23,0,0.463,0.066,0.665,0.203c0.03,0.02,3.179,2.052,8.396,2.334V83.806z M85.798,42.834
	c-3.765-6.53-8.606-10.349-13.754-10.899v19.844c6.077-0.061,11.929-0.553,17.144-1.406C88.253,47.657,87.119,45.125,85.798,42.834z
	 M78.127,68.956l14.182-0.013c-0.105-5.678-0.907-11.139-2.335-16.085c-5.458,0.917-11.583,1.445-17.93,1.509v12.67h0.149
	C74.406,67.037,76.455,67.75,78.127,68.956z M98.574,88.941V87.45c-3.713-0.375-6.35-1.509-7.609-2.166
	c-0.996,0.851-1.976,1.385-2.816,1.721v1.937c0,2.879,2.339,5.219,5.213,5.219C96.236,94.16,98.574,91.819,98.574,88.941z
	 M89.414,95.396c-2.014-1.216-3.666-3.377-3.666-6.455v-1.368c-0.043,0.001-0.072,0.002-0.082,0.002
	c-0.662,0-1.199-0.538-1.199-1.202v-2.567c0-4.152,3.334-7.538,7.464-7.618c0.099-1.23,0.364-3.965,0.378-4.658H82.43v-0.013h-1.811
	c1.105,1.629,1.752,3.595,1.752,5.709v0.262c0,0.924-0.511,1.749-1.283,2.176v2.698c0,4.813-2.705,7.598-5.538,9.004v0.096
	c-0.013,0.006-0.024,0.014-0.037,0.021v1.326l6.69,2.684c0.876,0.303,2.087,0.998,3.16,2.146l4.051-1.587V95.396z M94.315,101.14
	c-0.238,0.248-0.566,0.391-0.911,0.396c-0.006,0-0.014,0-0.02,0c-0.338,0-0.661-0.131-0.902-0.367l-2.593-2.524l-3.021,1.183
	c0.57,1.172,0.943,2.59,0.943,4.277v4.506h0.357h1.158h1.38h6.617h7.306v-3.343c0-3.606-2.819-4.651-2.939-4.694
	c-0.023-0.008-0.036-0.013-0.059-0.021l-4.868-1.952L94.315,101.14z M142.75,70.236c0,39.764-32.236,72-72,72
	c-39.764,0-72-32.236-72-72c0-39.766,32.236-72,72-72C110.514-1.764,142.75,30.471,142.75,70.236z M101.227,97.6
	c6.768-7.529,10.483-17.199,10.483-27.363c0-8.315-2.514-16.316-7.095-23.042c-0.055-0.109-0.124-0.208-0.204-0.293
	c-2.007-2.892-4.396-5.544-7.136-7.876c-0.545-0.463-1.36-0.397-1.823,0.147c-0.463,0.544-0.397,1.361,0.147,1.824
	c2.198,1.87,4.156,3.961,5.854,6.224c-2.738,1.07-6.024,1.976-9.693,2.692c-1.013-3.018-2.258-5.831-3.721-8.37
	c-1.973-3.421-4.24-6.177-6.713-8.203c3.848,1.1,7.514,2.805,10.877,5.077C92.795,38.815,93.6,38.66,94,38.068
	c0.399-0.592,0.244-1.396-0.349-1.796c-6.774-4.577-14.693-6.996-22.901-6.996c-10.941,0-21.227,4.261-28.963,11.997
	C34.05,49.01,29.79,59.296,29.79,70.236c0,10.177,3.72,19.85,10.5,27.381l-1.329,0.521c-0.49,0.176-4.651,1.836-4.651,7.128v4.635
	c0,0.714,0.579,1.294,1.293,1.294h7.441h1.158h1.379H52.2h2.442c0.063,0,0.124-0.006,0.184-0.014
	c0.06,0.008,0.121,0.014,0.183,0.014h5.263c0.714,0,1.293-0.578,1.293-1.293s-0.579-1.293-1.293-1.293h-3.97v-4.506
	c0-4.752,3.733-6.119,3.884-6.172c0.02-0.007,0.04-0.014,0.06-0.021l6.299-2.467c0.013,0.014,0.026,0.029,0.041,0.043l3.348,3.262
	c0.242,0.234,0.566,0.366,0.902,0.366c0.007,0,0.014,0,0.021,0c0.344-0.005,0.672-0.147,0.911-0.396l3.214-3.336l6.291,2.523
	c0.023,0.009,0.037,0.015,0.061,0.021c0.16,0.057,3.893,1.424,3.893,6.176v4.506h-9.46H65.763h-1.448
	c-0.714,0-1.293,0.578-1.293,1.293s0.579,1.293,1.293,1.293h1.448h10.002h10.754h0.001h1.65h1.157h1.38h6.618h8.599
	c0.715,0,1.294-0.588,1.294-1.303v-4.626c0-5.271-4.13-6.939-4.646-7.126L101.227,97.6z M94.896,71.53
	c-0.013,0.691-0.277,3.421-0.375,4.654h0.123c4.197,0,7.613,3.42,7.613,7.622v2.567c0,0.664-0.538,1.202-1.201,1.202
	c-0.027,0-0.055-0.001-0.082-0.001v1.367c0,3.012-1.611,5.164-3.592,6.396v0.721l1.275,0.512
	c6.452-6.834,10.13-15.678,10.441-25.041H94.896z M53.461,41.542c1.968-3.415,4.232-6.166,6.699-8.192
	c-8.12,2.335-15.144,7.284-20.097,13.874c2.732,1.066,6.014,1.97,9.678,2.685C50.753,46.892,51.998,44.08,53.461,41.542z
	 M78.688,82.361V80.19c-3.31,0.398-8.747,0.331-12.474-3.399c-0.469-0.469-0.469-1.23,0-1.699c0.468-0.469,1.229-0.469,1.697,0
	c1.216,1.218,4.82,3.896,12.005,2.475c0.031-0.006,0.055-0.04,0.055-0.078v-0.263c0-4.294-3.489-7.786-7.778-7.786h-2.565
	c-4.289,0-7.778,3.492-7.778,7.786v2.376c0,0.057,0.012,0.092,0.02,0.109c0.007-0.001,0.018-0.002,0.032-0.006
	c0.582-0.152,1.182-0.512,1.782-1.066c0.487-0.449,1.246-0.418,1.696,0.068c0.45,0.488,0.419,1.248-0.068,1.698
	c-0.7,0.646-1.431,1.118-2.18,1.416v0.54c0,4.294,3.49,7.787,7.778,7.787C75.199,90.148,78.688,86.655,78.688,82.361z
	 M48.974,52.388c-3.973-0.789-7.519-1.794-10.434-2.985c-3.677,5.665-5.9,12.355-6.139,19.541h14.203
	C46.709,63.119,47.522,57.502,48.974,52.388z M44.288,96.052v-0.609c-2.433-1.108-5.05-3.396-5.05-7.937v-2.568
	c0-3.134,1.626-5.893,4.078-7.48c-0.151-0.484-0.23-0.989-0.23-1.508c0-1.899,1.053-3.556,2.605-4.419h-13.29
	c0.311,9.382,4,18.236,10.475,25.076L44.288,96.052z M72.83,92.323c-0.707,0.155-1.364,0.228-1.92,0.228
	c1.203,0-0.073,0.195-2.08-0.244v0.088c-0.016-0.004-0.032-0.006-0.048-0.008v1.627l2.025,1.973l2.119-2.199v-0.078
	c0-0.001,0-0.003,0-0.004v-1.318c-0.031,0.006-0.064,0.01-0.096,0.014V92.323z M66.194,91.482c-0.028-0.016-0.056-0.033-0.084-0.051
	v-0.043c-2.679-1.272-5.377-3.852-5.377-9.027v-0.53c-0.113-0.062-0.222-0.131-0.325-0.21c-0.608-0.472-0.958-1.207-0.958-2.02
	v-2.376c0-2.108,0.643-4.069,1.743-5.696H50.576c1.552,0.863,2.605,2.52,2.605,4.419c0,0.512-0.079,1.021-0.23,1.508
	c2.451,1.588,4.078,4.347,4.078,7.48v2.568c0,4.301-2.358,6.58-4.679,7.752v0.008c-0.031,0.02-0.062,0.039-0.093,0.059v0.734
	l3.915,1.57c1.074-1.145,2.283-1.838,3.158-2.139l6.865-2.688h0V91.482z M49.189,101.14c-0.238,0.248-0.566,0.391-0.911,0.396
	c-0.007,0-0.014,0-0.021,0c-0.337,0-0.661-0.131-0.902-0.367l-2.592-2.523l-4.878,1.91c-0.02,0.008-0.04,0.015-0.06,0.021
	c-0.11,0.039-2.929,1.084-2.929,4.69v3.343h6.147h1.158h1.38h6.618h1.516v-4.505c0-1.695,0.376-3.118,0.95-4.292l-3.027-1.214
	L49.189,101.14z"/>
</svg>
