<?xml version="1.0" encoding="utf-8"?>
<!-- Generator: Adobe Illustrator 16.0.0, SVG Export Plug-In . SVG Version: 6.00 Build 0)  -->
<!DOCTYPE svg PUBLIC "-//W3C//DTD SVG 1.1//EN" "http://www.w3.org/Graphics/SVG/1.1/DTD/svg11.dtd">
<svg version="1.1" id="Layer_1" xmlns="http://www.w3.org/2000/svg" xmlns:xlink="http://www.w3.org/1999/xlink" x="0px" y="0px"
	 width="144px" height="144px" viewBox="0 0 144 144" enable-background="new 0 0 144 144" xml:space="preserve">
<path fill="#47C1CB" d="M72-0.002c-39.76,0-72,32.24-72,72c0,39.77,32.24,72,72,72c39.77,0,72-32.23,72-72
	C144,32.238,111.77-0.002,72-0.002z M112.76,79.998c0,5.98-4.87,10.85-10.85,10.85h-0.93c-5.98,0-10.852-4.869-10.852-10.85v-1.189
	c0-0.029,0-0.061,0.01-0.08v-0.039c0-0.021,0.012-0.052,0.012-0.07c0-0.021,0-0.04,0.01-0.051c0-0.021,0.01-0.039,0.01-0.051
	c0.01-0.02,0.01-0.05,0.021-0.068c0.01-0.01,0.01-0.021,0.02-0.03c0-0.03,0.01-0.06,0.021-0.09c0.01,0,0.01,0,0.01,0l9.3-20.7h-0.38
	c-4.01,0-7.76-1.59-10.551-4.49c-1.209-1.26-2.891-1.979-4.609-1.979h-7.6v5.54c0,0.66-0.541,1.189-1.2,1.189
	c-0.66,0-1.2-0.53-1.2-1.189v-5.54h-2.99v47.77h2.99v-34.65c0-0.66,0.54-1.2,1.2-1.2c0.659,0,1.2,0.54,1.2,1.2v34.65h12.34
	c2.02,0,3.66,1.65,3.66,3.671v2.131h2.09c2.05,0,3.729,1.67,3.729,3.729v3.82c0,0.66-0.54,1.199-1.199,1.199H47.99
	c-0.66,0-1.2-0.539-1.2-1.199v-3.82c0-2.05,1.67-3.729,3.72-3.729h2.1v-2.132c0-2.02,1.64-3.67,3.66-3.67h12.35v-47.77h-7.14
	c-2.08,0-4.02,0.84-5.45,2.36c-2.45,2.62-6,4.11-9.73,4.11h-0.86l9.33,20.7c0,0,0,0,0.01,0.01c0.01,0.021,0.02,0.05,0.03,0.07
	c0,0.01,0.01,0.03,0.01,0.04c0.01,0.02,0.01,0.05,0.02,0.068c0,0.012,0.01,0.03,0.01,0.051c0,0.011,0.01,0.029,0.01,0.051
	c0,0.02,0.01,0.05,0.01,0.07v0.039c0.01,0.021,0.01,0.051,0.01,0.08v1.189c0,5.98-4.87,10.85-10.85,10.85H43.1
	c-5.98,0-10.85-4.869-10.85-10.85v-1.27c0-0.021,0-0.03,0.01-0.041c0-0.021,0-0.051,0.01-0.069v-0.05
	c0.01-0.021,0.01-0.041,0.02-0.051c0-0.021,0.01-0.051,0.02-0.069c0-0.011,0.01-0.03,0.01-0.04c0.01-0.021,0.02-0.051,0.03-0.07
	c0-0.01,0-0.01,0-0.01l9.31-20.69h-6.81c-1.19,0-2.16-0.97-2.16-2.16v-2.86c0-1.19,0.97-2.15,2.16-2.15h10.99
	c2.09,0,4.03-0.84,5.46-2.37c2.45-2.61,6-4.11,9.73-4.11h7.58v-2.66c-1.35-1.12-2.21-2.81-2.21-4.7c0-3.36,2.74-6.1,6.1-6.1
	c3.37,0,6.1,2.74,6.1,6.1c0,1.89-0.859,3.58-2.199,4.7v2.66h7.58c3.729,0,7.279,1.5,9.729,4.11c1.43,1.53,3.37,2.37,5.45,2.37h11
	c1.18,0,2.148,0.96,2.148,2.15v2.86c0,1.19-0.97,2.15-2.148,2.15h-6.84l9.33,20.7c0,0,0,0,0.01,0.01
	c0.01,0.021,0.02,0.05,0.029,0.07c0,0.01,0.01,0.029,0.01,0.04c0.011,0.02,0.011,0.05,0.021,0.069c0,0.01,0.011,0.029,0.011,0.051
	c0.01,0.01,0.01,0.028,0.01,0.05c0.011,0.02,0.011,0.05,0.011,0.069c0,0.011,0,0.021,0.01,0.041L112.76,79.998L112.76,79.998z
	 M100.98,88.448h0.931c4.649,0,8.438-3.78,8.45-8.431h-17.83C92.54,84.668,96.33,88.448,100.98,88.448z M109.91,52.858H99.16
	c-2.76,0-5.312-1.11-7.2-3.12c-2-2.13-4.91-3.35-7.979-3.35H61.03c-3.07,0-5.98,1.22-7.98,3.35c-1.89,2.01-4.45,3.12-7.21,3.12
	H35.09v2.38H46.3c3.07,0,5.98-1.23,7.98-3.36c1.89-2.01,4.44-3.12,7.2-3.12H84c2.37,0,4.67,0.99,6.34,2.72
	c2.33,2.42,5.46,3.76,8.82,3.76h10.75V52.858z M101.441,59.268l-8.25,18.35h16.52L101.441,59.268z M55,102.598v2.131h2.32
	c0.66,0,1.2,0.539,1.2,1.199s-0.54,1.2-1.2,1.2h-6.8c-0.74,0-1.33,0.59-1.33,1.33v2.62h46.63v-2.62c0-0.74-0.602-1.33-1.33-1.33
	H64.97c-0.66,0-1.19-0.54-1.19-1.2s0.53-1.199,1.19-1.199H90v-2.131c0-0.699-0.57-1.27-1.26-1.27H56.27
	C55.57,101.328,55,101.898,55,102.598z M70.52,39.748c0.04,0.03,0.09,0.06,0.13,0.08c0.03,0.02,0.05,0.03,0.08,0.05
	c0.06,0.03,0.12,0.06,0.19,0.1c0.02,0.01,0.04,0.02,0.07,0.03c0.05,0.02,0.1,0.04,0.15,0.06c0.03,0.01,0.05,0.02,0.07,0.03
	c0.07,0.03,0.14,0.05,0.21,0.07c0.02,0.01,0.04,0.01,0.06,0.02c0.06,0.02,0.12,0.03,0.18,0.05c0.02,0,0.04,0.01,0.06,0.01
	c0.08,0.02,0.16,0.03,0.24,0.04c0.01,0.01,0.02,0.01,0.03,0.01c0.07,0.01,0.14,0.01,0.21,0.02h0.06c0.08,0.01,0.16,0.01,0.24,0.01
	c0.09,0,0.17,0,0.25-0.01h0.061c0.069,0,0.139-0.01,0.199-0.02c0.02,0,0.03,0,0.04-0.01c0.08-0.01,0.16-0.02,0.229-0.04
	c0.021,0,0.041-0.01,0.07-0.01c0.061-0.02,0.12-0.03,0.18-0.05c0.021-0.01,0.041-0.01,0.051-0.02c0.08-0.02,0.15-0.04,0.22-0.07
	c0.021-0.01,0.04-0.02,0.07-0.03c0.05-0.02,0.1-0.04,0.149-0.06c0.021-0.01,0.051-0.02,0.069-0.03c0.062-0.03,0.13-0.07,0.19-0.1
	c0.029-0.02,0.05-0.03,0.068-0.04c0.051-0.03,0.102-0.06,0.141-0.09c1.029-0.66,1.721-1.81,1.721-3.12c0-2.04-1.66-3.7-3.71-3.7
	c-2.04,0-3.7,1.66-3.7,3.7C68.8,37.938,69.49,39.098,70.52,39.748z M73.57,42.638c-0.09,0.01-0.181,0.03-0.271,0.04
	c-0.021,0-0.05,0-0.069,0.01c-0.11,0.01-0.23,0.02-0.351,0.03c-0.12,0.01-0.25,0.01-0.38,0.01c-0.24,0-0.49-0.01-0.72-0.04
	c-0.03-0.01-0.05-0.01-0.07-0.01c-0.09-0.01-0.19-0.03-0.28-0.04c-0.03-0.01-0.06-0.02-0.09-0.02c-0.09-0.021-0.18-0.04-0.27-0.06
	c-0.02-0.01-0.04-0.01-0.06-0.02v1.45H74v-1.45c-0.02,0.01-0.04,0.01-0.061,0.02c-0.09,0.02-0.18,0.04-0.27,0.06
	C73.64,42.618,73.609,42.628,73.57,42.638z M43.1,88.448h0.92c4.66,0,8.44-3.78,8.46-8.431H34.65
	C34.66,84.668,38.44,88.448,43.1,88.448z M35.3,77.618h16.52l-8.27-18.35L35.3,77.618z"/>
</svg>
