<?xml version="1.0" encoding="utf-8"?>
<!-- Generator: Adobe Illustrator 16.0.0, SVG Export Plug-In . SVG Version: 6.00 Build 0)  -->
<!DOCTYPE svg PUBLIC "-//W3C//DTD SVG 1.1//EN" "http://www.w3.org/Graphics/SVG/1.1/DTD/svg11.dtd">
<svg version="1.1" id="Layer_1" xmlns="http://www.w3.org/2000/svg" xmlns:xlink="http://www.w3.org/1999/xlink" x="0px" y="0px"
	 width="108px" height="105px" viewBox="0 0 108 105" enable-background="new 0 0 108 105" xml:space="preserve">
<linearGradient id="SVGID_1_" gradientUnits="userSpaceOnUse" x1="10.8291" y1="52.5" x2="97.2305" y2="52.5">
	<stop  offset="0" style="stop-color:#4CC3CA"/>
	<stop  offset="1" style="stop-color:#1AA0D3"/>
</linearGradient>
<path fill="url(#SVGID_1_)" d="M52.64,28.023h-6.068v13.155H34.07v-5.212h9.124V23.08H22.947v12.886h8.123v8.212h15.502v13.474
	h6.068v4.145h17.573V50.346H52.64v4.306h-3.068V44.178h3.068v4.225h17.573V36.952H52.64v4.227h-3.068V31.023h3.068v4.225h17.573
	V23.797H52.64V28.023z M25.947,32.966V26.08h14.247v6.886H25.947z M55.641,53.346h11.572v5.451H55.641V53.346z M55.641,39.952
	h11.572v5.451H55.641V39.952z M55.641,26.797h11.572v5.451H55.641V26.797z M76.027,23.797h3.703v3h-3.703V23.797z M82.669,23.797
	h3.704v3h-3.704V23.797z M76.027,28.023h3.703v3h-3.703V28.023z M82.669,28.023h3.704v3h-3.704V28.023z M76.027,32.249h3.703v3
	h-3.703V32.249z M76.027,36.474h3.703v3h-3.703V36.474z M82.669,32.249h3.704v3h-3.704V32.249z M38.397,49.232v3h-3.704v-3H38.397z
	 M82.669,36.474h3.704v3h-3.704V36.474z M33.22,52.232H22.639v-3H33.22V52.232z M33.22,57.232H22.639v-3H33.22V57.232z
	 M22.639,59.232h19.498v3H22.639V59.232z M97.23,68.145h-4.989V13.604H65.428l-4.004-6H46.519l-4.004,6H15.833v54.541h-5.004v11.672
	h29.084l-8.942,15.488l2.598,1.5l9.808-16.988h9.204v17.58h3v-17.58h9.272l9.809,16.988l2.598-1.5l-8.942-15.488H97.23V68.145z
	 M48.123,10.604h11.695l2.002,3H46.121L48.123,10.604z M18.833,16.604h21.679H67.43h21.812v51.541H18.833V16.604z M94.23,76.816
	H13.829v-5.672H94.23V76.816z"/>
</svg>
