<?xml version="1.0" encoding="utf-8"?>
<!-- Generator: Adobe Illustrator 16.0.0, SVG Export Plug-In . SVG Version: 6.00 Build 0)  -->
<!DOCTYPE svg PUBLIC "-//W3C//DTD SVG 1.1//EN" "http://www.w3.org/Graphics/SVG/1.1/DTD/svg11.dtd">
<svg version="1.1" id="Layer_1" xmlns="http://www.w3.org/2000/svg" xmlns:xlink="http://www.w3.org/1999/xlink" x="0px" y="0px"
	 width="108px" height="105px" viewBox="0 0 108 105" enable-background="new 0 0 108 105" xml:space="preserve">
<linearGradient id="SVGID_1_" gradientUnits="userSpaceOnUse" x1="-468.0508" y1="457.5" x2="-411.9492" y2="457.5" gradientTransform="matrix(1 0 0 -1 494 510)">
	<stop  offset="0" style="stop-color:#4CC3CA"/>
	<stop  offset="1" style="stop-color:#1AA0D3"/>
</linearGradient>
<path fill="url(#SVGID_1_)" d="M80.574,90.9H27.427c-0.815,0-1.478-0.662-1.478-1.477V21.486c0-0.815,0.662-1.478,1.478-1.478
	h10.334v-1.477c0-0.816,0.661-1.479,1.478-1.479h8.859c1.385-1.841,3.574-2.954,5.902-2.954c2.33,0,4.52,1.113,5.904,2.955h8.858
	c0.813,0,1.478,0.66,1.478,1.478v1.477h10.334c0.813,0,1.477,0.661,1.477,1.478v67.938C82.051,90.238,81.389,90.9,80.574,90.9z
	 M67.287,20.008h-8.174c-0.526,0-1.015-0.281-1.277-0.737c-0.791-1.366-2.262-2.216-3.836-2.216s-3.045,0.85-3.836,2.216
	c-0.264,0.456-0.75,0.737-1.277,0.737h-8.173v5.908h26.573V20.008z M79.098,84.992h-7.381c-0.816,0-1.477-0.66-1.477-1.477
	c0-0.814,0.66-1.477,1.477-1.477h7.381V22.961H70.24v4.432c0,0.815-0.662,1.478-1.477,1.478H39.238
	c-0.815,0-1.478-0.661-1.478-1.478v-4.432h-8.858v64.984h50.195V84.992z M32.428,36.564c0.645-0.498,1.572-0.382,2.07,0.264
	l3.44,4.439l6.06-7.424c0.517-0.632,1.447-0.726,2.078-0.21c0.632,0.517,0.726,1.447,0.209,2.078l-7.233,8.861
	c-0.28,0.344-0.7,0.543-1.144,0.543c-0.006,0-0.013,0-0.02,0c-0.45-0.006-0.872-0.217-1.146-0.572l-4.578-5.907
	C31.666,37.993,31.783,37.063,32.428,36.564z M32.428,54.289c0.645-0.5,1.572-0.383,2.07,0.262l3.44,4.441l6.06-7.424
	c0.517-0.634,1.447-0.728,2.078-0.21c0.632,0.516,0.726,1.445,0.209,2.076l-7.233,8.863c-0.28,0.344-0.7,0.541-1.144,0.541
	c-0.006,0-0.013,0-0.02,0c-0.45-0.004-0.872-0.215-1.146-0.57l-4.578-5.906C31.666,55.715,31.783,54.789,32.428,54.289z
	 M32.428,72.01c0.645-0.5,1.572-0.381,2.07,0.264l3.44,4.439l6.06-7.424c0.517-0.631,1.447-0.727,2.078-0.209
	c0.632,0.516,0.726,1.445,0.209,2.078l-7.233,8.861c-0.28,0.344-0.7,0.541-1.144,0.541c-0.006,0-0.013,0-0.02,0
	c-0.45-0.004-0.872-0.215-1.146-0.57l-4.578-5.908C31.666,73.438,31.783,72.51,32.428,72.01z M51.048,34.779h23.62
	c0.816,0,1.477,0.66,1.477,1.477s-0.66,1.478-1.477,1.478h-23.62c-0.815,0-1.476-0.661-1.476-1.478S50.232,34.779,51.048,34.779z
	 M51.048,40.685h8.858c0.813,0,1.477,0.661,1.477,1.479c0,0.813-0.662,1.477-1.477,1.477h-8.858c-0.815,0-1.476-0.662-1.476-1.477
	C49.572,41.346,50.232,40.685,51.048,40.685z M51.048,52.5h23.62c0.816,0,1.477,0.662,1.477,1.476c0,0.816-0.66,1.479-1.477,1.479
	h-23.62c-0.815,0-1.476-0.66-1.476-1.479C49.572,53.164,50.232,52.5,51.048,52.5z M51.048,58.41h8.858
	c0.813,0,1.477,0.66,1.477,1.477s-0.662,1.477-1.477,1.477h-8.858c-0.815,0-1.476-0.66-1.476-1.477S50.232,58.41,51.048,58.41z
	 M51.048,70.223h23.62c0.816,0,1.477,0.662,1.477,1.479s-0.66,1.477-1.477,1.477h-23.62c-0.815,0-1.476-0.66-1.476-1.477
	S50.232,70.223,51.048,70.223z M51.048,76.131h8.858c0.813,0,1.477,0.662,1.477,1.479c0,0.814-0.662,1.477-1.477,1.477h-8.858
	c-0.815,0-1.476-0.66-1.476-1.477S50.232,76.131,51.048,76.131z M67.287,82.041c0.389,0,0.77,0.156,1.043,0.432
	c0.274,0.275,0.434,0.656,0.434,1.045s-0.158,0.77-0.434,1.043c-0.273,0.275-0.654,0.434-1.043,0.434
	c-0.39,0-0.771-0.158-1.043-0.434c-0.275-0.273-0.435-0.654-0.435-1.043s0.158-0.77,0.435-1.045
	C66.518,82.197,66.898,82.041,67.287,82.041z"/>
</svg>
