<?xml version="1.0" encoding="utf-8"?>
<!-- Generator: Adobe Illustrator 16.0.0, SVG Export Plug-In . SVG Version: 6.00 Build 0)  -->
<!DOCTYPE svg PUBLIC "-//W3C//DTD SVG 1.1//EN" "http://www.w3.org/Graphics/SVG/1.1/DTD/svg11.dtd">
<svg version="1.1" id="Layer_1" xmlns="http://www.w3.org/2000/svg" xmlns:xlink="http://www.w3.org/1999/xlink" x="0px" y="0px"
	 width="108px" height="105px" viewBox="0 0 108 105" enable-background="new 0 0 108 105" xml:space="preserve">
<linearGradient id="SVGID_1_" gradientUnits="userSpaceOnUse" x1="-470.1836" y1="457.5" x2="-409.8154" y2="457.5" gradientTransform="matrix(1 0 0 -1 494 510)">
	<stop  offset="0" style="stop-color:#4CC3CA"/>
	<stop  offset="1" style="stop-color:#1AA0D3"/>
</linearGradient>
<path fill="url(#SVGID_1_)" d="M80.32,13.077H27.682c-2.131,0-3.865,1.734-3.865,3.868v71.111c0,2.133,1.734,3.867,3.865,3.867
	h40.794c0.327,0,0.642-0.129,0.872-0.361l14.477-14.483c0.23-0.232,0.36-0.546,0.36-0.874V16.945
	C84.185,14.811,82.449,13.077,80.32,13.077z M69.709,87.708v-8.871c0-0.771,0.628-1.397,1.398-1.397h8.864L69.709,87.708z
	 M81.717,74.97H71.107c-2.132,0-3.865,1.735-3.865,3.868v10.617H27.682c-0.771,0-1.398-0.627-1.398-1.398V16.946
	c0-0.771,0.629-1.399,1.398-1.399H80.32c0.771,0,1.396,0.628,1.396,1.399V74.97L81.717,74.97z M46.104,23.611H35.576
	c-0.681,0-1.232,0.553-1.232,1.235c0,0.682,0.553,1.234,1.232,1.234h4.031v11.936c0,0.682,0.553,1.234,1.232,1.234
	c0.682,0,1.234-0.553,1.234-1.234V26.081h4.029c0.682,0,1.233-0.553,1.233-1.234C47.339,24.164,46.785,23.611,46.104,23.611z
	 M59.13,37.66l-3.667-12.23c-0.325-1.087-1.307-1.818-2.441-1.818h-0.674c-1.135,0-2.115,0.731-2.441,1.818L46.24,37.66
	c-0.196,0.653,0.174,1.342,0.826,1.537c0.652,0.196,1.34-0.174,1.536-0.827l0.525-1.754h7.112l0.525,1.754
	c0.16,0.534,0.65,0.88,1.182,0.88c0.116,0,0.236-0.017,0.354-0.053C58.955,39.002,59.326,38.313,59.13,37.66z M49.867,34.146
	l2.4-8.007c0.012-0.035,0.043-0.059,0.079-0.059h0.674c0.036,0,0.068,0.022,0.078,0.059l2.4,8.007H49.867z M72.117,37.307
	l-4.11-5.876l4.11-5.876c0.392-0.559,0.256-1.329-0.303-1.72c-0.559-0.391-1.328-0.255-1.719,0.304l-3.596,5.14l-3.596-5.14
	c-0.391-0.559-1.16-0.694-1.718-0.304c-0.559,0.391-0.694,1.161-0.304,1.72l4.109,5.876l-4.108,5.876
	c-0.392,0.559-0.256,1.329,0.303,1.72c0.216,0.151,0.462,0.224,0.706,0.224c0.391,0,0.771-0.184,1.012-0.527l3.596-5.14l3.596,5.14
	c0.24,0.344,0.623,0.527,1.012,0.527c0.244,0,0.491-0.072,0.707-0.224C72.373,38.636,72.509,37.865,72.117,37.307z M35.576,45.999
	h-2.631c-0.682,0-1.233,0.553-1.233,1.234s0.553,1.234,1.233,1.234h2.631c0.683,0,1.234-0.553,1.234-1.234
	S36.259,45.999,35.576,45.999z M35.576,51.266h-2.631c-0.682,0-1.233,0.553-1.233,1.235c0,0.682,0.553,1.233,1.233,1.233h2.631
	c0.683,0,1.234-0.553,1.234-1.233C36.812,51.818,36.259,51.266,35.576,51.266z M35.576,56.533h-2.631
	c-0.682,0-1.233,0.553-1.233,1.234s0.553,1.234,1.233,1.234h2.631c0.683,0,1.234-0.553,1.234-1.234
	C36.812,57.086,36.259,56.533,35.576,56.533z M75.056,45.999h-2.633c-0.683,0-1.233,0.553-1.233,1.234s0.553,1.234,1.233,1.234
	h2.633c0.681,0,1.233-0.553,1.233-1.234S75.736,45.999,75.056,45.999z M75.056,51.266h-2.633c-0.683,0-1.233,0.553-1.233,1.235
	c0,0.682,0.553,1.233,1.233,1.233h2.633c0.681,0,1.233-0.553,1.233-1.233C76.289,51.818,75.736,51.266,75.056,51.266z
	 M75.056,56.533h-2.633c-0.683,0-1.233,0.553-1.233,1.234s0.553,1.234,1.233,1.234h2.633c0.681,0,1.233-0.553,1.233-1.234
	S75.736,56.533,75.056,56.533z M56.632,45.999H40.841c-0.681,0-1.233,0.553-1.233,1.234s0.553,1.234,1.233,1.234h15.792
	c0.681,0,1.232-0.553,1.232-1.234S57.313,45.999,56.632,45.999z M51.369,51.266H40.841c-0.681,0-1.233,0.553-1.233,1.235
	c0,0.682,0.553,1.233,1.233,1.233h10.528c0.681,0,1.232-0.553,1.232-1.233C52.603,51.818,52.05,51.266,51.369,51.266z
	 M56.632,56.533H40.841c-0.681,0-1.233,0.553-1.233,1.234s0.553,1.234,1.233,1.234h15.792c0.681,0,1.232-0.553,1.232-1.234
	S57.313,56.533,56.632,56.533z M38.127,72.702v-4.29c0.908,0.298,1.48,0.897,1.48,1.455c0,0.682,0.553,1.233,1.232,1.233
	c0.682,0,1.234-0.553,1.234-1.233c0-1.969-1.657-3.572-3.948-4.002V65.67c0-0.684-0.552-1.235-1.233-1.235
	c-0.681,0-1.232,0.554-1.232,1.235v0.195c-2.291,0.43-3.948,2.033-3.948,4.002c0,2.75,2.194,3.906,3.948,4.571v4.291
	c-0.909-0.299-1.48-0.897-1.48-1.454c0-0.683-0.553-1.235-1.234-1.235c-0.681,0-1.232,0.553-1.232,1.235
	c0,1.969,1.656,3.571,3.947,4v0.196c0,0.683,0.553,1.234,1.233,1.234s1.233-0.553,1.233-1.234v-0.196
	c2.291-0.429,3.947-2.031,3.947-4C42.074,74.523,39.88,73.367,38.127,72.702z M35.658,71.745c-1.229-0.604-1.479-1.13-1.479-1.878
	c0-0.558,0.571-1.157,1.479-1.455V71.745z M38.127,78.728v-3.333c1.23,0.604,1.48,1.131,1.48,1.877
	C39.607,77.83,39.035,78.431,38.127,78.728z M55.316,67.068h-9.212c-0.681,0-1.233,0.553-1.233,1.234
	c0,0.683,0.554,1.234,1.233,1.234h9.212c0.682,0,1.233-0.553,1.233-1.234S55.998,67.068,55.316,67.068z M51.369,77.603h-5.266
	c-0.681,0-1.232,0.554-1.232,1.234s0.553,1.234,1.232,1.234h5.266c0.681,0,1.232-0.554,1.232-1.234S52.05,77.603,51.369,77.603z
	 M59.265,77.603h-2.632c-0.682,0-1.234,0.554-1.234,1.234s0.553,1.234,1.234,1.234h2.632c0.681,0,1.231-0.554,1.231-1.234
	S59.945,77.603,59.265,77.603z M63.212,72.336H46.104c-0.681,0-1.233,0.553-1.233,1.234c0,0.681,0.554,1.233,1.233,1.233h17.107
	c0.682,0,1.233-0.553,1.233-1.233C64.445,72.889,63.894,72.336,63.212,72.336z M56.632,51.266c0.682,0,1.233,0.554,1.233,1.235
	c0,0.681-0.553,1.233-1.233,1.233s-1.233-0.553-1.233-1.233C55.398,51.82,55.951,51.266,56.632,51.266z M61.896,51.266
	c0.683,0,1.234,0.554,1.234,1.235c0,0.681-0.554,1.233-1.234,1.233s-1.233-0.553-1.233-1.233
	C60.662,51.82,61.214,51.266,61.896,51.266z M67.158,51.266c0.683,0,1.234,0.554,1.234,1.235c0,0.681-0.553,1.233-1.234,1.233
	c-0.681,0-1.232-0.553-1.232-1.233C65.926,51.82,66.478,51.266,67.158,51.266z M61.896,45.999c0.683,0,1.234,0.552,1.234,1.234
	s-0.554,1.234-1.234,1.234s-1.233-0.553-1.233-1.234C60.662,46.551,61.214,45.999,61.896,45.999z M67.158,45.999
	c0.683,0,1.234,0.552,1.234,1.234s-0.553,1.234-1.234,1.234c-0.681,0-1.232-0.553-1.232-1.234
	C65.926,46.551,66.478,45.999,67.158,45.999z M61.896,56.533c0.683,0,1.234,0.554,1.234,1.234c0,0.682-0.554,1.234-1.234,1.234
	s-1.233-0.553-1.233-1.234C60.662,57.087,61.214,56.533,61.896,56.533z M67.158,56.533c0.683,0,1.234,0.554,1.234,1.234
	c0,0.682-0.553,1.234-1.234,1.234c-0.681,0-1.232-0.553-1.232-1.234C65.926,57.087,66.478,56.533,67.158,56.533z"/>
</svg>
