<?xml version="1.0" encoding="utf-8"?>
<!-- Generator: Adobe Illustrator 16.0.0, SVG Export Plug-In . SVG Version: 6.00 Build 0)  -->
<!DOCTYPE svg PUBLIC "-//W3C//DTD SVG 1.1//EN" "http://www.w3.org/Graphics/SVG/1.1/DTD/svg11.dtd">
<svg version="1.1" id="Layer_1" xmlns="http://www.w3.org/2000/svg" xmlns:xlink="http://www.w3.org/1999/xlink" x="0px" y="0px"
	 width="193.634px" height="68.959px" viewBox="0 0 193.634 68.959" enable-background="new 0 0 193.634 68.959"
	 xml:space="preserve">
<path fill="#FFFFFF" d="M41.637,52.369c0.037-0.031,0.075-0.065,0.112-0.099c0.39-0.355,0.726-0.771,0.992-1.23
	c0.435-0.754,0.685-1.627,0.685-2.56c0-2.827-2.292-5.12-5.12-5.12s-5.12,2.293-5.12,5.12c0,0.933,0.25,1.806,0.685,2.56
	c0.266,0.459,0.602,0.875,0.992,1.23c0.037,0.033,0.075,0.067,0.112,0.099c0.515,0.469,0.934,1.042,1.224,1.684
	c0.292,0.642,0.453,1.354,0.453,2.107c0,0.752-0.161,1.466-0.453,2.107c-0.29,0.641-0.708,1.214-1.224,1.683
	c-0.037,0.033-0.075,0.067-0.112,0.1c-0.391,0.355-0.727,0.771-0.992,1.229c-0.435,0.754-0.685,1.628-0.685,2.561
	c0,2.827,2.293,5.12,5.12,5.12s5.12-2.293,5.12-5.12c0-0.933-0.25-1.807-0.685-2.561c-0.266-0.458-0.602-0.874-0.992-1.229
	c-0.037-0.032-0.075-0.066-0.112-0.1c-0.515-0.469-0.935-1.042-1.224-1.683c-0.291-0.642-0.453-1.355-0.453-2.107
	c0-0.753,0.162-1.466,0.453-2.107C40.703,53.411,41.122,52.837,41.637,52.369z M50.201,51.04c-0.933,0-1.807,0.25-2.56,0.685
	c-1.53,0.885-2.56,2.541-2.56,4.436s1.03,3.551,2.56,4.436c0.753,0.435,1.627,0.684,2.56,0.684c2.827,0,5.12-2.292,5.12-5.119
	S53.028,51.04,50.201,51.04z M24.629,9.009c-0.037-0.032-0.075-0.066-0.112-0.1c-0.39-0.355-0.726-0.771-0.992-1.23
	C23.09,6.926,22.84,6.052,22.84,5.12c0-2.827,2.293-5.12,5.12-5.12s5.12,2.292,5.12,5.12c0,0.933-0.25,1.807-0.685,2.56
	c-0.266,0.459-0.602,0.875-0.992,1.23c-0.037,0.034-0.075,0.067-0.112,0.1c-0.515,0.469-0.934,1.042-1.224,1.683
	c-0.292,0.642-0.453,1.355-0.453,2.107c0,0.752,0.162,1.466,0.453,2.107c0.29,0.642,0.708,1.214,1.224,1.683
	c0.037,0.034,0.075,0.067,0.112,0.099c0.39,0.355,0.726,0.771,0.992,1.23c0.435,0.753,0.685,1.627,0.685,2.56
	c0,2.827-2.293,5.12-5.12,5.12s-5.12-2.293-5.12-5.12c0-0.933,0.25-1.807,0.685-2.56c0.266-0.459,0.602-0.875,0.992-1.23
	c0.037-0.032,0.075-0.065,0.112-0.099c0.515-0.469,0.934-1.042,1.224-1.683c0.292-0.642,0.453-1.355,0.453-2.107
	c0-0.751-0.161-1.465-0.453-2.107C25.563,10.051,25.145,9.478,24.629,9.009z M16.066,7.68c0.933,0,1.807,0.25,2.56,0.685
	c1.53,0.885,2.56,2.541,2.56,4.435c0,1.895-1.03,3.551-2.56,4.435c-0.753,0.436-1.627,0.685-2.56,0.685
	c-2.827,0-5.12-2.293-5.12-5.12C10.946,9.973,13.239,7.68,16.066,7.68z M21.893,50.79c0.046,0.016,0.094,0.031,0.142,0.047
	c0.503,0.16,1.031,0.243,1.562,0.244c0.871,0,1.751-0.221,2.56-0.687c2.448-1.414,3.288-4.546,1.874-6.995
	c-1.414-2.448-4.545-3.288-6.994-1.874c-0.808,0.467-1.439,1.12-1.875,1.873c-0.265,0.46-0.457,0.959-0.569,1.475
	c-0.011,0.049-0.021,0.099-0.03,0.146c-0.148,0.681-0.435,1.33-0.846,1.902c-0.41,0.572-0.947,1.069-1.599,1.445
	c-0.651,0.376-1.35,0.593-2.051,0.661c-0.701,0.07-1.406-0.007-2.07-0.218c-0.047-0.016-0.096-0.031-0.142-0.048
	c-0.502-0.16-1.031-0.243-1.562-0.244c-0.87,0-1.751,0.221-2.56,0.688C5.285,50.619,4.445,53.75,5.859,56.2
	c1.414,2.448,4.546,3.287,6.994,1.873c0.808-0.466,1.439-1.118,1.875-1.872c0.265-0.46,0.458-0.959,0.57-1.475
	c0.009-0.048,0.019-0.098,0.03-0.146c0.148-0.681,0.435-1.33,0.846-1.901c0.41-0.573,0.947-1.07,1.599-1.446s1.35-0.593,2.051-0.661
	C20.523,50.5,21.229,50.578,21.893,50.79z M27.326,57.541c-0.467-0.809-1.12-1.44-1.873-1.875c-1.531-0.883-3.48-0.946-5.121,0.001
	s-2.56,2.667-2.561,4.435c0,0.87,0.221,1.751,0.687,2.56c1.414,2.448,4.545,3.287,6.994,1.874
	C27.9,63.121,28.739,59.989,27.326,57.541z M50.939,14.379c0.009-0.047,0.019-0.098,0.03-0.146c0.112-0.516,0.305-1.015,0.569-1.474
	c0.435-0.754,1.067-1.407,1.875-1.873c2.449-1.414,5.581-0.574,6.994,1.874s0.575,5.581-1.874,6.994
	c-0.808,0.466-1.689,0.687-2.559,0.687c-0.531,0-1.059-0.083-1.562-0.244c-0.048-0.015-0.096-0.031-0.142-0.047
	c-0.664-0.211-1.369-0.289-2.07-0.218c-0.701,0.068-1.4,0.286-2.051,0.662c-0.651,0.375-1.188,0.873-1.599,1.446
	c-0.411,0.571-0.697,1.221-0.846,1.901c-0.01,0.049-0.021,0.099-0.03,0.146c-0.112,0.516-0.305,1.015-0.569,1.475
	c-0.435,0.753-1.067,1.406-1.875,1.873c-2.448,1.414-5.58,0.574-6.994-1.875s-0.575-5.58,1.874-6.994
	c0.808-0.466,1.689-0.687,2.559-0.687c0.531,0,1.059,0.083,1.562,0.244c0.046,0.016,0.094,0.032,0.142,0.047
	c0.664,0.212,1.369,0.289,2.07,0.219c0.701-0.069,1.4-0.286,2.051-0.662s1.188-0.873,1.599-1.446
	C50.504,15.709,50.791,15.06,50.939,14.379z M47.809,6.299c0.466,0.808,0.687,1.689,0.687,2.56c-0.001,1.767-0.92,3.487-2.561,4.435
	s-3.59,0.883-5.121,0c-0.753-0.435-1.406-1.067-1.873-1.875c-1.414-2.448-0.574-5.581,1.874-6.994S46.396,3.851,47.809,6.299z
	 M52.878,36.059c-0.009-0.047-0.019-0.098-0.03-0.146c-0.112-0.516-0.305-1.015-0.569-1.474c-0.435-0.754-1.067-1.407-1.875-1.873
	c-2.448-1.414-5.58-0.575-6.994,1.874c-1.414,2.448-0.574,5.58,1.874,6.994c0.808,0.466,1.689,0.687,2.56,0.687
	c0.531,0,1.059-0.083,1.562-0.244c0.048-0.015,0.096-0.031,0.142-0.047c0.664-0.212,1.369-0.289,2.07-0.219
	c0.701,0.068,1.4,0.285,2.051,0.662c0.651,0.376,1.188,0.872,1.598,1.445c0.411,0.571,0.697,1.221,0.846,1.901
	c0.01,0.049,0.021,0.099,0.03,0.146c0.112,0.516,0.305,1.015,0.569,1.475c0.435,0.754,1.067,1.406,1.875,1.873
	c2.449,1.414,5.581,0.574,6.994-1.874s0.575-5.58-1.874-6.994c-0.808-0.467-1.689-0.687-2.56-0.687c-0.53,0-1.059,0.083-1.562,0.243
	c-0.046,0.017-0.094,0.033-0.142,0.048c-0.664,0.212-1.37,0.288-2.07,0.219c-0.701-0.069-1.4-0.286-2.051-0.662
	s-1.188-0.872-1.599-1.445C53.313,37.389,53.026,36.741,52.878,36.059z M56.008,27.979c-0.466,0.808-0.687,1.689-0.687,2.559
	c0.001,1.768,0.92,3.488,2.561,4.435s3.59,0.883,5.121,0c0.753-0.435,1.406-1.067,1.873-1.875c1.414-2.448,0.574-5.581-1.874-6.994
	C60.554,24.691,57.422,25.53,56.008,27.979z M6.823,29.109c-0.046,0.016-0.095,0.032-0.142,0.048C6.178,29.317,5.65,29.4,5.12,29.4
	c-0.87,0-1.751-0.221-2.559-0.687c-2.449-1.414-3.288-4.545-1.874-6.994c1.413-2.448,4.545-3.288,6.994-1.874
	c0.808,0.466,1.44,1.12,1.875,1.873c0.265,0.46,0.457,0.958,0.569,1.475c0.011,0.048,0.021,0.098,0.03,0.146
	c0.148,0.68,0.435,1.33,0.846,1.901c0.41,0.573,0.947,1.07,1.599,1.446s1.35,0.593,2.051,0.661c0.7,0.07,1.406-0.006,2.069-0.218
	c0.048-0.015,0.096-0.032,0.142-0.047c0.503-0.161,1.031-0.244,1.562-0.244c0.87,0,1.751,0.221,2.559,0.687
	c2.448,1.414,3.288,4.546,1.874,6.995c-1.414,2.448-4.545,3.288-6.994,1.874c-0.808-0.466-1.439-1.119-1.875-1.873
	c-0.265-0.46-0.458-0.958-0.569-1.474c-0.01-0.048-0.02-0.098-0.03-0.147c-0.148-0.68-0.435-1.33-0.846-1.901
	c-0.41-0.573-0.947-1.07-1.598-1.446c-0.651-0.376-1.35-0.592-2.051-0.661C8.192,28.821,7.487,28.897,6.823,29.109z M1.39,35.86
	c0.466-0.808,1.119-1.439,1.873-1.874c1.531-0.882,3.48-0.947,5.121,0c1.641,0.948,2.56,2.668,2.561,4.435
	c0,0.871-0.221,1.752-0.687,2.56c-1.414,2.448-4.546,3.288-6.994,1.875C0.816,41.441-0.023,38.309,1.39,35.86z M90.201,24.843
	c0.77-0.216,1.442-0.539,2.018-0.97c0.574-0.431,1.021-0.981,1.339-1.648c0.318-0.667,0.478-1.463,0.478-2.388v-0.062
	c0-0.76-0.154-1.406-0.462-1.94c-0.308-0.534-0.698-0.985-1.171-1.355c-0.473-0.37-1.006-0.683-1.602-0.939
	c-0.595-0.257-1.181-0.478-1.755-0.662c-0.452-0.144-0.878-0.288-1.278-0.432c-0.4-0.143-0.755-0.292-1.063-0.446
	c-0.308-0.154-0.555-0.318-0.739-0.493s-0.277-0.375-0.277-0.601v-0.062c0-0.328,0.144-0.601,0.431-0.816s0.719-0.323,1.294-0.323
	c0.595,0,1.283,0.139,2.063,0.416c0.78,0.277,1.582,0.652,2.402,1.125l1.787-3.234c-0.904-0.595-1.895-1.063-2.973-1.402
	c-1.078-0.338-2.14-0.508-3.188-0.508c-0.842,0-1.627,0.113-2.356,0.339c-0.729,0.227-1.366,0.565-1.909,1.017
	c-0.544,0.452-0.976,1.001-1.294,1.648c-0.318,0.646-0.477,1.391-0.477,2.233v0.062c0,0.801,0.148,1.479,0.446,2.033
	c0.297,0.555,0.683,1.021,1.155,1.401c0.472,0.381,1.001,0.688,1.586,0.924c0.585,0.237,1.165,0.437,1.74,0.601
	c0.452,0.144,0.883,0.277,1.293,0.4c0.411,0.124,0.775,0.252,1.093,0.385c0.318,0.134,0.57,0.292,0.755,0.478
	c0.185,0.185,0.277,0.4,0.277,0.646v0.062c0,0.37-0.159,0.667-0.477,0.893c-0.318,0.227-0.816,0.339-1.494,0.339
	c-0.781,0-1.617-0.164-2.51-0.493c-0.893-0.328-1.792-0.821-2.695-1.479l-2.002,3.08c1.109,0.863,2.274,1.494,3.496,1.895
	c1.221,0.401,2.417,0.601,3.588,0.601C88.604,25.167,89.431,25.059,90.201,24.843z M97.098,24.859h4.682V8.348h-4.682V24.859z
	 M96.975,6.53h4.928V2.372h-4.928V6.53z M105.412,24.859h4.681v-9.188c0-1.106,0.252-1.941,0.755-2.504
	c0.503-0.563,1.196-0.845,2.079-0.845s1.561,0.282,2.033,0.845c0.472,0.563,0.708,1.398,0.708,2.504v9.188h4.682v-9.188
	c0-1.106,0.251-1.941,0.754-2.504c0.503-0.563,1.196-0.845,2.079-0.845s1.561,0.282,2.033,0.845
	c0.472,0.563,0.708,1.398,0.708,2.504v9.188h4.682v-10.75c0-1.992-0.492-3.501-1.479-4.528c-0.985-1.027-2.351-1.541-4.096-1.541
	c-1.13,0-2.136,0.223-3.019,0.667c-0.883,0.445-1.684,1.102-2.402,1.97c-0.432-0.848-1.043-1.5-1.833-1.955
	c-0.79-0.455-1.729-0.683-2.817-0.683c-0.597,0-1.136,0.073-1.617,0.218c-0.483,0.145-0.919,0.341-1.31,0.589
	c-0.39,0.249-0.744,0.532-1.063,0.853s-0.61,0.657-0.878,1.008v-2.36h-4.681V24.859z M140.827,20.87
	c-0.482-0.215-0.903-0.524-1.263-0.924s-0.646-0.883-0.862-1.448c-0.216-0.564-0.323-1.186-0.323-1.863v-0.062
	c0-0.677,0.107-1.298,0.323-1.863s0.503-1.048,0.862-1.448c0.359-0.4,0.78-0.709,1.263-0.924c0.482-0.216,1.001-0.324,1.556-0.324
	s1.072,0.108,1.556,0.324c0.481,0.215,0.908,0.524,1.278,0.924c0.369,0.4,0.662,0.883,0.877,1.448
	c0.216,0.565,0.324,1.186,0.324,1.863v0.062c0,0.698-0.108,1.325-0.324,1.879c-0.215,0.554-0.508,1.032-0.877,1.432
	c-0.37,0.4-0.797,0.709-1.278,0.924c-0.483,0.215-1.001,0.323-1.556,0.323S141.31,21.085,140.827,20.87z M133.759,29.788
	l4.682-1.458v-5.627c0.555,0.658,1.237,1.232,2.048,1.725c0.812,0.493,1.843,0.74,3.096,0.74c0.985,0,1.93-0.185,2.834-0.555
	c0.903-0.37,1.698-0.919,2.387-1.648c0.688-0.729,1.242-1.622,1.663-2.68s0.631-2.274,0.631-3.65v-0.062
	c0-1.375-0.21-2.592-0.631-3.65c-0.421-1.057-0.98-1.95-1.679-2.68c-0.698-0.729-1.499-1.278-2.402-1.648
	c-0.903-0.369-1.838-0.554-2.803-0.554c-1.231,0-2.254,0.252-3.064,0.754c-0.812,0.504-1.505,1.146-2.079,1.926V8.348h-4.682V29.788
	z M153.357,24.859l4.681-1.458V2.372h-4.681V24.859z M160.895,24.859h4.682V8.348h-4.682V24.859z M160.771,6.53h4.928V2.372h-4.928
	V6.53z M92.853,49.468c1.026-0.564,1.94-1.289,2.741-2.172l-2.741-2.772c-0.575,0.534-1.155,0.96-1.74,1.278
	s-1.268,0.478-2.048,0.478c-0.637,0-1.212-0.118-1.725-0.354c-0.514-0.236-0.955-0.56-1.325-0.971
	c-0.37-0.41-0.652-0.893-0.847-1.447c-0.196-0.555-0.292-1.149-0.292-1.787v-0.062c0-0.616,0.097-1.196,0.292-1.74
	c0.195-0.544,0.472-1.021,0.832-1.432c0.359-0.411,0.78-0.734,1.263-0.971c0.482-0.236,1.021-0.354,1.617-0.354
	c0.842,0,1.545,0.164,2.109,0.493c0.564,0.328,1.114,0.77,1.648,1.324l2.864-3.08c-0.78-0.862-1.685-1.54-2.71-2.033
	c-1.027-0.493-2.32-0.739-3.881-0.739c-1.273,0-2.438,0.226-3.496,0.677c-1.058,0.453-1.966,1.068-2.726,1.849
	c-0.76,0.78-1.355,1.693-1.787,2.741c-0.431,1.047-0.646,2.156-0.646,3.326v0.063c0,1.17,0.215,2.274,0.646,3.311
	c0.431,1.038,1.027,1.941,1.787,2.711c0.759,0.771,1.668,1.382,2.726,1.833s2.202,0.678,3.434,0.678
	C90.49,50.315,91.825,50.033,92.853,49.468z M96.99,49.946h4.681V27.458l-4.681,1.458V49.946z M110.834,45.91
	c-0.523-0.246-0.98-0.58-1.37-1.001c-0.391-0.421-0.688-0.903-0.894-1.447s-0.308-1.125-0.308-1.741v-0.062
	c0-0.616,0.097-1.196,0.292-1.74s0.478-1.021,0.848-1.432c0.369-0.411,0.816-0.734,1.34-0.971s1.124-0.354,1.802-0.354
	c0.636,0,1.221,0.123,1.755,0.37c0.534,0.246,0.996,0.58,1.387,1.001c0.39,0.421,0.688,0.904,0.893,1.447
	c0.205,0.545,0.309,1.125,0.309,1.74v0.063c0,0.616-0.098,1.196-0.293,1.74s-0.478,1.021-0.847,1.432
	c-0.37,0.411-0.816,0.734-1.34,0.971s-1.124,0.354-1.802,0.354C111.948,46.28,111.357,46.157,110.834,45.91z M116.116,49.637
	c1.088-0.451,2.033-1.067,2.834-1.848s1.427-1.689,1.879-2.727c0.451-1.037,0.677-2.151,0.677-3.343v-0.062
	c0-1.19-0.226-2.305-0.677-3.342c-0.452-1.037-1.073-1.94-1.864-2.711c-0.79-0.77-1.729-1.375-2.817-1.817
	c-1.089-0.441-2.27-0.662-3.542-0.662c-1.294,0-2.484,0.226-3.573,0.677c-1.088,0.453-2.032,1.068-2.833,1.849
	c-0.801,0.78-1.428,1.688-1.879,2.726c-0.452,1.037-0.678,2.151-0.678,3.342v0.063c0,1.19,0.226,2.305,0.678,3.342
	c0.451,1.037,1.072,1.94,1.863,2.711c0.79,0.77,1.729,1.376,2.818,1.817c1.088,0.441,2.269,0.662,3.542,0.662
	C113.837,50.315,115.027,50.088,116.116,49.637z M130.426,50.037c0.473-0.146,0.903-0.342,1.294-0.59
	c0.39-0.248,0.744-0.532,1.063-0.854c0.318-0.32,0.611-0.656,0.878-1.008v2.36h4.682V33.434h-4.682v9.188
	c0,1.106-0.262,1.941-0.785,2.505c-0.523,0.563-1.237,0.844-2.141,0.844c-0.904,0-1.602-0.281-2.095-0.844
	c-0.492-0.563-0.739-1.398-0.739-2.505v-9.188h-4.682v10.689c0,1.91,0.488,3.409,1.463,4.497c0.976,1.089,2.356,1.633,4.143,1.633
	C129.42,50.253,129.954,50.181,130.426,50.037z M147.754,45.957c-0.483-0.216-0.909-0.524-1.278-0.925
	c-0.37-0.4-0.662-0.882-0.878-1.447c-0.216-0.564-0.323-1.186-0.323-1.864v-0.062c0-0.697,0.107-1.324,0.323-1.879
	c0.216-0.554,0.508-1.031,0.878-1.432c0.369-0.4,0.795-0.709,1.278-0.925c0.481-0.216,1.001-0.323,1.555-0.323
	c0.555,0,1.073,0.107,1.556,0.323s0.903,0.524,1.263,0.925s0.646,0.883,0.862,1.447s0.323,1.187,0.323,1.863v0.062
	c0,0.679-0.107,1.3-0.323,1.864c-0.216,0.565-0.503,1.047-0.862,1.447s-0.78,0.709-1.263,0.925s-1.001,0.323-1.556,0.323
	C148.755,46.28,148.235,46.172,147.754,45.957z M151.172,49.499c0.812-0.503,1.504-1.145,2.079-1.925v2.372h4.682V27.458
	l-4.682,0.146v7.987c-0.554-0.658-1.237-1.232-2.048-1.726c-0.812-0.493-1.843-0.739-3.096-0.739c-0.985,0-1.93,0.185-2.833,0.554
	c-0.904,0.37-1.699,0.919-2.388,1.648c-0.688,0.729-1.242,1.623-1.663,2.681s-0.631,2.274-0.631,3.649v0.062
	c0,1.376,0.21,2.593,0.631,3.65c0.421,1.059,0.98,1.952,1.679,2.681s1.499,1.278,2.402,1.647c0.903,0.37,1.838,0.555,2.803,0.555
	C149.34,50.253,150.361,50.001,151.172,49.499z M169.613,24.828h4.681V12.321h3.728v-3.82h-3.789V7.855
	c0-1.191,0.564-1.787,1.694-1.787c0.41,0,0.78,0.036,1.108,0.107c0.328,0.072,0.667,0.17,1.017,0.293V2.587
	c-0.431-0.144-0.908-0.257-1.432-0.339s-1.155-0.124-1.895-0.124c-1.663,0-2.926,0.432-3.788,1.294
	c-0.883,0.883-1.324,2.218-1.324,4.004v1.047h-1.94v3.851h1.94V24.828z M183.717,29.787c0.533-0.164,1.011-0.431,1.432-0.801
	s0.806-0.847,1.155-1.432c0.349-0.585,0.678-1.299,0.985-2.141l6.345-16.912h-4.866l-3.604,11.244l-3.758-11.244h-4.958
	l6.468,16.573c-0.206,0.411-0.427,0.693-0.662,0.847c-0.236,0.154-0.56,0.231-0.971,0.231c-0.308,0-0.642-0.062-1.001-0.185
	c-0.359-0.124-0.693-0.277-1.001-0.462l-1.57,3.388c0.595,0.35,1.221,0.627,1.878,0.832s1.417,0.308,2.279,0.308
	C182.566,30.034,183.183,29.952,183.717,29.787z M83.116,66.721h1.127l1.156-2.575h5.304l1.142,2.575h1.183l-4.44-9.814h-1.03
	L83.116,66.721z M85.831,63.143l2.228-4.955l2.213,4.955H85.831z M99.844,66.888c1.769,0,2.882-0.683,3.898-1.712l-0.724-0.71
	c-0.933,0.891-1.811,1.405-3.146,1.405c-2.144,0-3.772-1.768-3.772-4.022v-0.028c0-2.241,1.614-3.995,3.772-3.995
	c1.322,0,2.241,0.557,3.063,1.336l0.752-0.807c-0.975-0.919-2.032-1.546-3.801-1.546c-2.867,0-4.928,2.283-4.928,5.04v0.027
	C94.958,64.674,97.032,66.888,99.844,66.888z M110.851,66.888c1.768,0,2.882-0.683,3.898-1.712l-0.725-0.71
	c-0.933,0.891-1.81,1.405-3.146,1.405c-2.144,0-3.772-1.768-3.772-4.022v-0.028c0-2.241,1.614-3.995,3.772-3.995
	c1.322,0,2.241,0.557,3.063,1.336l0.752-0.807c-0.975-0.919-2.033-1.546-3.801-1.546c-2.867,0-4.928,2.283-4.928,5.04v0.027
	C105.965,64.674,108.039,66.888,110.851,66.888z M121.927,66.888c2.966,0,4.983-2.353,4.983-5.039v-0.028
	c0-2.687-1.99-5.012-4.955-5.012c-2.966,0-4.984,2.353-4.984,5.04v0.027C116.971,64.563,118.962,66.888,121.927,66.888z
	 M121.955,65.872c-2.228,0-3.843-1.81-3.843-4.022v-0.028c0-2.213,1.587-3.995,3.814-3.995s3.842,1.81,3.842,4.023v0.027
	C125.769,64.09,124.182,65.872,121.955,65.872z M134.145,66.874c2.436,0,4.064-1.475,4.064-4.315v-5.582h-1.1v5.666
	c0,2.13-1.142,3.216-2.938,3.216c-1.852,0-2.979-1.184-2.979-3.285v-5.597h-1.101v5.666
	C130.093,65.399,131.736,66.874,134.145,66.874z M141.823,66.721h1.072V58.73l6.292,7.991h0.877v-9.745h-1.071v7.81l-6.14-7.81
	h-1.03V66.721z M156.407,66.721h1.114v-8.729h3.271v-1.017h-7.657v1.017h3.271V66.721z M163.962,66.721h1.1v-9.745h-1.1V66.721z
	 M168.927,66.721h1.071V58.73l6.293,7.991h0.877v-9.745h-1.072v7.81l-6.139-7.81h-1.03V66.721z M185.46,66.888
	c1.643,0,3.007-0.683,3.911-1.489v-3.885h-4.023v0.989h2.966v2.422c-0.668,0.543-1.698,0.975-2.813,0.975
	c-2.366,0-3.855-1.727-3.855-4.051v-0.028c0-2.172,1.545-3.995,3.702-3.995c1.379,0,2.214,0.46,2.966,1.113l0.71-0.835
	c-0.975-0.821-1.991-1.295-3.634-1.295c-2.923,0-4.886,2.367-4.886,5.04v0.027C180.504,64.661,182.396,66.888,185.46,66.888z"/>
</svg>
