<?xml version="1.0" encoding="utf-8"?>
<!-- Generator: Adobe Illustrator 27.5.0, SVG Export Plug-In . SVG Version: 6.00 Build 0)  -->
<svg version="1.1" id="Layer_1" xmlns="http://www.w3.org/2000/svg" xmlns:xlink="http://www.w3.org/1999/xlink" x="0px" y="0px"
	 viewBox="0 0 55 200" style="enable-background:new 0 0 55 200;" xml:space="preserve">
<style type="text/css">
	.st0{fill:#FFFFFF;}
</style>
<path class="st0" d="M44.5,116.8H42v1.8h-2.4c-0.2,0-0.5,0-0.7,0c-0.5-0.1-1.3-0.5-1.3-1.8s0.8-1.7,1.3-1.8c0.2,0,0.4,0,0.7,0h7.8
	c0.3,0,0.6,0,0.8,0.1c0.4,0.1,1.3,0.5,1.3,1.7c0,1.3-0.9,1.7-1.3,1.7c-0.3,0.1-0.7,0.1-0.7,0.1h-1v4.3h0.6c0,0,0.6,0,1.2,0
	c3.2-0.3,4.2-2.9,4.2-6c0-3-1-5.6-4.2-6c-0.3,0-0.8-0.1-1.2-0.1h-7.2c-0.3,0-0.6,0-1.2,0.1c-3.1,0.3-4.2,2.9-4.2,6
	c0,3,1.1,5.7,4.2,6c0.6,0.1,0.8,0.1,1.2,0.1h4.6C44.5,123,44.5,116.8,44.5,116.8z M51.9,87.2v-4.3H39.3c-0.2,0-0.5,0-0.7,0
	c-0.4-0.1-1.3-0.5-1.3-1.7s0.8-1.6,1.3-1.7c0.2,0,0.4,0,0.7,0h12.6v-4.3H39.7c-0.3,0-1,0-1.2,0c-3.2,0.3-4.2,2.8-4.2,6
	c0,3.1,1.1,5.7,4.2,6c0.2,0,0.8,0.1,1.2,0H51.9z M51.9,47.7l-13.3-2.1l13.3-2.1v-6.9l-17-0.4v4.3l15.7,0.1l-15.7,2.9v4.3l15.7,2.9
	l-15.7,0.1V55l17-0.4V47.7z M51.9,22l-17-3.1v4.6l15.7,2.3l-15.7,2.3v4.5l17-3.1C51.9,29.5,51.9,22,51.9,22z M38.2,102.4l13.7-4V92
	H35v4.2L49.2,96L35,100.2v6.1h16.9v-4.2L38.2,102.4z M47.5,63.7c0.3-0.1,0.7-0.1,0.9,0c0.6,0.1,1.2,0.5,1.2,1.6c0,1-0.6,1.6-1.6,1.6
	h-1.1V71h1.2c3.7,0,4.2-3.3,4.2-5.7c0-3-1-5.5-3.7-5.9c-0.8-0.1-1.5-0.2-2.2,0C43,60.1,42,66.1,39.8,67c-0.4,0.2-1,0.1-1.3,0
	c-0.6-0.1-1.2-0.5-1.2-1.7c0-1.1,0.6-1.7,1.6-1.7h1.7v-4.5h-1.3c-3.8,0-4.9,2.9-4.9,6.2c0,3,1.1,5.6,3.8,6c1.5,0.2,2.4,0,2.7,0
	C44.5,70.5,45.5,64.2,47.5,63.7 M47.5,8.2c0.4,0,0.7,0,0.9,0c0.6,0.1,1.2,0.5,1.2,1.6c0,1-0.6,1.6-1.6,1.6h-1.1v4.3h1.2
	c3.7,0,4.3-3.3,4.3-5.8c0-3-1-5.5-3.8-6c-0.8-0.1-1.5-0.1-2.3,0c-3.5,0.8-4.5,6.8-6.7,7.7c-0.4,0.2-1,0.1-1.3,0
	c-0.6-0.1-1.2-0.5-1.2-1.7c0-1.1,0.6-1.7,1.6-1.7h1.7V3.7H39c-3.8,0-5,3-5,6.2s1.1,5.6,3.9,6.1c1.5,0.2,2.4,0.1,2.8,0
	C44.5,15.1,45.5,8.7,47.5,8.2 M8.5,11.6c0-1.4,0.2-2.7,0.7-3.8s1.1-2.1,2-3C12,4,13,3.4,14.1,3s2.2-0.7,3.5-0.7S20,2.5,21.1,3
	s2.1,1.1,2.9,1.9s1.5,1.8,1.9,2.9c0.5,1.1,0.7,2.4,0.7,3.7c0,0.9-0.1,1.8-0.3,2.6c-0.2,0.8-0.5,1.6-0.9,2.3
	c-0.4,0.7-0.9,1.3-1.4,1.9c-0.6,0.6-1.2,1-1.8,1.4l-1.6-3c0.9-0.6,1.7-1.3,2.1-2.1c0.5-0.9,0.7-1.9,0.7-3.1c0-0.8-0.2-1.6-0.5-2.3
	s-0.7-1.3-1.2-1.9s-1.1-0.9-1.8-1.2c-0.7-0.3-1.4-0.4-2.2-0.4c-0.8,0-1.6,0.1-2.3,0.4s-1.3,0.7-1.8,1.2s-0.9,1.2-1.2,1.9
	s-0.5,1.5-0.5,2.4c0,1.3,0.4,2.5,1.1,3.4c0.7,0.9,1.7,1.5,2.8,1.8v-5.7H19v9.4h-1.3c-1.2,0-2.4-0.2-3.5-0.6s-2.1-1-2.9-1.8
	s-1.5-1.7-2-2.8S8.5,13,8.5,11.6z M8.5,28.8c0-0.9,0.2-1.7,0.5-2.6s0.8-1.6,1.4-2.3c0.6-0.7,1.4-1.2,2.3-1.6
	c0.9-0.4,1.9-0.6,3.1-0.6s2.2,0.2,3.1,0.6s1.7,0.9,2.3,1.6s1.1,1.4,1.4,2.3s0.5,1.7,0.5,2.7s-0.2,1.8-0.5,2.6
	c-0.3,0.8-0.8,1.5-1.4,2H23v3.3H8.6v-3.3h2.1c-0.6-0.5-1.2-1.2-1.5-2C8.7,30.7,8.5,29.8,8.5,28.8z M11.6,29.4c0,0.6,0.1,1.2,0.3,1.7
	s0.5,1,0.9,1.4s0.8,0.7,1.3,0.9s1.1,0.3,1.6,0.3c0.6,0,1.1-0.1,1.6-0.3s1-0.5,1.3-0.9c0.4-0.4,0.7-0.8,0.9-1.4
	c0.2-0.5,0.3-1.1,0.3-1.7s-0.1-1.2-0.3-1.7c-0.2-0.5-0.5-1-0.9-1.4s-0.8-0.7-1.3-0.9c-0.5-0.2-1.1-0.3-1.6-0.3
	c-0.6,0-1.1,0.1-1.7,0.3c-0.5,0.2-1,0.5-1.3,0.9c-0.4,0.4-0.7,0.9-0.9,1.4C11.7,28.2,11.6,28.8,11.6,29.4z M26.8,38.8v3.4H8.6v-3.4
	H26.8z M8.5,50.7c0-0.9,0.2-1.7,0.5-2.6s0.8-1.6,1.4-2.3c0.6-0.7,1.4-1.2,2.3-1.6c0.9-0.4,1.9-0.6,3.1-0.6s2.2,0.2,3.1,0.6
	c0.9,0.4,1.7,0.9,2.3,1.6c0.6,0.7,1.1,1.4,1.4,2.3c0.3,0.9,0.5,1.7,0.5,2.7s-0.2,1.8-0.5,2.6s-0.8,1.5-1.4,2H23v3.3H8.6v-3.3h2.1
	c-0.6-0.5-1.2-1.2-1.5-2S8.5,51.6,8.5,50.7z M11.6,51.2c0,0.6,0.1,1.2,0.3,1.7s0.5,1,0.9,1.4s0.8,0.7,1.3,0.9s1.1,0.3,1.6,0.3
	c0.6,0,1.1-0.1,1.6-0.3s1-0.5,1.3-0.9c0.4-0.4,0.7-0.8,0.9-1.4c0.2-0.5,0.3-1.1,0.3-1.7c0-0.6-0.1-1.2-0.3-1.7
	c-0.2-0.5-0.5-1-0.9-1.4s-0.8-0.7-1.3-0.9s-1.1-0.3-1.6-0.3c-0.6,0-1.1,0.1-1.7,0.3c-0.5,0.2-1,0.5-1.3,0.9
	c-0.4,0.4-0.7,0.9-0.9,1.4C11.7,50,11.6,50.6,11.6,51.2z M15.9,64.9l7.1-5.2v4.1l-4.6,3.3l4.6,3.3v3.9l-7.1-5.2l-7.3,5.5v-4.1
	l4.8-3.5l-4.8-3.4v-4.1L15.9,64.9z M9.2,80.6L23,74.7v3.6l-9.9,4l9.9,3.8v3.5L1.9,81v-3.4L9.2,80.6z M8.5,102.9c0-1.6,0.3-3,0.9-4.1
	c0.6-1.1,1.4-2.1,2.3-2.9L14,99c-0.8,0.5-1.3,1-1.7,1.7s-0.6,1.4-0.6,2.2c0,0.9,0.2,1.6,0.7,2c0.5,0.5,1,0.7,1.6,0.7
	c0.4,0,0.7-0.1,0.9-0.3c0.3-0.2,0.5-0.5,0.7-0.8s0.3-0.7,0.5-1.2c0.1-0.5,0.3-0.9,0.4-1.4c0.2-0.6,0.4-1.2,0.6-1.8
	c0.2-0.6,0.5-1.2,0.9-1.6c0.4-0.5,0.8-0.9,1.4-1.2c0.6-0.3,1.2-0.5,2.1-0.5c0.7,0,1.4,0.1,2,0.4s1.1,0.7,1.6,1.2s0.8,1.2,1.1,1.9
	c0.3,0.7,0.4,1.5,0.4,2.4c0,0.7-0.1,1.4-0.2,2s-0.3,1.1-0.5,1.6s-0.5,0.9-0.8,1.3s-0.7,0.8-1,1.1l-2.1-2.8c1.2-0.8,1.8-1.9,1.8-3.3
	c0-0.8-0.2-1.4-0.6-1.9c-0.4-0.4-0.9-0.6-1.4-0.6c-0.4,0-0.6,0.1-0.9,0.3c-0.2,0.2-0.5,0.5-0.6,0.8c-0.2,0.3-0.3,0.7-0.5,1.2
	c-0.1,0.4-0.3,0.9-0.5,1.4c-0.2,0.6-0.4,1.2-0.7,1.8c-0.2,0.6-0.6,1.2-1,1.7s-0.9,0.9-1.4,1.2c-0.6,0.3-1.3,0.5-2.1,0.5
	c-0.7,0-1.4-0.1-2-0.4c-0.7-0.3-1.2-0.7-1.7-1.2s-0.9-1.2-1.2-1.9C8.7,104.8,8.5,103.9,8.5,102.9z M11.7,110.6
	c0.8,0,1.5,0.1,2.1,0.4c0.6,0.3,1.2,0.6,1.7,1.1s1,1,1.4,1.5c0.4,0.6,0.8,1.1,1.2,1.7c0.3,0.4,0.6,0.9,0.9,1.3s0.6,0.8,0.9,1.1
	c0.3,0.3,0.6,0.6,0.9,0.8c0.3,0.2,0.6,0.3,1,0.3c0.6,0,1.1-0.2,1.5-0.6s0.6-1,0.6-1.8s-0.2-1.4-0.7-1.9s-1.1-0.9-1.9-1.2l1.4-2.9
	c1.3,0.6,2.3,1.3,3,2.4c0.7,1,1.1,2.2,1.1,3.7c0,0.9-0.1,1.7-0.4,2.5c-0.3,0.7-0.6,1.3-1.1,1.8c-0.4,0.5-1,0.9-1.6,1.2
	c-0.6,0.3-1.3,0.4-2,0.4s-1.3-0.1-1.9-0.4s-1.1-0.6-1.5-1c-0.5-0.4-0.9-0.9-1.3-1.4s-0.8-1.1-1.1-1.6c-0.3-0.5-0.6-0.9-0.9-1.4
	c-0.3-0.4-0.6-0.8-0.9-1.2c-0.3-0.3-0.7-0.6-1-0.8s-0.7-0.3-1.2-0.3v8.1H8.6v-11.5h3.1C11.7,110.9,11.7,110.6,11.7,110.6z
	 M8.5,128.8c0-1.2,0.2-2.2,0.6-3.2c0.4-1,1-1.8,1.9-2.6l2.2,2.9c-0.6,0.4-1,0.8-1.2,1.3c-0.3,0.5-0.4,1-0.4,1.6
	c0,0.8,0.2,1.4,0.6,1.9c0.4,0.5,1,0.8,1.8,0.8s1.4-0.3,1.8-0.9c0.5-0.6,0.7-1.3,0.7-2.2v-1.9h3.1v1.9c0,1,0.2,1.7,0.6,2.2
	s0.9,0.7,1.5,0.7s1.1-0.2,1.4-0.7c0.4-0.5,0.5-1.1,0.5-1.9c0-0.7-0.1-1.3-0.4-1.7c-0.3-0.4-0.7-0.8-1.2-1l1.3-2.9
	c1,0.5,1.8,1.3,2.3,2.3c0.6,1,0.8,2.1,0.8,3.3c0,0.9-0.1,1.7-0.3,2.4c-0.2,0.7-0.5,1.3-1,1.9c-0.4,0.5-0.9,0.9-1.5,1.2
	s-1.3,0.4-2,0.4c-0.8,0-1.5-0.2-2.1-0.5c-0.6-0.4-1.1-0.9-1.6-1.5c-0.4,0.7-1,1.3-1.7,1.7c-0.7,0.4-1.5,0.6-2.4,0.6
	c-0.8,0-1.5-0.1-2.2-0.4c-0.7-0.3-1.2-0.6-1.7-1.1s-0.9-1.1-1.1-1.9C8.7,130.6,8.5,129.8,8.5,128.8z M8.5,148.9
	c0-0.9,0.1-1.8,0.4-2.6c0.3-0.8,0.7-1.5,1.2-2.1s1.2-1,2-1.4c0.8-0.3,1.7-0.5,2.8-0.5h11.6v3.4H14.8c-0.4,0-0.8,0.1-1.2,0.2
	c-0.4,0.2-0.7,0.4-1,0.7s-0.5,0.6-0.7,1s-0.2,0.8-0.2,1.2s0.1,0.9,0.2,1.2c0.2,0.4,0.4,0.7,0.7,1s0.6,0.5,1,0.7s0.8,0.2,1.2,0.2
	h11.8v3.4H14.9c-1,0-2-0.2-2.8-0.5s-1.5-0.8-2-1.4c-0.5-0.6-0.9-1.3-1.2-2C8.7,150.7,8.5,149.8,8.5,148.9z M26.8,157.3v3.4H8.6v-3.4
	H26.8z M23,162.1v2.5h2.2l2.3,3.4H23v2.9h-3V168h-5.4c-0.6,0-1.1,0-1.5,0.1s-0.7,0.2-0.9,0.4s-0.3,0.5-0.4,0.9
	c-0.1,0.4-0.1,0.9-0.1,1.5H8.6v-0.5c0-1.1,0.1-2.1,0.3-2.8s0.5-1.3,1-1.8c0.5-0.4,1.1-0.8,1.9-1c0.8-0.2,1.7-0.3,2.9-0.3H20V162h3
	V162.1z M23,172.5v3.3h-2.1c1.4,0.7,2.1,1.9,2.1,3.7c0,0.5-0.1,1-0.2,1.4s-0.3,0.8-0.4,1.1l-3.2-1.3c0.2-0.2,0.3-0.5,0.4-0.8
	s0.2-0.7,0.2-1.2c0-1-0.3-1.7-0.8-2.2c-0.6-0.5-1.5-0.8-2.7-0.8H8.6v-3.3H23V172.5z M8.5,189.2c0-0.9,0.2-1.7,0.5-2.6
	c0.3-0.8,0.8-1.6,1.4-2.3c0.6-0.7,1.4-1.2,2.3-1.6c0.9-0.4,1.9-0.6,3.1-0.6s2.2,0.2,3.1,0.6c0.9,0.4,1.7,0.9,2.3,1.6
	c0.6,0.7,1.1,1.4,1.4,2.3c0.3,0.9,0.5,1.7,0.5,2.7s-0.2,1.8-0.5,2.6s-0.8,1.5-1.4,2H23v3.3H8.6v-3.3h2.1c-0.6-0.5-1.2-1.2-1.5-2
	S8.5,190.2,8.5,189.2z M11.6,189.8c0,0.6,0.1,1.2,0.3,1.7s0.5,1,0.9,1.4s0.8,0.7,1.3,0.9s1.1,0.3,1.6,0.3c0.6,0,1.1-0.1,1.6-0.3
	s1-0.5,1.3-0.9c0.4-0.4,0.7-0.8,0.9-1.4c0.2-0.5,0.3-1.1,0.3-1.7c0-0.6-0.1-1.2-0.3-1.7c-0.2-0.5-0.5-1-0.9-1.4s-0.8-0.7-1.3-0.9
	s-1.1-0.3-1.6-0.3c-0.6,0-1.1,0.1-1.7,0.3c-0.5,0.2-1,0.5-1.3,0.9c-0.4,0.4-0.7,0.9-0.9,1.4C11.7,188.6,11.6,189.2,11.6,189.8z"/>
</svg>
