<?xml version="1.0" encoding="UTF-8"?>
<svg id="Layer_1" xmlns="http://www.w3.org/2000/svg" width="64" height="64" version="1.1" viewBox="0 0 64 64">
  <!-- Generator: Adobe Illustrator 29.2.1, SVG Export Plug-In . SVG Version: 2.1.0 Build 116)  -->
  <defs>
    <style>
      .st0 {
        fill: #c6bfe2;
      }
    </style>
  </defs>
  <g>
    <polygon class="st0" points="1 42.7 13 42.7 13 44.4 1 44.4 1 42.7"/>
    <polygon class="st0" points="1 39.4 13 39.4 13 41.1 1 41.1 1 39.4"/>
    <polygon class="st0" points="4.4 36.1 9.6 36.1 9.6 37.8 4.4 37.8 4.4 36.1"/>
    <polygon class="st0" points="4.4 32.8 9.6 32.8 9.6 34.5 4.4 34.5 4.4 32.8"/>
    <polygon class="st0" points="4.4 29.5 9.6 29.5 9.6 31.2 4.4 31.2 4.4 29.5"/>
    <polygon class="st0" points="4.4 26.2 9.6 26.2 9.6 27.9 4.4 27.9 4.4 26.2"/>
    <rect class="st0" x="1" y="22.9" width="12.1" height="1.7"/>
    <rect class="st0" x="1" y="19.6" width="12.1" height="1.7"/>
  </g>
  <g>
    <path class="st0" d="M14.8,41.1h18.6c.3-.5.5-1.1.7-1.7H14.8v1.7Z"/>
    <path class="st0" d="M31.9,32.8h-13.7v1.7h15.1c-.4-.7-.9-1.2-1.4-1.7Z"/>
    <path class="st0" d="M18.2,29.5v1.7h13.7c.6-.5,1.1-1.1,1.4-1.7h-15.1Z"/>
    <path class="st0" d="M33.3,22.9H14.8v1.7h19.2c-.2-.6-.4-1.2-.7-1.7Z"/>
    <path class="st0" d="M27.6,19.6h-12.9v1.7h17.3c-1.2-1.1-2.7-1.7-4.4-1.7Z"/>
    <rect class="st0" x="18.2" y="26.2" width="5.2" height="1.7"/>
    <path class="st0" d="M28.6,27.9h5.4c.2-.6.2-1.1.2-1.7h-5.6v1.7h0Z"/>
    <polygon class="st0" points="18.2 36.1 23.4 36.1 23.4 37.8 18.2 37.8 18.2 36.1"/>
    <path class="st0" d="M28.6,36.1v1.7h5.6c0-.6,0-1.2-.2-1.7h-5.4Z"/>
    <path class="st0" d="M14.8,44.4h12.9c1.7,0,3.3-.6,4.4-1.7H14.8v1.7Z"/>
  </g>
  <g>
    <polygon class="st0" points="35.4 42.7 44.1 42.7 44.1 44.4 35.4 44.4 35.4 42.7"/>
    <polygon class="st0" points="35.4 39.4 44.1 39.4 44.1 41.1 35.4 41.1 35.4 39.4"/>
    <polygon class="st0" points="38.9 36.1 44.1 36.1 44.1 37.8 38.9 37.8 38.9 36.1"/>
    <polygon class="st0" points="38.9 32.8 44.1 32.8 44.1 34.5 38.9 34.5 38.9 32.8"/>
    <polygon class="st0" points="46.5 22.9 35.4 22.9 35.4 24.6 47.1 24.6 46.5 22.9"/>
    <polygon class="st0" points="45.3 19.6 35.4 19.6 35.4 21.3 45.9 21.3 45.3 19.6"/>
    <polygon class="st0" points="54.4 42.7 63 42.7 63 44.4 54.4 44.4 54.4 42.7"/>
    <polygon class="st0" points="54.4 39.4 63 39.4 63 41.1 54.4 41.1 54.4 39.4"/>
    <polygon class="st0" points="54.4 36.1 59.6 36.1 59.6 37.8 54.4 37.8 54.4 36.1"/>
    <polygon class="st0" points="54.4 32.8 59.6 32.8 59.6 34.5 54.4 34.5 54.4 32.8"/>
    <polygon class="st0" points="54.4 31.2 59.6 31.2 59.6 29.5 54.4 29.5 54.4 29.5 49.7 29.5 49.2 30.9 48.7 29.5 44.1 29.5 44.1 29.5 38.9 29.5 38.9 31.2 44.1 31.2 44.1 29.6 44.6 31.2 53.9 31.2 54.4 29.6 54.4 31.2"/>
    <polygon class="st0" points="59.6 26.2 50.9 26.2 50.3 27.9 59.6 27.9 59.6 26.2"/>
    <polygon class="st0" points="53.2 19.6 52.6 21.3 63 21.3 63 19.6 53.2 19.6"/>
    <polygon class="st0" points="49.2 44.4 49.8 42.7 48.6 42.7 49.2 44.4"/>
    <polygon class="st0" points="48.1 41.1 50.4 41.1 51 39.4 47.5 39.4 48.1 41.1"/>
    <polygon class="st0" points="46.9 37.8 51.5 37.8 52.1 36.1 46.3 36.1 46.9 37.8"/>
    <polygon class="st0" points="45.8 34.5 52.7 34.5 53.3 32.8 45.2 32.8 45.8 34.5"/>
    <polygon class="st0" points="38.9 27.9 48.2 27.9 47.6 26.2 38.9 26.2 38.9 27.9"/>
    <polygon class="st0" points="51.4 24.6 63 24.6 63 22.9 52 22.9 51.4 24.6"/>
  </g>
</svg>