<?xml version="1.0" encoding="UTF-8"?>
<svg id="Layer_2" xmlns="http://www.w3.org/2000/svg" width="222" height="38.5" version="1.1" viewBox="0 0 222 38.5">
  <!-- Generator: Adobe Illustrator 29.2.1, SVG Export Plug-In . SVG Version: 2.1.0 Build 116)  -->
  <defs>
    <style>
      .st0 {
        fill: #c6bfe2;
      }
    </style>
  </defs>
  <g id="Layer_1-2">
    <path class="st0" d="M0,30.8V0h38.5v30.8h-7.7V7.7h-7.7v23.1h-7.7V7.7h-7.7v23.1H0Z"/>
    <rect class="st0" x="23.1" y="30.8" width="7.7" height="7.7"/>
    <rect class="st0" x="7.7" y="30.8" width="7.7" height="7.7"/>
    <g>
      <path class="st0" d="M76.5,7.7v23.1h-4.5v-8.7l.6-11.3-1.6,7-3.4,13h-4.9l-3.4-13.2-1.6-6.8.6,11.3v8.7h-4.4V7.7h6.7l3.6,13.6.9,4.6,1-4.6,3.5-13.6s6.8,0,6.8,0Z"/>
      <path class="st0" d="M94.5,26h-8.4l-1.6,4.8h-5.1l8.2-23.1h5.5l8,23.1h-5.1l-1.6-4.8h0ZM93.2,22.1l-.9-2.9-1.9-6.7-2,6.7-.9,2.9h5.8Z"/>
      <path class="st0" d="M104.1,7.7h4.8v23.1h-4.8V7.7Z"/>
      <path class="st0" d="M131.8,7.7v23.1h-4.7l-9.2-14.8v14.8h-4.8V7.7h4.7l9.2,14.8V7.7h4.8Z"/>
      <path class="st0" d="M155.9,30.8h-3.1l-.7-2.5c-1.2,1.8-3.4,3-6.5,3-5.8,0-10.5-4.6-10.5-12.1s4.6-12,10.8-12,9.1,3,9.9,7.8l-4.7.3c-.5-2.4-2.1-4-4.9-4-4,0-6.2,3.2-6.2,7.9s2.2,8.1,6.2,8.1,5.2-1.7,5.6-5.1h-5.5v-4h9.6v12.5Z"/>
      <path class="st0" d="M177.2,26.8v4.1h-17.1V7.7h16.8v4.1h-12v5h10.8v4.1h-10.8v5.9h12.3,0Z"/>
      <path class="st0" d="M194.3,26h-8.4l-1.6,4.8h-5.1l8.2-23.1h5.5l8,23.1h-5.1l-1.6-4.8h0ZM193.1,22.1l-.9-2.9-1.9-6.7-2,6.7-.9,2.9h5.8Z"/>
      <path class="st0" d="M221,23.5l.9,7.3h-4.9l-.6-5.9c-.2-2-1-3-3.5-3h-4.3v9h-4.8V7.7h10.8c5.5,0,7.3,3.1,7.3,6.4s-1.5,4.9-4.4,5.6c2.7.6,3.2,2.2,3.4,3.8h0ZM213.3,18c2.9,0,4-1.5,4-3.2s-.9-3-3.3-3h-5.3v6.2h4.6Z"/>
    </g>
  </g>
</svg>