<?xml version="1.0" encoding="UTF-8"?>
<svg id="Layer_1" xmlns="http://www.w3.org/2000/svg" width="200" height="40.1" version="1.1" viewBox="0 0 200 40.1">
  <!-- Generator: Adobe Illustrator 29.2.1, SVG Export Plug-In . SVG Version: 2.1.0 Build 116)  -->
  <defs>
    <style>
      .st0 {
        fill: #c6bfe2;
      }
    </style>
  </defs>
  <path class="st0" d="M196.6,2.1c.6,0,1.2.4,1.3,1.1v33.5c0,.6-.4,1.2-1.1,1.3H3.4c-.6,0-1.2-.4-1.3-1.1V3.4c0-.6.4-1.2,1.1-1.3h193.4M196.6,0H3.4C1.6-.1.1,1.2,0,3v33.7c-.1,1.7,1.2,3.2,2.9,3.4h193.7c1.7,0,3.2-1.2,3.4-2.9V3.4c.1-1.7-1.2-3.2-2.9-3.4h-.4"/>
  <path class="st0" d="M186.2,13.7v18.3h-9.5V13.7h-5.7v-5.7h20.9v5.7h-5.7ZM169.1,32V8.1h-9.1v8.8h-5v-8.8h-9.1v23.9h9.1v-9.2h5v9.2h9.1ZM133.2,32.8c3.4,0,6.8-.6,10-1.9v-12.5h-11v4.8h2.9v4c-.5,0-.9.1-1.4.1-3.6,0-4.7-2.9-4.7-7.2s1.9-6.6,4.8-6.6,4.1.8,5.6,2.3l4.1-4.8c-2.7-2.4-5.9-3.6-10.4-3.6-8,0-13.5,4.6-13.5,12.7s5.1,12.7,13.6,12.7M107.8,32h9.5V8.1h-9.5v23.9ZM105.9,32v-5.9h-7.7V8.1h-9.4v23.9h17.1ZM191.1,30c0-.2,0-.4-.2-.5-.2,0-.3-.1-.5,0h-.9v1.9h.4v-.8h.4l.4.8h.4l-.4-.8c.3,0,.5-.2.5-.5M189.8,30.2v-.5h.4c.2,0,.4,0,.4.2s-.1.3-.3.3h-.5,0ZM190.2,28.7c-.9,0-1.7.8-1.7,1.7s.8,1.7,1.7,1.7,1.7-.8,1.7-1.7h0c0-1-.8-1.7-1.7-1.7M190.2,31.8c-.8,0-1.4-.6-1.4-1.4s.6-1.4,1.4-1.4,1.4.6,1.4,1.4-.6,1.4-1.4,1.4M43.9,32.4c7.5,0,11.2-2.6,11.2-9.1v-15.2h-8.8v16.1c0,1.7-1.1,2.4-2.4,2.4s-2.4-.7-2.4-2.4V8.1h-9.1v15.2c0,6,3.5,9.1,11.5,9.1M69.7,32c6.3,0,12.2-3.5,12.2-12.2s-5.3-11.8-11.7-11.8h-12.4v23.9h11.9M67.9,13.3c1.7,0,4.7.3,4.7,6.5s-2.6,6.9-4.7,6.9h-.9v-13.4h.9M22.7,32c4.4,0,8-2.2,8-7.2s-1.6-4.9-4.1-5.8c2.2-1,3.5-2.7,3.5-5,0-3.9-2.9-6-7.3-6h-14.6v23.9h14.6M19.6,13c1.2,0,2.1.7,2.1,2.3s-.9,2.5-2.2,2.5h-2.6v-4.8h2.7M19.8,21.8c1.1,0,2.3.5,2.3,2.5s-1.1,2.6-2.3,2.6h-2.9v-5.2h2.9"/>
</svg>