<?xml version="1.0" encoding="UTF-8"?>
<svg id="Layer_1" xmlns="http://www.w3.org/2000/svg" width="222" height="24.7" version="1.1" xmlns:xlink="http://www.w3.org/1999/xlink" viewBox="0 0 222 24.7">
  <!-- Generator: Adobe Illustrator 29.2.1, SVG Export Plug-In . SVG Version: 2.1.0 Build 116)  -->
  <defs>
    <style>
      .st0 {
        fill: #c6bfe2;
      }
    </style>
  </defs>
  <path class="st0" d="M24.5,0H0v24.7h7.8v-6.8h16.7c4.7,0,8.6-3.8,8.6-8.4v-1C33.1,3.8,29.2,0,24.5,0M22.5,12.3H7.7v-6.8h14.7c1.9,0,3.4,1.5,3.4,3.4s-1.5,3.4-3.4,3.4"/>
  <path class="st0" d="M169.2,16.5c2.4-1.5,3.9-4.1,3.9-7.1v-1C173.2,3.8,169.3,0,164.6,0h-24.5v24.7h7.8v-6.8h13.4l3.9,6.8h8.7l-4.7-8.1h0ZM147.9,12.3v-6.8h14.7c1.9,0,3.4,1.5,3.4,3.4s-1.5,3.4-3.4,3.4c0,0-14.7,0-14.7,0Z"/>
  <path class="st0" d="M214.4,9.3h-16.5c-1,0-1.9-.8-1.9-1.9s.8-1.9,1.9-1.9h21.4V0h-22.8C192.3,0,188.9,3.4,188.9,7.6s3.4,7.6,7.6,7.6h16.5c1,0,1.9.8,1.9,1.9s-.8,1.9-1.9,1.9h-23.2v5.8h24.6c4.2,0,7.6-3.4,7.6-7.6s-3.4-7.8-7.6-7.8"/>
  <path class="st0" d="M63.1,4.3l-2.1,5.9,10.8,1.6v-4.3C71.8,3.4,68.4,0,64.3,0h-9.5l1.9,6.5,6.3-2.3h0Z"/>
  <path class="st0" d="M61,14.6l2.1,5.9-6.3-2.3-1.9,6.5h9.5c4.1,0,7.4-3.3,7.4-7.4v-4.3l-10.8,1.6h0Z"/>
  <path class="st0" d="M36.6,7.5v4.3l10.8-1.6-2.1-5.9,6.3,2.3L53.6,0h-9.5c-4.1,0-7.4,3.3-7.4,7.4"/>
  <path class="st0" d="M45.3,20.4l2.1-5.9-10.8-1.6v4.3c0,4.1,3.3,7.4,7.4,7.4h9.5l-1.9-6.5-6.3,2.3h0Z"/>
  <path class="st0" d="M84.7,19c-.7,0-1.3-.6-1.3-1.3V0h-7.4v19.4c0,2.9,2.3,5.2,5.2,5.2h18.6v-5.7h-15Z"/>
  <path class="st0" d="M127.7,0h-15.9c-4.7,0-8.6,3.8-8.6,8.4v16.3h7.5v-6.8h18.1v6.8h7.5V8.4C136.3,3.7,132.5,0,127.7,0M128.8,12.3h-18.1v-4.1c0-1.5,1.2-2.7,2.6-2.7h12.8c1.4,0,2.6,1.2,2.6,2.7v4.1h0Z"/>
  <rect class="st0" x="177.5" y="0" width="7.4" height="24.7"/>
</svg>