<?xml version="1.0" encoding="UTF-8"?>
<svg id="Layer_1" xmlns="http://www.w3.org/2000/svg" width="220.7" height="38.4" version="1.1" xmlns:cc="http://creativecommons.org/ns#" xmlns:dc="http://purl.org/dc/elements/1.1/" xmlns:inkscape="http://www.inkscape.org/namespaces/inkscape" xmlns:rdf="http://www.w3.org/1999/02/22-rdf-syntax-ns#" xmlns:sodipodi="http://sodipodi.sourceforge.net/DTD/sodipodi-0.dtd" xmlns:svg="http://www.w3.org/2000/svg" viewBox="0 0 220.7 38.4">
  <!-- Generator: Adobe Illustrator 29.2.1, SVG Export Plug-In . SVG Version: 2.1.0 Build 116)  -->
  <defs>
    <style>
      .st0 {
        fill: #c6bfe2;
      }
    </style>
  </defs>
  <g id="Layer_11" data-name="Layer_1" sodipodi:docname="gfuel.svg">
    <sodipodi:namedview id="namedview911" bordercolor="#666666" borderopacity="1" gridtolerance="10" guidetolerance="10" inkscape:current-layer="Layer_1" inkscape:cx="90.640518" inkscape:cy="83.916503" inkscape:pageopacity="0" inkscape:pageshadow="2" inkscape:window-height="1017" inkscape:window-maximized="1" inkscape:window-width="1920" inkscape:window-x="-8" inkscape:window-y="176" inkscape:zoom="1.4510417" objecttolerance="10" pagecolor="#ffffff" showgrid="false"/>
    <g id="g908">
      <path id="path872" class="st0" d="M46.3,7.2C44.5,2.7,40.8,0,36,0H11c-2.1,0-3.9.5-5.7,1.4,0,0-.2.1-.2.2C1.8,3.8,0,7.1,0,10.8v16.5c0,.2,0,.5,0,.7l.2,1.5c0,.2.1.5.2.9,1.6,4.9,5.4,7.7,10.4,7.7h25.3c1.8,0,3.8-.5,5.7-1.5.2-.1.5-.2.7-.5,3.6-2.9,4.4-6.3,4.4-8.6v-9.8c0-1.2-.5-2.4-1.3-3.2.8-.9,1.3-2.1,1.3-3.2v-.2c0-1.1-.2-2.2-.6-3.4,0-.1,0-.2,0-.3h0ZM42.6,11.3l-.5.5H13.9v15.3h19.1v-4.3c-.5-.2-1.9-.7-6.3-2l-8.6-2.7v-1.1h24l.5.5v10c0,2.1-.9,3.9-2.7,5.3-1.3.7-2.5,1.1-3.7,1.1H10.9c-3.2,0-5.3-1.6-6.3-4.7l-.2-1.6V10.9c0-2.3,1.1-4.1,3.1-5.5,1.1-.6,2.2-.9,3.5-.9h24.9c3,0,5.2,1.4,6.2,4.3.2.8.4,1.5.4,2.1v.3h0Z" inkscape:connector-curvature="0"/>
      <path id="path874" class="st0" d="M218.3,24.1h-.1c-.9-.9-1.9-1.2-3-1.2h-23.5V5.3c0-1.3-.5-2.6-1.5-3.5h-.1c-.9-1-2.1-1.4-3.3-1.4h-8.2c-.6,0-1.1.1-1.6.3-.6-.2-1.3-.4-1.9-.4h-36.6c-.7,0-1.3.1-1.8.4-.7-.3-1.4-.5-2.1-.5h-8.3c-1.3,0-2.4.5-3.3,1.3h-.1c-1,1.1-1.5,2.3-1.5,3.7v17.6h-10.5V5.2c0-1.3-.5-2.6-1.5-3.5h-.1c-.9-1-2.1-1.4-3.3-1.4h-8.3c-.7,0-1.4.2-2.1.5-.6-.2-1.3-.4-1.9-.4h-36.8c-1.3,0-2.5.5-3.3,1.3h-.1c-1,1.1-1.5,2.3-1.5,3.7v27.9c0,1.3.5,2.6,1.5,3.5h.1c.9,1,2.1,1.4,3.3,1.4h8.2c1.3,0,2.4-.5,3.3-1.3h.1c1-1.1,1.5-2.3,1.5-3.7v-5.7h21.4c.5,0,.9,0,1.3-.2v.2c0,.2,0,.5,0,.7l.2,1.5c0,.2.1.6.2.9,1.6,4.9,5.4,7.7,10.5,7.7h25.2c1.9,0,3.8-.5,5.4-1.3.1,0,.2-.1.3-.2.2-.1.4-.2.5-.4l.2.2h.1c.9,1,2.1,1.4,3.3,1.4h36.6c1.3,0,2.5-.5,3.3-1.3h.1c1.6.9,3.7,1.5,6,1.5h30.8c1.3,0,2.4-.5,3.3-1.3h.1c1-1.1,1.5-2.3,1.5-3.7v-5.4c0-1.5-.7-2.9-1.8-3.9h0ZM91.4,22.7l-.5.5h-24l-.5-.5v-6.4l.5-.4h23.9l.5.4v6.4h0ZM93.7,11.4l-.5.4h-28.1v21.5l-.5.5h-8.6l-.5-.5V5l.5-.5h37.2l.5.5v6.4h0ZM134.7,27.4c0,2.3-1.1,4.3-3.2,5.7-1.1.5-2.1.8-3.4.8h-25.2c-3.2,0-5.4-1.6-6.4-4.7l-.2-1.6V4.9l.5-.5h8.7l.5.5v22.2h19.2V4.9l.5-.5h8.7l.5.5v22.6h0ZM175.4,11.4l-.5.5h-28.1v14.6h28.1l.5.5v6.3l-.5.5h-37.1l-.5-.5V5l.5-.5h37.1l.5.5v6.4h0ZM173.1,16.3v6.3l-.4.5h-24l-.5-.5v-6.3l.5-.4h23.9l.5.4ZM215.8,33.5l-.5.5h-31.1c-3.2,0-5.3-1.6-6.3-4.6l-.2-1.6V5.3l.5-.5h8.6l.5.5v22.1h28.1l.5.4v5.7h0Z" inkscape:connector-curvature="0"/>
    </g>
  </g>
</svg>