<?xml version="1.0" encoding="UTF-8"?>
<svg id="Layer_1" xmlns="http://www.w3.org/2000/svg" width="200.1" height="55.9" version="1.1" viewBox="0 0 200.1 55.9">
  <!-- Generator: Adobe Illustrator 29.2.1, SVG Export Plug-In . SVG Version: 2.1.0 Build 116)  -->
  <defs>
    <style>
      .st0 {
        fill: #c6bfe2;
      }
    </style>
  </defs>
  <path class="st0" d="M33.8,0L0,15.6l8.5,31.8,6.4-.7-1.7-20,2.1-.9,3.5,20.5,10.8-1.4-1.9-22.2,2.1-.9,4,22.6,11.1-1.4-2.1-24.3,2.1-.9,4.2,24.8,10.8-1.4V6.6L33.8,0ZM34.5,48.6l.5,3.1,25,4.2v-10.4l-25.5,3.1h0ZM83.8,42v4.2h5.4c0,.9,0,1.7-.7,2.6-.5.7-1.2,1.4-1.9,1.7-.9.5-1.9.7-3.1.7s-2.4-.2-3.3-.9-1.7-1.7-2.1-2.8c-.5-1.4-.7-2.8-.7-4.5s0-3.1.7-4.5c.5-1.2,1.2-2.1,2.1-2.8.9-.7,2.1-.9,3.3-.9s1.2,0,1.9.2c.5,0,.9.5,1.4.7s.7.7,1.2,1.2c0,.5.5.9.7,1.4h5.9c0-1.2-.5-2.4-1.2-3.5s-1.4-1.9-2.4-2.8c-.9-.7-2.1-1.4-3.3-1.9-1.4-.5-2.8-.7-4-.7s-3.3.2-4.7.9c-1.4.5-2.8,1.4-3.8,2.6-1.2,1.2-2.1,2.6-2.6,4.2-.7,1.9-.9,3.8-.9,5.7,0,2.8.5,5,1.7,7.1.9,1.9,2.6,3.5,4.2,4.5,3.8,2.1,8.3,2.1,12.3.2,1.7-.9,3.1-2.1,4-3.8s1.4-3.5,1.4-5.9v-3.3h-10.8l-.7.5ZM157.1,55.9v-25.7h17.7v4.7h-11.8v5.7h9.4v4.7h-9.4v5.7h11.8v4.7h-17.7v.2ZM191.8,37.7c0-.9-.5-1.7-1.2-2.4-.7-.5-1.7-.7-3.1-.7s-1.4,0-2.1.2c-.5,0-.9.5-1.4.9,0,.5-.5.9-.5,1.4v1.2c0,.2.5.7.7.9.5.2.7.5,1.2.7.5,0,.9.2,1.7.5l2.4.5c1.2,0,2.1.5,3.3.9.9.5,1.7.9,2.4,1.7.7.7,1.2,1.4,1.7,2.1.5.9.5,1.9.5,2.8,0,1.4-.5,2.8-1.2,4.2-.9,1.2-2.1,2.1-3.5,2.6-1.7.7-3.5.9-5.4.9s-3.8-.2-5.4-.9c-1.4-.5-2.8-1.7-3.5-2.8-.9-1.2-1.4-2.8-1.4-4.7h5.7c0,1.4.9,2.8,2.4,3.3.7.2,1.7.5,2.4.5s1.7,0,2.4-.5c.5,0,1.2-.5,1.4-.9,0-.5.5-.9.5-1.4s0-.9-.5-1.4-.9-.7-1.4-.9c-.7-.2-1.7-.5-2.4-.7l-2.8-.7c-2.1-.5-4-1.4-5.2-2.4-1.2-1.2-1.9-2.6-1.9-4.5s.5-2.8,1.2-4.2c.9-1.2,2.1-2.1,3.5-2.8,1.7-.7,3.3-.9,5.2-.9s3.5.2,5.2.9c1.4.7,2.6,1.7,3.3,2.8s1.2,2.6,1.2,4.2h-5.7l.5-.5h.2ZM152.9,55.9h-5.7v-19.6h-.7l-5.9,19.6h-5.7l-5.7-19.6h-.7v19.6h-5.7v-25.7h9.7l5,17.2h.7l5-17.2h9.9v25.7h-.2ZM114,55.9h6.1l-8.7-25.7h-7.8l-8.7,25.7h6.1l1.7-5.7h9.4l1.7,5.7h.2ZM104.1,45.8l2.8-9.4h.9l2.8,9.4h-6.6ZM199.1,32.8c-.5,0-.9-.2-1.2-.9v-1.4l.5-.2h.9l.5.2v1.9l-.5.2h-.5l.2.2ZM199.1,32.5h.5l.5-.2v-.9s0-.2-.5-.2h-.9v1.4h.5ZM198.7,32.1v-1.2h.7-.7v-.2h0v.9h0v.5ZM199.6,31.6v.5h0v-.5h0ZM96.3.2h5.9v25.7h-5.9V.2ZM129.8,13.2c0,2.8-.5,5.2-1.7,7.1-.9,1.9-2.6,3.5-4.2,4.5-3.8,2.1-8.5,2.1-12.3,0-1.9-.9-3.3-2.6-4.2-4.5-1.2-1.9-1.7-4.2-1.7-7.1s.5-5.2,1.7-7.1c.9-1.9,2.6-3.5,4.2-4.5,3.8-2.1,8.5-2.1,12.3,0,1.9.9,3.3,2.6,4.2,4.5,1.2,1.9,1.7,4.2,1.7,7.1M123.9,13.2c0-1.4,0-3.1-.7-4.5-.5-1.2-1.2-2.1-2.1-2.8-2.1-1.2-4.5-1.2-6.6,0-.9.7-1.7,1.7-2.1,2.8-.9,2.8-.9,5.9,0,9,.5,1.2,1.2,2.1,2.1,2.8,2.1,1.2,4.5,1.2,6.6,0,.9-.7,1.7-1.7,2.1-2.8.5-1.4.7-2.8.7-4.5M84,17l3.1,9h6.4l-3.3-9.7h-4.5v-.9c.7,0,2.1-.5,3.3-1.4,1.9-1.2,3.1-3.3,3.1-5.7s0-3.1-1.2-4.2c-.7-1.2-1.9-2.4-3.3-2.8C85.9.5,84.3,0,82.6.2h-10.4v25.7h5.9v-9h5.9ZM84,11.8c-.7,0-1.7.5-2.4.5h-3.3v-7.1h3.3c.9,0,1.7,0,2.4.5.7.2,1.2.7,1.4,1.2.5.5.5,1.2.5,1.9s0,1.4-.5,1.9c0,.5-.9.9-1.4,1.2M130.3.2v4.7h9.9v.9c-.5,0-1.9.5-3.3,1.2v18.9h5.7V5h6.6V.2h-19.1.2Z"/>
</svg>