<?xml version="1.0" encoding="UTF-8"?>
<svg id="Layer_1" xmlns="http://www.w3.org/2000/svg" width="240.1" height="63.6" version="1.1" viewBox="0 0 240.1 63.6">
  <!-- Generator: Adobe Illustrator 29.2.1, SVG Export Plug-In . SVG Version: 2.1.0 Build 116)  -->
  <defs>
    <style>
      .st0 {
        fill-rule: evenodd;
      }

      .st0, .st1 {
        fill: #c6bfe2;
      }
    </style>
  </defs>
  <path class="st1" d="M84.6,43.3c4.5-2.9,10.1-3.4,15.3-2.6,1.1.3,2.8.5,3,1.9.3,2.9-.5,5.7-1.4,8.4-1.2,3.1-2.9,6.2-5.7,8.2-.6.5-1.5-.1-1.1-.8,1.3-3.3,2.6-6.5,3.2-9.9.1-.9.3-1.9-.1-2.8-.5-.8-1.6-1-2.5-1.1-3.8-.4-7.7.2-11.5.5-.5-.7,0-1.4.7-1.8h0Z"/>
  <path class="st0" d="M93.9,17.4c1.3,0,2.3-.2,2.9-.6.6-.4.9-1.1.9-1.8,0-1.6-1-2.5-2.9-2.5s-4,1.5-4.4,4.6c1.2.2,2.3.3,3.5.3h0ZM95.2,29.6c-3.3,0-5.7-.9-7.5-2.6-1.7-1.8-2.6-4.3-2.6-7.6s.9-6,2.7-7.9c1.8-1.9,4.3-2.9,7.4-2.9s4.3.6,5.7,1.7c1.4,1.2,2.1,2.7,2.1,4.7s-.7,3.4-2.2,4.4c-1.5,1-3.6,1.5-6.5,1.5-1.3,0-2.6-.1-3.9-.4.2,1.7.7,3,1.6,3.7.9.7,2.3,1.1,4.1,1.1s1.4,0,2.1-.1c1-.2,1.9-.4,2.9-.6.1,0,.3,0,.4,0,.5,0,.7.3.7.9v1.8c0,.3,0,.6-.2.9-.2.2-.4.4-.7.5-1.9.7-4,1.1-6.1,1.1h0ZM51.9,29c-.3,0-.5,0-.7-.2-.2-.2-.3-.5-.2-.7V10.1c0-.3,0-.5.2-.8.2-.2.5-.2.7-.2h2.8c.5,0,1,.3,1.1.8l.3,1c1.2-.8,2.4-1.5,3.7-1.9,1.1-.4,2.3-.6,3.4-.6,2.4,0,4,.8,5,2.5,1.2-.8,2.4-1.5,3.8-1.9,1.2-.4,2.4-.6,3.6-.6,1.8,0,3.3.5,4.3,1.5s1.5,2.4,1.5,4.2v13.7c0,.3,0,.5-.2.7-.2.2-.5.3-.8.2h-3.8c-.3,0-.5,0-.7-.2-.2-.2-.3-.5-.2-.7v-12.5c0-1.7-.8-2.6-2.4-2.6s-2.9.4-4.3,1v14.1c0,.3,0,.5-.2.7-.2.2-.5.3-.8.2h-3.8c-.3,0-.5,0-.7-.2-.2-.2-.3-.5-.2-.7v-12.5c0-1.8-.8-2.6-2.4-2.6s-3,.4-4.3,1v14.1c0,.3,0,.5-.2.7-.2.2-.5.3-.8.2h-3.7ZM41.3,29c-.3,0-.5,0-.7-.2-.2-.2-.3-.5-.2-.7V10.1c0-.3,0-.5.2-.8.2-.2.5-.2.7-.2h3.8c.3,0,.5,0,.8.2.2.2.3.5.2.8v17.9c0,.3,0,.5-.2.7-.2.2-.5.3-.8.2h-3.8ZM43.2,6.1c-.9,0-1.7-.3-2.4-.8-1.2-1.2-1.2-3.2,0-4.4,1.4-1.1,3.4-1.1,4.8,0,1.2,1.2,1.2,3.2,0,4.4-.7.6-1.5.9-2.4.8ZM25.7,29c-.3,0-.5,0-.7-.2-.2-.2-.3-.5-.2-.7V10.1c0-.3,0-.5.2-.8.2-.2.5-.2.7-.2h2.8c.5,0,1,.3,1.1.8l.5,2.1c.8-1,1.8-1.8,3-2.4.9-.5,1.9-.7,3-.7h.5c.3,0,.5,0,.8.2.2.2.3.5.2.8v3.3c0,.3,0,.5-.2.7-.2.2-.5.3-.8.2-.2,0-.4,0-.7,0-.4,0-.7,0-1.1,0-.7,0-1.5,0-2.2.3-.7.1-1.5.4-2.2.6v13.1c0,.3,0,.5-.2.7-.2.2-.5.3-.8.2h-3.8,0ZM10.7,25.2c1.5,0,2.6-.5,3.2-1.5s1-2.6,1-4.7-.4-3.7-1-4.7c-.7-1-1.8-1.5-3.3-1.5s-2.7.4-3.8,1v10.2c1.2.7,2.5,1.1,3.8,1h0ZM2.1,37c-.3,0-.5,0-.7-.2-.2-.2-.3-.5-.2-.8V10.1c0-.3,0-.5.2-.7.2-.2.5-.2.7-.2h2.8c.5,0,1,.3,1.1.8l.3,1c.8-.8,1.8-1.4,2.8-1.8,1.1-.5,2.2-.6,3.4-.6,2.6,0,4.6.9,6,2.7,1.5,1.8,2.2,4.3,2.2,7.5,0,1.9-.3,3.8-1.1,5.7-.6,1.5-1.7,2.8-3,3.7-1.3.9-2.8,1.3-4.3,1.3-1,0-2.1-.2-3.1-.5-.9-.3-1.7-.8-2.5-1.4v8.5c0,.3,0,.5-.2.8-.2.2-.5.2-.8.2h-3.8Z"/>
  <path class="st0" d="M231.4,24.9c1.6,0,3.2-.6,4.8-1.8v-10.4c-1.4-1.2-3.2-1.8-5.1-1.7-3.4,0-5.1,2.3-5.1,7s.5,4,1.4,5.2,2.2,1.8,4,1.8h0ZM230.5,37.1c-2.1,0-4.1-.4-6-1.2-.3,0-.5-.2-.6-.4-.1-.2-.2-.5-.2-.7v-1.2c0-.5.2-.7.5-.7s.4,0,.6.1c.2,0,.5.2.9.3,1.5.4,3,.6,4.5.7,2.1,0,3.6-.5,4.6-1.5s1.5-2.6,1.5-4.9v-1.8c-.8.7-1.8,1.3-2.9,1.8-1,.4-2,.6-3.1.6-1.6,0-3.1-.4-4.4-1.3-1.3-.9-2.2-2.1-2.8-3.5-.7-1.6-1-3.4-1-5.2,0-3.2.7-5.7,2.2-7.6,1.5-1.9,3.5-2.8,6-2.8s4.5.9,6.2,2.5l.2-1.1c0-.2.1-.5.3-.6.2-.1.4-.2.6-.2h1.7c.4,0,.7.2.8.6v18.3c0,3.1-.8,5.6-2.5,7.3-1.6,1.7-4,2.6-7.1,2.6h0ZM201.7,28.4c-.4,0-.7-.2-.8-.6V9.1c0-.4.2-.7.6-.8h1.9c.2,0,.4,0,.6.2.2.2.3.4.3.6l.2,1.5c2.5-1.9,5.1-2.8,7.8-2.8s3.4.5,4.4,1.5c1,1,1.5,2.5,1.5,4.4v14c0,.4-.2.7-.6.8h-2.5c-.4,0-.7-.2-.8-.6v-12.8c0-1.4-.3-2.4-.8-3.1s-1.5-1-2.6-1c-2.1,0-4.1.7-6.1,2v14.7c0,.4-.2.7-.6.8h-2.5ZM192.9,28.4c-.4,0-.7-.2-.8-.6V9.1c0-.4.2-.7.6-.8h2.5c.4,0,.7.2.8.6v18.7c0,.4-.2.7-.6.8h-2.5ZM194,4.8c-.6,0-1.3-.2-1.8-.6-.9-1-.9-2.5,0-3.5,1-.9,2.5-.9,3.6,0,.9,1,.9,2.5,0,3.5-.5.5-1.1.7-1.8.6h0ZM158.7,28.4c-.4,0-.7-.2-.8-.6V9.1c0-.4.2-.7.6-.8h1.9c.2,0,.4,0,.6.2.2.2.3.4.3.6l.2,1.3c2.5-1.7,4.9-2.6,7.3-2.6s4.1.9,4.9,2.8c2.6-1.9,5.2-2.8,7.8-2.8s3.2.5,4.2,1.6c1,1,1.5,2.5,1.5,4.4v14c0,.4-.2.7-.6.8h-2.5c-.4,0-.7-.2-.8-.6v-13c0-1.3-.3-2.3-.7-2.9s-1.3-1-2.4-1c-1.9,0-3.8.6-5.7,1.8,0,.2,0,.4,0,.6v14.3c0,.4-.2.7-.6.8h-2.5c-.4,0-.7-.2-.8-.6v-13c0-1.3-.3-2.3-.7-2.9s-1.3-1-2.4-1c-2,0-4,.6-5.7,1.7v15c0,.4-.2.7-.6.8h-2.6ZM144,26c.9,0,1.8-.2,2.7-.5,1-.4,1.9-.9,2.7-1.5v-4.1c-1.4-.3-2.7-.5-4.1-.5-2.9,0-4.4,1.2-4.4,3.5s.3,1.8.8,2.3c.5.5,1.3.8,2.4.8h0ZM143,28.9c-1.8,0-3.3-.5-4.5-1.6-1.1-1.1-1.7-2.5-1.7-4.3s.7-3.5,2-4.6,3.2-1.7,5.5-1.7,3.3.3,4.9.7v-2.6c0-1.4-.3-2.4-1-3s-1.7-.9-3.3-.9-3.6.3-5.3.8c-.4.1-.7.2-1.1.3-.3,0-.5-.2-.5-.7v-1.1c0-.3,0-.5.2-.7.2-.2.4-.4.6-.4,1-.4,2-.7,3.1-.9,1.2-.2,2.5-.3,3.7-.3,2.5,0,4.3.5,5.5,1.6,1.2,1.1,1.8,2.6,1.8,4.8v13.6c0,.4-.2.7-.6.8h-1.9c-.4,0-.8-.3-.9-.7h0s-.2-1.3-.2-1.3c-.9.8-2,1.5-3.1,1.9-1.1.5-2.2.7-3.4.7h0ZM124.6,24.9c1.6,0,3.2-.6,4.8-1.8v-10.4c-1.4-1.2-3.2-1.8-5-1.7-3.4,0-5.1,2.3-5.1,7s.5,4,1.4,5.2,2.2,1.8,4,1.8h0ZM123.7,37.1c-2.1,0-4.1-.4-6-1.2-.5-.1-.9-.6-.8-1.2v-1.2c0-.5.2-.7.5-.7s.4,0,.6.1c.2,0,.5.2.9.3,1.5.4,3,.6,4.5.7,2.1,0,3.6-.5,4.6-1.5s1.5-2.6,1.5-4.9v-1.8c-.8.7-1.8,1.3-2.9,1.8-1,.4-2,.6-3.1.6-1.6,0-3.1-.4-4.4-1.3-1.3-.9-2.2-2.1-2.8-3.5-.7-1.6-1-3.4-1-5.2,0-3.2.7-5.7,2.2-7.6s3.5-2.8,6-2.8,4.5.9,6.1,2.5l.2-1.1c0-.2.1-.5.3-.6.2-.1.4-.2.6-.2h1.7c.4,0,.7.2.8.6v18.3c0,3.1-.8,5.6-2.5,7.3s-4,2.6-7.1,2.6h0Z"/>
  <path class="st1" d="M.5,42.6c.4-.3.9,0,1.3,0,14.1,8.2,30.2,12.7,46.5,13.4,14.8.6,29.6-2.1,43.2-7.8.9-.5,2.3,0,2.5,1.1.1.9-.8,1.5-1.4,2-8.6,6-18.8,9.6-29.1,11.3-14.8,2.4-29.9.4-43.5-5.7-6.5-2.9-12.5-6.8-17.9-11.4-.6-.5-1.1-1-1.6-1.5-.3-.4-.3-.9,0-1.2,0,0,0,0,0,0h0Z"/>
</svg>