<?xml version="1.0" encoding="UTF-8"?>
<svg id="Layer_1" xmlns="http://www.w3.org/2000/svg" width="277.9" height="54" version="1.1" xmlns:cc="http://creativecommons.org/ns#" xmlns:dc="http://purl.org/dc/elements/1.1/" xmlns:inkscape="http://www.inkscape.org/namespaces/inkscape" xmlns:rdf="http://www.w3.org/1999/02/22-rdf-syntax-ns#" xmlns:sodipodi="http://sodipodi.sourceforge.net/DTD/sodipodi-0.dtd" xmlns:svg="http://www.w3.org/2000/svg" viewBox="0 0 277.9 54">
  <!-- Generator: Adobe Illustrator 29.2.1, SVG Export Plug-In . SVG Version: 2.1.0 Build 116)  -->
  <defs>
    <style>
      .st0 {
        fill: #c6bfe2;
        fill-rule: evenodd;
      }
    </style>
  </defs>
  <g id="svg4" sodipodi:docname="Electronic_Arts_2020.svg">
    <sodipodi:namedview id="namedview6" bordercolor="#666666" borderopacity="1" gridtolerance="10" guidetolerance="10" inkscape:current-layer="svg4" inkscape:cx="1879.5162" inkscape:cy="338.64676" inkscape:pageopacity="0" inkscape:pageshadow="2" inkscape:window-height="705" inkscape:window-maximized="1" inkscape:window-width="1366" inkscape:window-x="-8" inkscape:window-y="-8" inkscape:zoom="0.25965428" objecttolerance="10" pagecolor="#ffffff" showgrid="false"/>
    <g id="g854">
      <path id="path2" class="st0" d="M267.9,26.9c0-1,1.1-1.5,2.2-1.5,1.9,0,3.4,1.1,3.7,2.9h3.8c-.4-3.5-3.4-6-7.5-6s-6.4,1.9-6.4,5.1,3.4,4.5,6.2,5.2c2,.5,3.7,1,3.7,2.2s-1.1,1.6-2.6,1.6-3.6-1.2-3.8-2.9h-3.8c.4,3.5,3.5,6.1,7.7,6.1s6.8-2,6.8-5.2-3.4-4.4-6.2-5.1c-2.1-.5-3.8-1-3.8-2.2h0ZM246.9,22.6h-4.2v16.5h4.2v-8.8c0-2.3,2-4.6,5.4-4.1v-4c-2.5-.3-4.4,1.1-5.4,3.3v-3h0ZM232.8,30.6l-3.2-6.8-3.1,6.8h6.3ZM229.7,14.9l11.9,24.2h-4.8l-2.4-4.9h-9.7l-2.3,4.9h-4.7l11.9-24.2h0ZM206.7,29.1h4.3c-.8-4-4.2-6.8-8.4-6.8s-8.7,3.6-8.7,8.6,3.9,8.6,8.7,8.6,7.6-2.7,8.4-6.7h-4.3c-.7,1.8-2.2,2.9-4.1,2.9s-4.5-1.9-4.5-4.7,2-4.8,4.5-4.8,3.4,1.1,4.1,2.9h0ZM187.8,39.1h4.2v-16.5h-4.2v16.5ZM187.2,17.8c0,1.5,1.2,2.7,2.7,2.7s2.7-1.2,2.7-2.7-1.2-2.7-2.7-2.7-2.7,1.2-2.7,2.7ZM174.4,24.6v-2.1h-4.2v16.5h4.2v-10c0-1.9,1.5-3.5,3.5-3.5s3.5,1.5,3.5,3.6v9.9h4.2v-10.2c0-3.9-2.2-6.7-6.2-6.7s-4,.9-4.9,2.4h0ZM159.5,26.1c-2.5,0-4.6,1.9-4.6,4.8s2,4.7,4.6,4.7,4.6-1.9,4.6-4.7-2-4.8-4.6-4.8ZM159.5,39.4c-4.8,0-8.8-3.6-8.8-8.6s3.9-8.6,8.8-8.6,8.8,3.6,8.8,8.6-3.9,8.6-8.8,8.6ZM145.3,22.6h-4.2v16.5h4.2v-8.8c0-2.3,2-4.6,5.4-4.1v-4c-2.5-.3-4.4,1.1-5.4,3.3v-3h0ZM257.9,17.7l-4.2,1.3v15.8c0,2.5,1.8,4.3,4.8,4.3h4.1v-3.7h-2.9c-1.3,0-1.9-.6-1.9-1.7v-7.5h4.8v-3.6h-4.8v-4.8h0ZM134.6,17.7l-4.2,1.3v15.8c0,2.5,1.8,4.3,4.8,4.3h4.1v-3.7h-2.9c-1.3,0-1.9-.6-1.9-1.7v-7.5h4.8v-3.6h-4.8v-4.8h0ZM124.9,29.1h4.3c-.8-4-4.2-6.8-8.4-6.8s-8.7,3.6-8.7,8.6,3.9,8.6,8.7,8.6,7.6-2.7,8.4-6.7h-4.3c-.7,1.8-2.2,2.9-4.1,2.9s-4.5-1.9-4.5-4.7,2-4.8,4.5-4.8,3.4,1.1,4.1,2.9h0ZM106.1,29.2c-.4-1.9-2.1-3.3-4.1-3.3s-3.6,1.3-4.2,3.3h8.2ZM110.7,32.2h-12.8c.6,2.1,2.4,3.5,4.7,3.5s2.5-.5,3.2-1.5h4.7c-1.2,3.2-4.2,5.3-7.9,5.3s-9-3.6-9-8.6,3.8-8.6,8.6-8.6,8.6,3,8.6,9.4,0,.4,0,.6h0ZM87.4,39.1h4.2V14.6l-4.2,1.3v23.2h0ZM68.6,15.9h16.8v4.1h-12.2v5.4h9.9v4h-9.9v5.7h12.2v4h-16.8V15.9h0Z" inkscape:connector-curvature="0"/>
      <g id="g6397">
        <g id="g6399">
          <path id="path6401" class="st0" d="M27,54C12.1,54,0,41.9,0,27S12.1,0,27,0s27,12.1,27,27-12.1,27-27,27h0ZM31.6,16.6h-15.3l-2.3,3.7h15.3s2.3-3.7,2.3-3.7ZM34.7,16.6l-9.3,14.9h-10.3l2.4-3.7h6.2l2.4-3.7h-14.4l-2.4,3.7h3.4l-4.7,7.4h19.7l7.3-11.5,2.6,4h-2.4l-2.3,3.7h7.1l2.5,3.7h4.5l-12.2-18.6h0Z" inkscape:connector-curvature="0" sodipodi:nodetypes="ssssscccccccccccccccccccccccc"/>
        </g>
      </g>
    </g>
  </g>
</svg>