<?xml version="1.0" encoding="UTF-8"?>
<svg id="Layer_1" xmlns="http://www.w3.org/2000/svg" width="64" height="64" version="1.1" viewBox="0 0 64 64">
  <!-- Generator: Adobe Illustrator 29.2.1, SVG Export Plug-In . SVG Version: 2.1.0 Build 116)  -->
  <defs>
    <style>
      .st0 {
        fill: #c6bfe2;
      }
    </style>
  </defs>
  <path class="st0" d="M6.5,7.5C25-8.5,54.5,2.6,58.3,26.8c4.6,29.8-31.2,49.4-53,28.5,3,.4,6-.3,8.8-.4,5.8-.2,14.5,1.1,19.6-1.4,9.1-4.4,9.1-21.1-1.3-23.7-.6-.6,2.3-2.1,2.9-2.7,5.4-5.6,3.1-14.1-3.2-17.8s-3.3-1.7-3.6-1.7H6.5Z"/>
  <path class="st0" d="M10.6,48.7v-15.7h6.4c.2,0,2.5,1.1,2.8,1.3,4,2.6,4.6,10.3.4,13.1-.4.2-2.6,1.3-2.8,1.3h-6.8Z"/>
  <path class="st0" d="M10.6,27.3v-14h6c.1,0,1.8,1,2.1,1.2,1.7,1.2,2.9,3,3.1,5.1.8,7.3-5.3,7.9-11.1,7.6Z"/>
</svg>