<?xml version="1.0" encoding="UTF-8"?>
<svg id="Layer_1" xmlns="http://www.w3.org/2000/svg" width="64" height="64" version="1.1" viewBox="0 0 64 64">
  <!-- Generator: Adobe Illustrator 29.2.1, SVG Export Plug-In . SVG Version: 2.1.0 Build 116)  -->
  <defs>
    <style>
      .st0 {
        fill: #c6bfe2;
      }
    </style>
  </defs>
  <path class="st0" d="M54.346,9.439C48.4,3.443,40.468.091,32.012.001c-7.788-.08-15.713,3.304-21.741,9.288C4.06,15.457.554,23.515.401,31.98c-.152,8.353,2.983,16.283,8.832,22.329.225.232.454.459.685.681.031.027.06.058.091.087.085.084.17.167.258.249.031.03.063.059.095.09.139.13.279.259.42.386.005.005.012.01.017.015.077.072.156.139.233.209.06.053.12.108.181.16.077.068.152.135.23.199.191.163.382.324.578.485.163.133.327.264.491.393.166.129.333.258.5.384.173.129.347.258.523.384.174.126.35.25.527.373.171.119.343.234.516.35.133.087.265.174.399.259.108.068.215.138.323.204,5.018,3.139,10.741,4.786,16.705,4.786h.025c10.458-.001,20.217-5.236,26.114-14.021l.081-.125c.053-.081.107-.163.159-.244l.095-.149c.042-.066.083-.13.127-.201.04-.063.078-.126.116-.19,1.207-1.926,2.213-3.991,2.994-6.164.005-.013.01-.029.015-.042.006-.016.011-.033.015-.05.019-.046.036-.093.051-.139v-.002c1.172-3.339,1.809-6.932,1.809-10.674,0-8.528-3.289-16.54-9.259-22.56ZM1.707,41.515c-.003-.01-.006-.022-.008-.034.004.012.007.022.01.034.04.133.081.263.123.395-.044-.132-.084-.262-.125-.395ZM4.272,47.603c-.564-1.021-1.072-2.075-1.516-3.156.464,1.12.995,2.213,1.591,3.273-.026-.037-.052-.076-.075-.118ZM3.29,36.726c.002-.094.002-.187.006-.28.005-.331.018-.663.041-.992.004-.09.01-.18.018-.271.018-.257.041-.514.068-.77.004-.028.005-.053.008-.08.022-.202.046-.404.074-.604.027-.201.057-.401.089-.601.065-.401.141-.799.224-1.195.01-.051.022-.104.033-.156.038-.182.081-.362.126-.543.014-.059.028-.117.044-.176.053-.208.106-.413.163-.619.058-.204.117-.408.18-.612.115-.376.238-.748.371-1.116.082-.226.166-.452.255-.679.354-.901.76-1.781,1.216-2.631.171-.317.348-.632.532-.943.371-.62.767-1.224,1.19-1.807.14-.194.284-.385.43-.574.292-.379.598-.749.914-1.108.158-.18.319-.357.483-.532,1.141-1.218,2.419-2.308,3.815-3.227,2.098-1.383,4.18-2.401,6.218-3.11.291-.102.58-.197.87-.286.144-.044.29-.087.433-.127.289-.084.576-.16.862-.23,1.861-.458,3.674-.666,5.419-.666,2.4,0,4.67.393,6.756,1.066.258.084.514.172.767.265.765.277,1.504.593,2.214.94.267.13.532.268.792.409.65.352,1.273.731,1.864,1.13.236.161.468.324.693.49.227.167.448.336.664.508.229.182.447.367.654.556.06.053.117.107.175.161-3.177-1.988-6.835-3.249-10.538-3.605-5.823-.56-11.594,1.011-17.145,4.672-3.925,2.587-7.158,6.548-9.105,11.15-.931,2.205-1.556,4.487-1.865,6.793-.002-.073-.004-.146-.004-.218-.002-.126-.002-.254-.002-.381ZM32.027,61.961h-.023c-3.797,0-7.479-.739-10.885-2.097-.112-.042-.224-.089-.335-.137-.344-.14-.688-.29-1.028-.445-.131-.059-.259-.12-.388-.18-.174-.083-.349-.166-.521-.254-.168-.083-.334-.166-.499-.255-.167-.085-.33-.171-.495-.264-.164-.087-.327-.176-.489-.271-2.452-1.387-4.713-3.127-6.698-5.179-1.814-1.876-3.35-3.946-4.585-6.159-.009-.019-.015-.037-.022-.056-.243-.648-.445-1.242-.618-1.81-1.636-9.064,2.436-18.83,9.918-23.763,10.924-7.202,21.397-4.521,27.551.385.464.373.904.771,1.318,1.198-2.956-.864-5.388-1.056-6.988-1.051-5.037.015-9.641,1.608-12.966,4.484-3.53,3.057-5.398,7.265-5.398,12.165,0,4.819,1.72,9.242,4.84,12.456,3.349,3.447,8.009,5.269,13.475,5.269,8.974,0,15.008-3.287,18.549-6.131.012-.01.023-.018.035-.028-5.569,7.614-14.355,12.121-23.748,12.121ZM40.446,23.916c-3.164.891-5.633,2.626-7.369,5.19-2.294,3.387-2.537,7.174-2.536,8.644,0,3.112,1.274,6.4,3.41,8.8,1.99,2.233,5.776,4.896,12.521,4.896,1.382,0,2.685-.18,3.901-.49-3.842,1.993-8.257,3.002-13.182,3.002-9.6,0-16.305-6.45-16.305-15.685,0-8.573,6.729-14.581,16.361-14.61h.047c.828,0,1.894.058,3.152.252ZM59.951,41.918c-.019.029-.035.06-.051.09,0,.002-.008.016-.02.041.008-.022.017-.044.024-.066-.728.976-5.838,7.425-13.432,7.425-11.012,0-13.921-7.624-13.921-11.657-.001-1.282.209-4.574,2.182-7.49,2.233-3.299,5.986-4.983,11.158-5.004h.008c.031-.002.063-.002.095-.002.851,0,1.325-.572,1.472-.868.166-.335.276-.851.057-1.584-.033-.114-.077-.233-.129-.359-.04-.1-.088-.204-.142-.312-.027-.054-.055-.109-.086-.165-.015-.026-.029-.054-.046-.082-.017-.026-.033-.056-.049-.083-.123-.209-.248-.427-.383-.653-.044-.076-.089-.152-.137-.229-.186-.309-.387-.631-.609-.963,0-.001-.001-.003-.002-.004-.079-.12-.161-.238-.245-.359-.682-.982-1.536-2.03-2.667-3.038-.142-.126-.286-.25-.436-.374-.075-.063-.152-.125-.229-.187-3.621-2.888-8.144-4.722-12.74-5.164-5.827-.562-11.594,1.01-17.148,4.669-3.926,2.589-7.161,6.551-9.106,11.155-.241.568-.461,1.142-.66,1.72C4.807,13.924,17.545,2.039,31.724,2.039c.087,0,.179.001.268.001,16.323.174,29.602,13.613,29.602,29.958,0,3.5-.595,6.86-1.69,9.984.019-.025.035-.047.047-.064Z"/>
</svg>