<?xml version="1.0" encoding="UTF-8"?>
<svg id="Layer_1" xmlns="http://www.w3.org/2000/svg" width="64" height="64" version="1.1" viewBox="0 0 64 64">
  <!-- Generator: Adobe Illustrator 29.2.1, SVG Export Plug-In . SVG Version: 2.1.0 Build 116)  -->
  <defs>
    <style>
      .st0 {
        fill: #c6bfe2;
      }
    </style>
  </defs>
  <g id="_グループ_1626">
    <path id="_パス_348" class="st0" d="M62.5,51.6h-.2c-1.4-.2-2.8-.6-4.2-1.1-.7-.3-1.4-.5-2-.9-9.7-4.9-13.6-16.8-8.7-26.6,1.9-3.8,5-6.8,8.7-8.7.7-.3,1.3-.6,2-.9,1.4-.5,2.8-.9,4.2-1.1h.2c.8-.2,1.4-.9,1.4-1.8h0v-.4c-1.1-5.8-6.2-10.1-12.1-10.1h-6.1c-.8,0-1.5.5-1.7,1.3h0c0,.3,0,.5-.2.8,0,.4-.3.8-.4,1.2-2.5,6.3-9.7,9.3-15.9,6.7-3.1-1.2-5.5-3.7-6.7-6.7-.2-.4-.3-.8-.4-1.2,0-.3-.1-.5-.2-.8h0c0-.3-.2-.6-.5-.9-.3-.3-.8-.5-1.3-.5h-6.1C5.5,0,0,5.5,0,12.2v39.6c0,6.7,5.5,12.2,12.2,12.2h6.1c.5,0,.9-.2,1.3-.5.2-.2.4-.5.5-.9h0c0-.3.1-.5.2-.8.1-.4.3-.8.4-1.2,2.5-6.3,9.6-9.3,15.9-6.8,3.5,1.4,6.1,4.3,7.2,8,0,.3,0,.5.2.8h0c.2.8.9,1.3,1.7,1.3h6.1c6,0,11.1-4.3,12-10.2v-.4h0c0-.8-.6-1.6-1.4-1.7h.1Z"/>
    <path id="_パス_349" class="st0" d="M62.8,23.1h0c-1-.7-2.1-1.1-3.3-1.2h-.9c-1.5,0-3,.4-4.2,1.3h0c-.5.3-.8.8-1,1.3,0,.3-.2.7-.2,1,0,.8.3,1.6.9,2.1,0,0,.2.1.3.2h0c.2.2.4.3.6.4,2.3,1.3,5,1.3,7.3,0l.6-.3h0c.7-.5,1.2-1.4,1.2-2.3s-.4-1.8-1.2-2.3l-.2-.2Z"/>
    <path id="_パス_350" class="st0" d="M62.8,36.3h0c-1-.7-2.1-1.1-3.3-1.2h-.9c-1.5,0-3,.4-4.2,1.3h0c-.5.3-.8.8-1,1.3,0,.3-.2.7-.2,1,0,.8.3,1.6.9,2.1,0,0,.2,0,.3.2h0c.2.2.4.3.6.4,2.3,1.3,5,1.3,7.3,0,.2,0,.4-.2.6-.3h0c.7-.5,1.2-1.4,1.2-2.3s-.4-1.8-1.2-2.3l-.2-.2Z"/>
  </g>
</svg>